<?xml version="1.0" encoding="UTF-8" standalone="no"?>
<svg
   width="714.73956"
   height="600"
   viewBox="0 0 714.73956 600"
   version="1.1"
   id="svg34"
   sodipodi:docname="observability.svg"
   inkscape:version="1.1.2 (0a00cf5339, 2022-02-04)"
   inkscape:export-filename="observability.png"
   inkscape:export-xdpi="80.589996"
   inkscape:export-ydpi="80.589996"
   xmlns:inkscape="http://www.inkscape.org/namespaces/inkscape"
   xmlns:sodipodi="http://sodipodi.sourceforge.net/DTD/sodipodi-0.dtd"
   xmlns:xlink="http://www.w3.org/1999/xlink"
   xmlns="http://www.w3.org/2000/svg"
   xmlns:svg="http://www.w3.org/2000/svg">
  <defs
     id="defs38">
    <path
       id="SVGID_1_"
       d="M 258.4,208 105.8,472.6 c -9.8,16.9 -9.8,37.8 0,54.7 L 258.5,792 h 191 L 281,500 449.5,208 Z" />
    <path
       id="SVGID_3_"
       d="M 258.4,208 105.8,472.6 c -9.8,16.9 -9.8,37.8 0,54.7 L 258.5,792 h 191 L 281,500 449.5,208 Z" />
    <rect
       id="SVGID_5_"
       x="61.900002"
       y="294.70001"
       width="460.89999"
       height="570.40002" />
    <rect
       id="SVGID_7_"
       x="61.900002"
       y="294.70001"
       width="460.89999"
       height="570.40002" />
    <path
       id="SVGID_9_"
       d="M 258.4,208 105.8,472.6 c -9.8,16.9 -9.8,37.8 0,54.7 L 258.5,792 h 191 L 281,500 449.5,208 Z" />
    <rect
       id="SVGID_11_"
       x="98.599998"
       y="497.70001"
       width="350.79999"
       height="294.29999" />
    <path
       id="SVGID_13_"
       d="M 258.4,208 105.8,472.6 c -9.8,16.9 -9.8,37.8 0,54.7 L 258.5,792 h 191 L 281,500 449.5,208 Z" />
    <rect
       id="SVGID_15_"
       x="185.5"
       y="208"
       width="264"
       height="128.8" />
    <path
       id="SVGID_17_"
       d="M 258.4,208 105.8,472.6 c -9.8,16.9 -9.8,37.8 0,54.7 L 258.5,792 h 191 L 281,500 449.5,208 Z" />
    <rect
       id="SVGID_19_"
       x="279.70001"
       y="208"
       width="169.7"
       height="292" />
    <path
       id="SVGID_21_"
       d="M 258.4,208 105.8,472.6 c -9.8,16.9 -9.8,37.8 0,54.7 L 258.5,792 h 191 L 281,500 449.5,208 Z" />
    <rect
       id="SVGID_23_"
       x="98.599998"
       y="334.5"
       width="350.89999"
       height="457.60001" />
    <polygon
       id="SVGID_25_"
       points="306.6,455.6 185.6,334.6 281,500 " />
    <filter
       id="Adobe_OpacityMaskFilter"
       filterUnits="userSpaceOnUse"
       x="185.60001"
       y="334.60001"
       width="121"
       height="165.39999">
      <feColorMatrix
         type="matrix"
         values="1 0 0 0 0  0 1 0 0 0  0 0 1 0 0  0 0 0 1 0"
         id="feColorMatrix536" />
    </filter>
    <path
       id="SVGID_30_"
       d="M 550.5,208 719,500 550.5,792 h 191 L 894.2,527.4 c 9.8,-16.9 9.8,-37.8 0,-54.8 L 741.5,208 Z" />
    <path
       id="SVGID_32_"
       d="M 550.5,208 719,500 550.5,792 h 191 L 894.2,527.4 c 9.8,-16.9 9.8,-37.8 0,-54.8 L 741.5,208 Z" />
    <rect
       id="SVGID_34_"
       x="513.70001"
       y="135"
       width="460.89999"
       height="570.40002" />
    <rect
       id="SVGID_36_"
       x="513.70001"
       y="135"
       width="460.89999"
       height="570.40002" />
    <path
       id="SVGID_38_"
       d="M 550.5,208 719,500 550.5,792 h 191 L 894.2,527.4 c 9.8,-16.9 9.8,-37.8 0,-54.8 L 741.5,208 Z" />
    <rect
       id="SVGID_40_"
       x="550.5"
       y="208"
       width="350.79999"
       height="294.29999" />
    <path
       id="SVGID_42_"
       d="M 550.5,208 719,500 550.5,792 h 191 L 894.2,527.4 c 9.8,-16.9 9.8,-37.8 0,-54.8 L 741.5,208 Z" />
    <rect
       id="SVGID_44_"
       x="550.5"
       y="500"
       width="169.8"
       height="292" />
    <path
       id="SVGID_46_"
       d="M 550.5,208 719,500 550.5,792 h 191 L 894.2,527.4 c 9.8,-16.9 9.8,-37.8 0,-54.8 L 741.5,208 Z" />
    <rect
       id="SVGID_48_"
       x="550.5"
       y="208"
       width="350.89999"
       height="457.60001" />
    <polygon
       id="SVGID_50_"
       points="693.4,544.4 814.4,665.4 719,500 " />
    <filter
       id="Adobe_OpacityMaskFilter_1_"
       filterUnits="userSpaceOnUse"
       x="693.40002"
       y="500"
       width="121"
       height="165.39999">
      <feColorMatrix
         type="matrix"
         values="1 0 0 0 0  0 1 0 0 0  0 0 1 0 0  0 0 0 1 0"
         id="feColorMatrix668" />
    </filter>
    <defs
       id="defs451">
      <path
         id="path757"
         d="M 258.4,208 105.8,472.6 c -9.8,16.9 -9.8,37.8 0,54.7 L 258.5,792 h 191 L 281,500 449.5,208 Z" />
    </defs>
    <clipPath
       id="SVGID_10_">
      <use
         xlink:href="#SVGID_9_"
         style="overflow:visible"
         id="use453"
         x="0"
         y="0"
         width="100%"
         height="100%" />
    </clipPath>
    <defs
       id="defs409">
      <path
         id="path728"
         d="M 258.4,208 105.8,472.6 c -9.8,16.9 -9.8,37.8 0,54.7 L 258.5,792 h 191 L 281,500 449.5,208 Z" />
    </defs>
    <clipPath
       id="SVGID_2_">
      <use
         xlink:href="#SVGID_1_"
         style="overflow:visible"
         id="use411"
         x="0"
         y="0"
         width="100%"
         height="100%" />
    </clipPath>
    <defs
       id="defs491">
      <path
         id="path785"
         d="M 258.4,208 105.8,472.6 c -9.8,16.9 -9.8,37.8 0,54.7 L 258.5,792 h 191 L 281,500 449.5,208 Z" />
    </defs>
    <clipPath
       id="SVGID_18_">
      <use
         xlink:href="#SVGID_17_"
         style="overflow:visible"
         id="use493"
         x="0"
         y="0"
         width="100%"
         height="100%" />
    </clipPath>
    <defs
       id="defs623">
      <path
         id="path877"
         d="M 550.5,208 719,500 550.5,792 h 191 L 894.2,527.4 c 9.8,-16.9 9.8,-37.8 0,-54.8 L 741.5,208 Z" />
    </defs>
    <clipPath
       id="SVGID_43_">
      <use
         xlink:href="#SVGID_42_"
         style="overflow:visible"
         id="use625"
         x="0"
         y="0"
         width="100%"
         height="100%" />
    </clipPath>
    <defs
       id="defs419">
      <path
         id="path735"
         d="M 258.4,208 105.8,472.6 c -9.8,16.9 -9.8,37.8 0,54.7 L 258.5,792 h 191 L 281,500 449.5,208 Z" />
    </defs>
    <clipPath
       id="SVGID_4_">
      <use
         xlink:href="#SVGID_3_"
         style="overflow:visible"
         id="use421"
         x="0"
         y="0"
         width="100%"
         height="100%" />
    </clipPath>
    <defs
       id="defs511">
      <path
         id="path799"
         d="M 258.4,208 105.8,472.6 c -9.8,16.9 -9.8,37.8 0,54.7 L 258.5,792 h 191 L 281,500 449.5,208 Z" />
    </defs>
    <clipPath
       id="SVGID_22_">
      <use
         xlink:href="#SVGID_21_"
         style="overflow:visible"
         id="use513"
         x="0"
         y="0"
         width="100%"
         height="100%" />
    </clipPath>
    <defs
       id="defs531">
      <polygon
         id="polygon813"
         points="306.6,455.6 185.6,334.6 281,500 " />
    </defs>
    <clipPath
       id="SVGID_26_">
      <use
         xlink:href="#SVGID_25_"
         style="overflow:visible"
         id="use533"
         x="0"
         y="0"
         width="100%"
         height="100%" />
    </clipPath>
    <defs
       id="defs539">
      <filter
         id="filter820"
         filterUnits="userSpaceOnUse"
         x="185.60001"
         y="334.60001"
         width="121"
         height="165.39999">
        <feColorMatrix
           type="matrix"
           values="1 0 0 0 0  0 1 0 0 0  0 0 1 0 0  0 0 0 1 0"
           id="feColorMatrix818" />
      </filter>
    </defs>
    <mask
       maskUnits="userSpaceOnUse"
       x="185.6"
       y="334.6"
       width="121"
       height="165.4"
       id="SVGID_27_">
      <g
         class="st12"
         id="g548">
        <radialGradient
           id="SVGID_28_"
           cx="246.58929"
           cy="756.81628"
           r="1.9459"
           gradientTransform="matrix(-96.4638,0,0,-96.4638,23973.609,73343.398)"
           gradientUnits="userSpaceOnUse">
          <stop
             offset="0"
             style="stop-color:#333333"
             id="stop541" />
          <stop
             offset="1"
             style="stop-color:#050505"
             id="stop543" />
        </radialGradient>
        <rect
           x="185.60001"
           y="334.60001"
           class="st13"
           width="121"
           height="165.39999"
           clip-path="url(#SVGID_26_)"
           id="rect546" />
      </g>
    </mask>
    <radialGradient
       id="SVGID_29_"
       cx="246.58929"
       cy="756.81628"
       r="1.9459"
       gradientTransform="matrix(-96.4638,0,0,-96.4638,23973.609,73343.398)"
       gradientUnits="userSpaceOnUse">
      <stop
         offset="0"
         style="stop-color:#3E2823"
         id="stop551" />
      <stop
         offset="1"
         style="stop-color:#3E2823"
         id="stop553" />
    </radialGradient>
    <defs
       id="defs643">
      <path
         id="path891"
         d="M 550.5,208 719,500 550.5,792 h 191 L 894.2,527.4 c 9.8,-16.9 9.8,-37.8 0,-54.8 L 741.5,208 Z" />
    </defs>
    <clipPath
       id="SVGID_47_">
      <use
         xlink:href="#SVGID_46_"
         style="overflow:visible"
         id="use645"
         x="0"
         y="0"
         width="100%"
         height="100%" />
    </clipPath>
    <defs
       id="defs471">
      <path
         id="path771"
         d="M 258.4,208 105.8,472.6 c -9.8,16.9 -9.8,37.8 0,54.7 L 258.5,792 h 191 L 281,500 449.5,208 Z" />
    </defs>
    <clipPath
       id="SVGID_14_">
      <use
         xlink:href="#SVGID_13_"
         style="overflow:visible"
         id="use473"
         x="0"
         y="0"
         width="100%"
         height="100%" />
    </clipPath>
    <defs
       id="defs571">
      <path
         id="path841"
         d="M 550.5,208 719,500 550.5,792 h 191 L 894.2,527.4 c 9.8,-16.9 9.8,-37.8 0,-54.8 L 741.5,208 Z" />
    </defs>
    <clipPath
       id="SVGID_33_">
      <use
         xlink:href="#SVGID_32_"
         style="overflow:visible"
         id="use573"
         x="0"
         y="0"
         width="100%"
         height="100%" />
    </clipPath>
    <defs
       id="defs561">
      <path
         id="path834"
         d="M 550.5,208 719,500 550.5,792 h 191 L 894.2,527.4 c 9.8,-16.9 9.8,-37.8 0,-54.8 L 741.5,208 Z" />
    </defs>
    <clipPath
       id="SVGID_31_">
      <use
         xlink:href="#SVGID_30_"
         style="overflow:visible"
         id="use563"
         x="0"
         y="0"
         width="100%"
         height="100%" />
    </clipPath>
    <defs
       id="defs663">
      <polygon
         id="polygon905"
         points="693.4,544.4 814.4,665.4 719,500 " />
    </defs>
    <clipPath
       id="SVGID_51_">
      <use
         xlink:href="#SVGID_50_"
         style="overflow:visible"
         id="use665"
         x="0"
         y="0"
         width="100%"
         height="100%" />
    </clipPath>
    <defs
       id="defs671">
      <filter
         id="filter912"
         filterUnits="userSpaceOnUse"
         x="693.40002"
         y="500"
         width="121"
         height="165.39999">
        <feColorMatrix
           type="matrix"
           values="1 0 0 0 0  0 1 0 0 0  0 0 1 0 0  0 0 0 1 0"
           id="feColorMatrix910" />
      </filter>
    </defs>
    <mask
       maskUnits="userSpaceOnUse"
       x="693.4"
       y="500"
       width="121"
       height="165.4"
       id="SVGID_52_">
      <g
         class="st25"
         id="g680">
        <radialGradient
           id="SVGID_53_"
           cx="246.56841"
           cy="756.81628"
           r="1.9459"
           gradientTransform="matrix(96.4638,0,0,96.4638,-22971.627,-72343.398)"
           gradientUnits="userSpaceOnUse">
          <stop
             offset="0"
             style="stop-color:#333333"
             id="stop673" />
          <stop
             offset="1"
             style="stop-color:#050505"
             id="stop675" />
        </radialGradient>
        <rect
           x="693.40002"
           y="500"
           class="st26"
           width="121"
           height="165.39999"
           clip-path="url(#SVGID_51_)"
           id="rect678" />
      </g>
    </mask>
    <radialGradient
       id="SVGID_54_"
       cx="246.56841"
       cy="756.81628"
       r="1.9459"
       gradientTransform="matrix(96.4638,0,0,96.4638,-22971.627,-72343.398)"
       gradientUnits="userSpaceOnUse">
      <stop
         offset="0"
         style="stop-color:#BE3B26"
         id="stop683" />
      <stop
         offset="1"
         style="stop-color:#BE3B26"
         id="stop685" />
    </radialGradient>
    <defs
       id="defs603">
      <path
         id="path863"
         d="M 550.5,208 719,500 550.5,792 h 191 L 894.2,527.4 c 9.8,-16.9 9.8,-37.8 0,-54.8 L 741.5,208 Z" />
    </defs>
    <clipPath
       id="SVGID_39_">
      <use
         xlink:href="#SVGID_38_"
         style="overflow:visible"
         id="use605"
         x="0"
         y="0"
         width="100%"
         height="100%" />
    </clipPath>
    <defs
       id="defs517">
      <rect
         id="rect804"
         x="98.599998"
         y="334.5"
         width="350.89999"
         height="457.60001" />
    </defs>
    <clipPath
       id="SVGID_24_">
      <use
         xlink:href="#SVGID_23_"
         style="overflow:visible"
         id="use519"
         x="0"
         y="0"
         width="100%"
         height="100%" />
    </clipPath>
    <defs
       id="defs477">
      <rect
         id="rect776"
         x="185.5"
         y="208"
         width="264"
         height="128.8" />
    </defs>
    <clipPath
       id="SVGID_16_">
      <use
         xlink:href="#SVGID_15_"
         style="overflow:visible"
         id="use479"
         x="0"
         y="0"
         width="100%"
         height="100%" />
    </clipPath>
    <defs
       id="defs577">
      <rect
         id="rect846"
         x="513.70001"
         y="135"
         width="460.89999"
         height="570.40002" />
    </defs>
    <clipPath
       id="SVGID_35_">
      <use
         xlink:href="#SVGID_34_"
         style="overflow:visible"
         id="use579"
         x="0"
         y="0"
         width="100%"
         height="100%" />
    </clipPath>
    <defs
       id="defs609">
      <rect
         id="rect868"
         x="550.5"
         y="208"
         width="350.79999"
         height="294.29999" />
    </defs>
    <clipPath
       id="SVGID_41_">
      <use
         xlink:href="#SVGID_40_"
         style="overflow:visible"
         id="use611"
         x="0"
         y="0"
         width="100%"
         height="100%" />
    </clipPath>
    <defs
       id="defs425">
      <rect
         id="rect740"
         x="61.900002"
         y="294.70001"
         width="460.89999"
         height="570.40002" />
    </defs>
    <clipPath
       id="SVGID_6_">
      <use
         xlink:href="#SVGID_5_"
         style="overflow:visible"
         id="use427"
         x="0"
         y="0"
         width="100%"
         height="100%" />
    </clipPath>
    <defs
       id="defs649">
      <rect
         id="rect896"
         x="550.5"
         y="208"
         width="350.89999"
         height="457.60001" />
    </defs>
    <clipPath
       id="SVGID_49_">
      <use
         xlink:href="#SVGID_48_"
         style="overflow:visible"
         id="use651"
         x="0"
         y="0"
         width="100%"
         height="100%" />
    </clipPath>
    <defs
       id="defs629">
      <rect
         id="rect882"
         x="550.5"
         y="500"
         width="169.8"
         height="292" />
    </defs>
    <clipPath
       id="SVGID_45_">
      <use
         xlink:href="#SVGID_44_"
         style="overflow:visible"
         id="use631"
         x="0"
         y="0"
         width="100%"
         height="100%" />
    </clipPath>
    <defs
       id="defs497">
      <rect
         id="rect790"
         x="279.70001"
         y="208"
         width="169.7"
         height="292" />
    </defs>
    <clipPath
       id="SVGID_20_">
      <use
         xlink:href="#SVGID_19_"
         style="overflow:visible"
         id="use499"
         x="0"
         y="0"
         width="100%"
         height="100%" />
    </clipPath>
    <defs
       id="defs457">
      <rect
         id="rect762"
         x="98.599998"
         y="497.70001"
         width="350.79999"
         height="294.29999" />
    </defs>
    <clipPath
       id="SVGID_12_">
      <use
         xlink:href="#SVGID_11_"
         style="overflow:visible"
         id="use459"
         x="0"
         y="0"
         width="100%"
         height="100%" />
    </clipPath>
    <defs
       id="defs431">
      <rect
         id="rect745"
         x="61.900002"
         y="294.70001"
         width="460.89999"
         height="570.40002" />
    </defs>
    <clipPath
       id="SVGID_8_">
      <use
         xlink:href="#SVGID_7_"
         style="overflow:visible"
         id="use433"
         x="0"
         y="0"
         width="100%"
         height="100%" />
    </clipPath>
    <defs
       id="defs583">
      <rect
         id="rect851"
         x="513.70001"
         y="135"
         width="460.89999"
         height="570.40002" />
    </defs>
    <clipPath
       id="SVGID_37_">
      <use
         xlink:href="#SVGID_36_"
         style="overflow:visible"
         id="use585"
         x="0"
         y="0"
         width="100%"
         height="100%" />
    </clipPath>
  </defs>
  <sodipodi:namedview
     id="namedview36"
     pagecolor="#ffffff"
     bordercolor="#000000"
     borderopacity="0.25"
     inkscape:pageshadow="2"
     inkscape:pageopacity="0.0"
     inkscape:pagecheckerboard="true"
     showgrid="false"
     inkscape:zoom="0.72375179"
     inkscape:cx="296.37232"
     inkscape:cy="241.7956"
     inkscape:window-width="1920"
     inkscape:window-height="1173"
     inkscape:window-x="0"
     inkscape:window-y="0"
     inkscape:window-maximized="1"
     inkscape:current-layer="svg34"
     showguides="true"
     inkscape:guide-bbox="true"
     inkscape:snap-global="false"
     fit-margin-top="0"
     fit-margin-left="0"
     fit-margin-right="0"
     fit-margin-bottom="0" />
  <style
     type="text/css"
     id="style406">
	.st0{clip-path:url(#SVGID_2_);fill:#DC4637;}
	.st1{opacity:0.2;clip-path:url(#SVGID_4_);enable-background:new    ;}
	.st2{clip-path:url(#SVGID_6_);}
	.st3{clip-path:url(#SVGID_4_);fill:#557EBF;}
	.st4{opacity:0.2;clip-path:url(#SVGID_10_);enable-background:new    ;}
	.st5{clip-path:url(#SVGID_12_);fill:#2D3079;}
	.st6{opacity:0.2;clip-path:url(#SVGID_14_);enable-background:new    ;}
	.st7{clip-path:url(#SVGID_16_);fill:#FFFFFF;}
	.st8{opacity:0.2;clip-path:url(#SVGID_18_);enable-background:new    ;}
	.st9{clip-path:url(#SVGID_20_);fill:#3E2823;}
	.st10{opacity:0.2;clip-path:url(#SVGID_22_);enable-background:new    ;}
	.st11{clip-path:url(#SVGID_24_);fill:#FFFFFF;}
	.st12{filter:url(#Adobe_OpacityMaskFilter);}
	.st13{clip-path:url(#SVGID_26_);fill:url(#SVGID_28_);}
	.st14{clip-path:url(#SVGID_26_);mask:url(#SVGID_27_);fill:url(#SVGID_29_);}
	.st15{clip-path:url(#SVGID_31_);fill:#FDC113;}
	.st16{opacity:0.2;clip-path:url(#SVGID_33_);enable-background:new    ;}
	.st17{clip-path:url(#SVGID_35_);}
	.st18{clip-path:url(#SVGID_33_);fill:#0F9D58;}
	.st19{opacity:0.2;clip-path:url(#SVGID_39_);enable-background:new    ;}
	.st20{clip-path:url(#SVGID_41_);fill:#FFFFFF;}
	.st21{opacity:0.2;clip-path:url(#SVGID_43_);enable-background:new    ;}
	.st22{clip-path:url(#SVGID_45_);fill:#FFFFFF;}
	.st23{opacity:0.2;clip-path:url(#SVGID_47_);enable-background:new    ;}
	.st24{clip-path:url(#SVGID_49_);fill:#273339;}
	.st25{filter:url(#Adobe_OpacityMaskFilter_1_);}
	.st26{clip-path:url(#SVGID_51_);fill:url(#SVGID_53_);}
	.st27{clip-path:url(#SVGID_51_);mask:url(#SVGID_52_);fill:url(#SVGID_54_);}
</style>
  <path
     sodipodi:type="star"
     style="fill:#559e11;fill-opacity:1;stroke-width:10;stroke-linecap:square;stop-color:#000000"
     id="path354-7-9-3-9-8-3"
     inkscape:flatsided="false"
     sodipodi:sides="6"
     sodipodi:cx="465.93665"
     sodipodi:cy="-872.64856"
     sodipodi:r1="299.99118"
     sodipodi:r2="346.41016"
     sodipodi:arg1="0.52359878"
     sodipodi:arg2="1.0471976"
     inkscape:rounded="0"
     inkscape:randomized="0"
     transform="matrix(1.0316377,0,0,0.99999999,-123.30803,1172.6486)"
     d="m 725.73663,-722.65297 -86.59492,150.00441 -173.20507,-0.009 -173.20509,0.009 -86.59489,-150.0044 -86.61017,-149.99561 86.61017,-149.99562 86.59492,-150.0044 173.20507,0.01 173.20509,-0.01 86.59489,150.0044 86.61017,149.99556 z"
     inkscape:export-filename="observability.png"
     inkscape:export-xdpi="80.589996"
     inkscape:export-ydpi="80.589996" />
  <g
     id="g1090"
     transform="matrix(1.1741837,0,0,1.1741837,-73.6177,-35.595571)">
    <path
       id="path1276"
       style="fill:#ffffff;stroke:none;stroke-width:14.0668"
       d="m 346.4043,152.34375 c -3.23565,0.22387 -6.46397,0.51848 -9.67576,0.97563 -3.46264,0.50546 -6.89876,1.17588 -10.30609,1.97412 -3.79718,0.95136 -7.56453,2.03655 -11.24838,3.36373 -3.98318,1.42851 -7.89599,3.05656 -11.68679,4.93864 -3.36302,1.61976 -6.61355,3.46443 -9.79262,5.41895 -2.99987,1.86616 -5.89868,3.88916 -8.72006,6.0154 -2.77892,2.12864 -5.44776,4.39454 -8.03696,6.75007 -2.78035,2.61122 -5.46857,5.32334 -7.98455,8.19131 -2.78603,3.1854 -5.42741,6.50029 -7.82427,9.98949 -2.15342,3.0485 -4.10555,6.23583 -5.93193,9.48993 -1.73908,3.11313 -3.303,6.32098 -4.74991,9.57996 -1.41011,3.23966 -2.64916,6.54973 -3.77763,9.89769 -1.16981,3.66599 -2.20208,7.37834 -3.01058,11.14122 -0.889,4.17218 -1.57675,8.38883 -1.97278,12.63728 -0.39493,3.71118 -0.53443,7.44535 -0.54669,11.17642 0.002,3.60001 0.21748,7.19541 0.53867,10.78047 0.41283,3.82519 0.96504,7.6377 1.74468,11.40616 0.86395,4.14334 1.93085,8.24586 3.26861,12.26225 1.11985,3.48966 2.45826,6.90725 3.92692,10.26449 1.44214,3.2981 3.07962,6.50763 4.82213,9.65696 1.73618,3.0772 3.6317,6.06027 5.62313,8.97852 2.20186,3.1154 4.52088,6.15044 7.01046,9.04176 2.77163,3.1975 5.68977,6.27091 8.81431,9.12628 2.74425,2.57933 5.66021,4.97098 8.6575,7.24982 2.89617,2.19349 5.92413,4.20531 9.00584,6.12811 3.30136,1.97666 6.67813,3.83206 10.15556,5.48074 3.88781,1.835 7.867,3.47934 11.94384,4.8469 3.52394,1.2309 7.12931,2.21492 10.7586,3.08296 3.44131,0.79752 6.92221,1.40953 10.41987,1.90339 3.85098,0.4846 7.72274,0.82761 11.6037,0.92755 4.29793,0.11167 8.60213,0.003 12.88418,-0.39069 3.92082,-0.31491 7.80987,-0.95843 11.66899,-1.70773 4.29181,-0.88548 8.53321,-2.00507 12.69531,-3.37741 4.42245,-1.46706 8.76096,-3.19265 12.96488,-5.20428 24.67594,26.34817 49.35065,52.69748 74.02735,79.04493 13.48358,-12.63041 26.96964,-25.25817 40.45312,-37.88868 -23.85558,-25.47063 -47.7095,-50.94282 -71.56445,-76.41406 12.15677,-16.59972 19.5565,-36.62579 21.11019,-57.14098 0.61853,-8.01719 0.38071,-16.10323 -0.77472,-24.06249 -0.5025,-3.49605 -1.18217,-6.96404 -1.98601,-10.40346 -0.93054,-3.73408 -2.00205,-7.43523 -3.29438,-11.06085 -1.44008,-4.01493 -3.0648,-7.96592 -4.965,-11.78609 -1.62988,-3.3952 -3.49074,-6.67506 -5.46183,-9.88301 -1.86638,-2.99974 -3.88985,-5.89824 -6.01589,-8.71977 -2.12878,-2.7788 -4.39455,-5.44776 -6.74903,-8.03788 -2.61106,-2.77994 -5.3261,-5.46456 -8.19053,-7.98348 -3.21131,-2.80789 -6.55494,-5.46746 -10.07305,-7.88204 -3.02393,-2.13032 -6.18309,-4.06429 -9.4078,-5.87499 -3.11314,-1.73907 -6.32158,-3.30189 -9.58035,-4.74923 -3.23966,-1.41011 -6.54973,-2.64916 -9.89769,-3.77763 -3.60288,-1.1492 -7.24964,-2.16515 -10.94508,-2.97147 -3.48765,-0.74285 -7.00367,-1.35974 -10.54628,-1.76908 -4.26852,-0.50837 -8.56458,-0.77936 -12.8636,-0.78284 -2.17309,-0.0551 -4.34493,0.1 -6.51715,0.14701 z m 11.34961,38.90039 c 3.75266,0.29747 7.49077,0.7982 11.16144,1.64374 4.02389,0.90552 7.96574,2.16868 11.77705,3.74575 3.80801,1.58535 7.47472,3.50168 10.96667,5.69732 3.38014,2.15992 6.58833,4.58518 9.57711,7.26178 3.03768,2.73747 5.83857,5.73243 8.38779,8.92985 2.50038,3.1806 4.73741,6.56423 6.69246,10.10666 1.93633,3.56251 3.58158,7.28013 4.91983,11.10813 1.31278,3.83747 2.30863,7.77988 2.98635,11.77901 0.2906,1.9332 0.55921,3.87357 0.73442,5.82151 0.0874,1.12627 0.17723,2.49947 0.20814,3.72597 0.0639,1.94453 0.0417,3.89129 -0.0499,5.83458 -0.033,0.43992 -0.0641,1.17811 -0.10169,1.6311 -0.95915,13.55192 -5.863,26.78647 -13.94518,37.70484 -0.5536,0.72965 -1.26885,1.68322 -1.91909,2.47578 -4.49628,5.56806 -9.82882,10.45722 -15.75865,14.46367 -0.79639,0.52472 -1.81644,1.19852 -2.72397,1.7463 -1.4835,0.91187 -2.85067,1.67623 -4.41001,2.49254 -10.08006,5.24108 -21.41122,8.06236 -32.77492,8.09748 -3.51289,0.038 -7.03215,-0.19878 -10.50988,-0.69443 -4.00768,-0.55916 -7.97348,-1.44423 -11.82614,-2.6823 -4.49693,-1.41599 -8.84777,-3.28707 -12.97747,-5.56084 -3.64669,-1.99839 -7.10574,-4.33111 -10.35975,-6.9197 -3.1776,-2.558 -6.13661,-5.38244 -8.85533,-8.424 -2.68374,-3.04076 -5.11374,-6.30126 -7.27081,-9.73617 -2.13051,-3.44362 -3.97795,-7.05881 -5.52546,-10.80134 -1.52836,-3.75634 -2.74525,-7.636 -3.64443,-11.59081 -0.87567,-3.95586 -1.42406,-7.98099 -1.64852,-12.02673 -0.19853,-4.01041 -0.0766,-8.03459 0.37631,-12.02503 0.47721,-4.0655 1.29783,-8.08773 2.43168,-12.02119 1.14437,-3.86265 2.59526,-7.63269 4.3462,-11.26166 1.79237,-3.65961 3.88401,-7.16928 6.24215,-10.49306 2.36541,-3.28265 4.99801,-6.36873 7.86068,-9.22863 2.88862,-2.84592 6.00569,-5.45564 9.31405,-7.80129 3.29607,-2.30323 6.77656,-4.33831 10.40039,-6.082 3.65232,-1.73475 7.44405,-3.17106 11.33037,-4.28917 3.89511,-1.10243 7.87905,-1.88291 11.9023,-2.33576 4.07062,-0.44013 8.17546,-0.5394 12.26367,-0.30811 0.14072,0.005 0.28145,0.0108 0.42218,0.0162 z" />
    <path
       id="rect2617"
       style="fill:#ffffff;fill-opacity:1;stroke:none;stroke-width:22.0549"
       d="m 380.79739,226.71253 -37.05558,37.05558 -16.4921,-16.4921 -17.84572,17.84572 34.3336,34.33571 0.004,-0.004 0.004,0.004 54.89709,-54.8992 z" />
  </g>
</svg>
