<?xml version="1.0" encoding="UTF-8" standalone="no"?>
<svg
   width="1280"
   height="640"
   viewBox="0 0 1280 640"
   version="1.1"
   id="svg34"
   sodipodi:docname="growth.svg"
   inkscape:version="1.2.2 (b0a8486541, 2022-12-01)"
   inkscape:export-filename="roadmap-faq.png"
   inkscape:export-xdpi="130.66029"
   inkscape:export-ydpi="130.66029"
   xmlns:inkscape="http://www.inkscape.org/namespaces/inkscape"
   xmlns:sodipodi="http://sodipodi.sourceforge.net/DTD/sodipodi-0.dtd"
   xmlns="http://www.w3.org/2000/svg"
   xmlns:svg="http://www.w3.org/2000/svg">
  <defs
     id="defs38">
    <marker
       style="overflow:visible"
       id="marker19882"
       refX="0"
       refY="0"
       orient="auto"
       inkscape:stockid="SquareS"
       inkscape:isstock="true">
      <path
         transform="scale(0.2)"
         style="fill:context-stroke;fill-rule:evenodd;stroke:context-stroke;stroke-width:1pt"
         d="M -5,-5 V 5 H 5 V -5 Z"
         id="path19880" />
    </marker>
    <marker
       style="overflow:visible"
       id="marker19882-6"
       refX="0"
       refY="0"
       orient="auto"
       inkscape:stockid="SquareS"
       inkscape:isstock="true">
      <path
         transform="scale(0.2)"
         style="fill:context-stroke;fill-rule:evenodd;stroke:context-stroke;stroke-width:1pt"
         d="M -5,-5 V 5 H 5 V -5 Z"
         id="path19880-0" />
    </marker>
    <marker
       style="overflow:visible"
       id="marker19882-2"
       refX="0"
       refY="0"
       orient="auto"
       inkscape:stockid="SquareS"
       inkscape:isstock="true">
      <path
         transform="scale(0.2)"
         style="fill:context-stroke;fill-rule:evenodd;stroke:context-stroke;stroke-width:1pt"
         d="M -5,-5 V 5 H 5 V -5 Z"
         id="path19880-6" />
    </marker>
    <marker
       style="overflow:visible"
       id="marker19882-8"
       refX="0"
       refY="0"
       orient="auto"
       inkscape:stockid="SquareS"
       inkscape:isstock="true">
      <path
         transform="scale(0.2)"
         style="fill:context-stroke;fill-rule:evenodd;stroke:context-stroke;stroke-width:1pt"
         d="M -5,-5 V 5 H 5 V -5 Z"
         id="path19880-7" />
    </marker>
    <marker
       style="overflow:visible"
       id="marker19882-20"
       refX="0"
       refY="0"
       orient="auto"
       inkscape:stockid="SquareS"
       inkscape:isstock="true">
      <path
         transform="scale(0.2)"
         style="fill:context-stroke;fill-rule:evenodd;stroke:context-stroke;stroke-width:1pt"
         d="M -5,-5 V 5 H 5 V -5 Z"
         id="path19880-2" />
    </marker>
  </defs>
  <sodipodi:namedview
     id="namedview36"
     pagecolor="#ffffff"
     bordercolor="#000000"
     borderopacity="0.25"
     inkscape:pageshadow="2"
     inkscape:pageopacity="0.0"
     inkscape:pagecheckerboard="true"
     showgrid="false"
     inkscape:zoom="0.76013283"
     inkscape:cx="605.15739"
     inkscape:cy="479.52145"
     inkscape:window-width="1920"
     inkscape:window-height="1011"
     inkscape:window-x="0"
     inkscape:window-y="0"
     inkscape:window-maximized="1"
     inkscape:current-layer="svg34"
     showguides="true"
     inkscape:guide-bbox="true"
     inkscape:snap-global="false"
     fit-margin-top="0"
     fit-margin-left="0"
     fit-margin-right="0"
     fit-margin-bottom="0"
     inkscape:showpageshadow="2"
     inkscape:deskcolor="#d1d1d1">
    <sodipodi:guide
       position="1198.8744,526.30293"
       orientation="1,0"
       id="guide2364"
       inkscape:locked="false" />
    <sodipodi:guide
       position="78.791587,387.70683"
       orientation="1,0"
       id="guide2366"
       inkscape:locked="false" />
    <sodipodi:guide
       position="603.47684,561.65908"
       orientation="0,-1"
       id="guide2368"
       inkscape:locked="false" />
    <sodipodi:guide
       position="528.52181,75.158462"
       orientation="0,-1"
       id="guide2370"
       inkscape:locked="false" />
    <sodipodi:guide
       position="663.04201,5.9003003"
       orientation="0,-1"
       id="guide3007"
       inkscape:locked="false" />
  </sodipodi:namedview>
  <rect
     style="opacity:1;fill:#ffffff;stroke-width:1.12226;stroke-opacity:0"
     id="rect2132"
     width="1280"
     height="640"
     x="0"
     y="0"
     inkscape:export-filename="../growth.png"
     inkscape:export-xdpi="96"
     inkscape:export-ydpi="96" />
  <rect
     style="opacity:1;fill:#559e11;fill-opacity:1;stroke-width:0.397119;stroke-opacity:0"
     id="rect2558"
     width="1280"
     height="80.137337"
     x="0"
     y="73.691566"
     inkscape:export-filename="roadmap-faq.png"
     inkscape:export-xdpi="96"
     inkscape:export-ydpi="96" />
  <text
     xml:space="preserve"
     style="font-style:normal;font-weight:normal;font-size:42.6667px;line-height:1.25;font-family:sans-serif;fill:#ffffff;fill-opacity:1;stroke:none;stroke-width:1.82625"
     x="294.69852"
     y="126.36825"
     id="text56388-9-1-3"
     inkscape:export-filename="roadmap-faq.png"
     inkscape:export-xdpi="96"
     inkscape:export-ydpi="96"><tspan
       sodipodi:role="line"
       id="tspan56386-1-8-6"
       x="294.69852"
       y="126.36825"
       style="font-style:normal;font-variant:normal;font-weight:normal;font-stretch:normal;font-size:42.6667px;font-family:Ubuntu;-inkscape-font-specification:Ubuntu;fill:#ffffff;stroke-width:1.82625">Career Growth and Advanced Topics</tspan></text>
  <text
     xml:space="preserve"
     style="font-style:normal;font-weight:normal;font-size:40px;line-height:1.25;font-family:sans-serif;fill:#000000;fill-opacity:1;stroke:none"
     x="1566.2191"
     y="537.1803"
     id="text24733"><tspan
       sodipodi:role="line"
       id="tspan24731"
       x="1566.2191"
       y="537.1803" /></text>
  <g
     id="g3436"
     transform="translate(52.017495,14.471156)">
    <g
       id="g2888">
      <path
         id="path782"
         style="fill:#8ebf56;fill-opacity:1;stroke-width:0.341211;stroke-linecap:square;stop-color:#000000"
         d="m 353.03076,520.59414 -3.00109,5.03922 -129.06874,-2.5e-4 -6.0027,2.5e-4 -3.00109,-5.03922 -3.00163,-5.03892 3.00163,-5.03893 3.00109,-5.03922 6.0027,2.6e-4 129.06874,-2.6e-4 3.00109,5.03922 3.00162,5.03893 z"
         sodipodi:nodetypes="ccccccccccccc" />
      <path
         id="path2201"
         style="fill:#8ebf56;fill-opacity:1;stroke-width:0.341211;stroke-linecap:square;stop-color:#000000"
         d="m 353.03076,471.48676 -3.00109,5.03922 -129.06874,-2.5e-4 -6.0027,2.5e-4 -3.00109,-5.03922 -3.00163,-5.03892 3.00163,-5.03893 3.00109,-5.03922 6.0027,2.6e-4 129.06874,-2.6e-4 3.00109,5.03922 3.00162,5.03893 z"
         sodipodi:nodetypes="ccccccccccccc" />
      <path
         id="path2233"
         style="fill:#8ebf56;fill-opacity:1;stroke-width:0.341211;stroke-linecap:square;stop-color:#000000"
         d="m 353.03076,422.37939 -3.00109,5.03922 -129.06874,-2.5e-4 -6.0027,2.5e-4 -3.00109,-5.03922 -3.00163,-5.03892 3.00163,-5.03893 3.00109,-5.03922 6.0027,2.6e-4 129.06874,-2.6e-4 3.00109,5.03922 3.00162,5.03893 z"
         sodipodi:nodetypes="ccccccccccccc" />
    </g>
    <g
       id="g2975"
       style="fill:#64a725;fill-opacity:1"
       transform="translate(51.540015)">
      <path
         id="path2302"
         style="fill:#64a725;fill-opacity:1;stroke-width:0.341211;stroke-linecap:square;stop-color:#000000"
         d="m 606.9793,520.59414 -3.00109,5.03922 -129.06874,-2.5e-4 -6.0027,2.5e-4 -3.00109,-5.03922 -3.00162,-5.03892 3.00162,-5.03893 3.00109,-5.03922 6.0027,2.6e-4 129.06874,-2.6e-4 3.00109,5.03922 3.00162,5.03893 z"
         sodipodi:nodetypes="ccccccccccccc" />
      <path
         id="path2304"
         style="fill:#64a725;fill-opacity:1;stroke-width:0.341211;stroke-linecap:square;stop-color:#000000"
         d="m 606.9793,471.48676 -3.00109,5.03922 -129.06874,-2.5e-4 -6.0027,2.5e-4 -3.00109,-5.03922 -3.00162,-5.03892 3.00162,-5.03893 3.00109,-5.03922 6.0027,2.6e-4 129.06874,-2.6e-4 3.00109,5.03922 3.00162,5.03893 z"
         sodipodi:nodetypes="ccccccccccccc" />
      <path
         id="path2306"
         style="fill:#64a725;fill-opacity:1;stroke-width:0.341211;stroke-linecap:square;stop-color:#000000"
         d="m 606.9793,422.37939 -3.00109,5.03922 -129.06874,-2.5e-4 -6.0027,2.5e-4 -3.00109,-5.03922 -3.00162,-5.03892 3.00162,-5.03893 3.00109,-5.03922 6.0027,2.6e-4 129.06874,-2.6e-4 3.00109,5.03922 3.00162,5.03893 z"
         sodipodi:nodetypes="ccccccccccccc" />
      <path
         id="path2338"
         style="fill:#64a725;fill-opacity:1;stroke-width:0.341211;stroke-linecap:square;stop-color:#000000"
         d="m 606.9793,370.43432 -3.00109,5.03922 -129.06874,-2.5e-4 -6.0027,2.5e-4 -3.00109,-5.03922 -3.00162,-5.03892 3.00162,-5.03893 3.00109,-5.03922 6.0027,2.6e-4 129.06874,-2.6e-4 3.00109,5.03922 3.00162,5.03893 z"
         sodipodi:nodetypes="ccccccccccccc" />
      <path
         id="path2340"
         style="fill:#64a725;fill-opacity:1;stroke-width:0.341211;stroke-linecap:square;stop-color:#000000"
         d="m 606.9793,321.32694 -3.00109,5.03922 -129.06874,-2.5e-4 -6.0027,2.5e-4 -3.00109,-5.03922 -3.00162,-5.03892 3.00162,-5.03893 3.00109,-5.03922 6.0027,2.6e-4 129.06874,-2.6e-4 3.00109,5.03922 3.00162,5.03893 z"
         sodipodi:nodetypes="ccccccccccccc" />
    </g>
    <g
       id="g3016"
       transform="translate(0,11.84004)"
       style="fill:#4d8b15;fill-opacity:1">
      <path
         id="path2302-6"
         style="fill:#4d8b15;fill-opacity:1;stroke-width:0.341211;stroke-linecap:square;stop-color:#000000"
         d="m 964.00788,508.7541 -3.00109,5.03922 -129.06874,-2.5e-4 -6.0027,2.5e-4 -3.00109,-5.03922 -3.00163,-5.03892 3.00163,-5.03893 3.00109,-5.03922 6.0027,2.6e-4 129.06874,-2.6e-4 3.00109,5.03922 3.00162,5.03893 z"
         sodipodi:nodetypes="ccccccccccccc" />
      <path
         id="path2304-7"
         style="fill:#4d8b15;fill-opacity:1;stroke-width:0.341211;stroke-linecap:square;stop-color:#000000"
         d="m 964.00788,459.64672 -3.00109,5.03922 -129.06874,-2.5e-4 -6.0027,2.5e-4 -3.00109,-5.03922 -3.00163,-5.03892 3.00163,-5.03893 3.00109,-5.03922 6.0027,2.6e-4 129.06874,-2.6e-4 3.00109,5.03922 3.00162,5.03893 z"
         sodipodi:nodetypes="ccccccccccccc" />
      <path
         id="path2306-5"
         style="fill:#4d8b15;fill-opacity:1;stroke-width:0.341211;stroke-linecap:square;stop-color:#000000"
         d="m 964.00788,410.53935 -3.00109,5.03922 -129.06874,-2.5e-4 -6.0027,2.5e-4 -3.00109,-5.03922 -3.00163,-5.03892 3.00163,-5.03893 3.00109,-5.03922 6.0027,2.6e-4 129.06874,-2.6e-4 3.00109,5.03922 3.00162,5.03893 z"
         sodipodi:nodetypes="ccccccccccccc" />
      <path
         id="path2338-3"
         style="fill:#4d8b15;fill-opacity:1;stroke-width:0.341211;stroke-linecap:square;stop-color:#000000"
         d="m 964.00788,356.59428 -3.00109,5.03922 -129.06874,-2.5e-4 -6.0027,2.5e-4 -3.00109,-5.03922 -3.00163,-5.03892 3.00163,-5.03893 3.00109,-5.03922 6.0027,2.6e-4 129.06874,-2.6e-4 3.00109,5.03922 3.00162,5.03893 z"
         sodipodi:nodetypes="ccccccccccccc" />
      <path
         id="path2340-5"
         style="fill:#4d8b15;fill-opacity:1;stroke-width:0.341211;stroke-linecap:square;stop-color:#000000"
         d="m 964.00788,307.4869 -3.00109,5.03922 -129.06874,-2.5e-4 -6.0027,2.5e-4 -3.00109,-5.03922 -3.00163,-5.03892 3.00163,-5.03893 3.00109,-5.03922 6.0027,2.6e-4 129.06874,-2.6e-4 3.00109,5.03922 3.00162,5.03893 z"
         sodipodi:nodetypes="ccccccccccccc" />
      <path
         id="path2302-62"
         style="fill:#4d8b15;fill-opacity:1;stroke-width:0.341211;stroke-linecap:square;stop-color:#000000"
         d="m 964.00788,257.68813 -3.00109,5.03922 -129.06874,-2.5e-4 -6.0027,2.5e-4 -3.00109,-5.03922 -3.00163,-5.03892 3.00163,-5.03893 3.00109,-5.03922 6.0027,2.6e-4 129.06874,-2.6e-4 3.00109,5.03922 3.00162,5.03893 z"
         sodipodi:nodetypes="ccccccccccccc" />
      <path
         id="path2304-9"
         style="fill:#4d8b15;fill-opacity:1;stroke-width:0.341211;stroke-linecap:square;stop-color:#000000"
         d="m 964.00788,208.58075 -3.00109,5.03922 -129.06874,-2.5e-4 -6.0027,2.5e-4 -3.00109,-5.03922 -3.00163,-5.03892 3.00163,-5.03893 3.00109,-5.03922 6.0027,2.6e-4 129.06874,-2.6e-4 3.00109,5.03922 3.00162,5.03893 z"
         sodipodi:nodetypes="ccccccccccccc" />
    </g>
  </g>
</svg>
