<?xml version="1.0" encoding="UTF-8" standalone="no"?>
<svg
   version="1.1"
   viewBox="0 0 859.80761 231.70237"
   fill="none"
   stroke="none"
   stroke-linecap="square"
   stroke-miterlimit="10"
   id="svg129"
   sodipodi:docname="kubernetes-operator-flow.svg"
   inkscape:version="1.1.2 (0a00cf5339, 2022-02-04)"
   width="859.80762"
   height="231.70236"
   inkscape:export-filename="6.5-kubernetes-operator-flow.png"
   inkscape:export-xdpi="114.33"
   inkscape:export-ydpi="114.33"
   xmlns:inkscape="http://www.inkscape.org/namespaces/inkscape"
   xmlns:sodipodi="http://sodipodi.sourceforge.net/DTD/sodipodi-0.dtd"
   xmlns:xlink="http://www.w3.org/1999/xlink"
   xmlns="http://www.w3.org/2000/svg"
   xmlns:svg="http://www.w3.org/2000/svg">
  <defs
     id="defs133">
    <defs
       id="defs18">
      <linearGradient
         id="g9c76c2a153_3_500.1"
         gradientUnits="userSpaceOnUse"
         gradientTransform="scale(3.3781821)"
         spreadMethod="pad"
         x1="284.17651"
         y1="55.775558"
         x2="284.17654"
         y2="52.397373">
        <stop
           offset="0.0"
           stop-color="#f9f9f9"
           id="stop9" />
        <stop
           offset="0.36"
           stop-color="#f9f9f9"
           id="stop11" />
        <stop
           offset="0.8"
           stop-color="#dedede"
           id="stop13" />
        <stop
           offset="1.0"
           stop-color="#999999"
           id="stop15" />
      </linearGradient>
    </defs>
    <clipPath
       id="g9c76c2a153_3_500.2">
      <path
         d="M 0,0 H 331 V 320 H 0 Z"
         clip-rule="evenodd"
         id="path62" />
    </clipPath>
    <clipPath
       id="g9c76c2a153_3_500.3">
      <path
         d="M 0,0 H 159 V 159 H 0 Z"
         clip-rule="evenodd"
         id="path79" />
    </clipPath>
    <clipPath
       id="g9c76c2a153_3_500.4">
      <path
         d="M 0,0 H 524.9999 V 523.9999 H 0 Z"
         clip-rule="nonzero"
         id="path96" />
    </clipPath>
    <style
       id="style54845">.cls-1{fill:#c00;}.cls-2{fill:#fff;}</style>
    <path
       id="SVGID_1_"
       d="M 258.4,208 105.8,472.6 c -9.8,16.9 -9.8,37.8 0,54.7 L 258.5,792 h 191 L 281,500 449.5,208 Z" />
    <path
       id="SVGID_3_"
       d="M 258.4,208 105.8,472.6 c -9.8,16.9 -9.8,37.8 0,54.7 L 258.5,792 h 191 L 281,500 449.5,208 Z" />
    <rect
       id="SVGID_5_"
       x="61.900002"
       y="294.70001"
       width="460.89999"
       height="570.40002" />
    <rect
       id="SVGID_7_"
       x="61.900002"
       y="294.70001"
       width="460.89999"
       height="570.40002" />
    <path
       id="SVGID_9_"
       d="M 258.4,208 105.8,472.6 c -9.8,16.9 -9.8,37.8 0,54.7 L 258.5,792 h 191 L 281,500 449.5,208 Z" />
    <rect
       id="SVGID_11_"
       x="98.599998"
       y="497.70001"
       width="350.79999"
       height="294.29999" />
    <path
       id="SVGID_13_"
       d="M 258.4,208 105.8,472.6 c -9.8,16.9 -9.8,37.8 0,54.7 L 258.5,792 h 191 L 281,500 449.5,208 Z" />
    <rect
       id="SVGID_15_"
       x="185.5"
       y="208"
       width="264"
       height="128.8" />
    <path
       id="SVGID_17_"
       d="M 258.4,208 105.8,472.6 c -9.8,16.9 -9.8,37.8 0,54.7 L 258.5,792 h 191 L 281,500 449.5,208 Z" />
    <rect
       id="SVGID_19_"
       x="279.70001"
       y="208"
       width="169.7"
       height="292" />
    <path
       id="SVGID_21_"
       d="M 258.4,208 105.8,472.6 c -9.8,16.9 -9.8,37.8 0,54.7 L 258.5,792 h 191 L 281,500 449.5,208 Z" />
    <rect
       id="SVGID_23_"
       x="98.599998"
       y="334.5"
       width="350.89999"
       height="457.60001" />
    <polygon
       id="SVGID_25_"
       points="306.6,455.6 185.6,334.6 281,500 " />
    <filter
       id="Adobe_OpacityMaskFilter"
       filterUnits="userSpaceOnUse"
       x="185.60001"
       y="334.60001"
       width="121"
       height="165.39999">
      <feColorMatrix
         type="matrix"
         values="1 0 0 0 0  0 1 0 0 0  0 0 1 0 0  0 0 0 1 0"
         id="feColorMatrix536" />
    </filter>
    <path
       id="SVGID_30_"
       d="M 550.5,208 719,500 550.5,792 h 191 L 894.2,527.4 c 9.8,-16.9 9.8,-37.8 0,-54.8 L 741.5,208 Z" />
    <path
       id="SVGID_32_"
       d="M 550.5,208 719,500 550.5,792 h 191 L 894.2,527.4 c 9.8,-16.9 9.8,-37.8 0,-54.8 L 741.5,208 Z" />
    <rect
       id="SVGID_34_"
       x="513.70001"
       y="135"
       width="460.89999"
       height="570.40002" />
    <rect
       id="SVGID_36_"
       x="513.70001"
       y="135"
       width="460.89999"
       height="570.40002" />
    <path
       id="SVGID_38_"
       d="M 550.5,208 719,500 550.5,792 h 191 L 894.2,527.4 c 9.8,-16.9 9.8,-37.8 0,-54.8 L 741.5,208 Z" />
    <rect
       id="SVGID_40_"
       x="550.5"
       y="208"
       width="350.79999"
       height="294.29999" />
    <path
       id="SVGID_42_"
       d="M 550.5,208 719,500 550.5,792 h 191 L 894.2,527.4 c 9.8,-16.9 9.8,-37.8 0,-54.8 L 741.5,208 Z" />
    <rect
       id="SVGID_44_"
       x="550.5"
       y="500"
       width="169.8"
       height="292" />
    <path
       id="SVGID_46_"
       d="M 550.5,208 719,500 550.5,792 h 191 L 894.2,527.4 c 9.8,-16.9 9.8,-37.8 0,-54.8 L 741.5,208 Z" />
    <rect
       id="SVGID_48_"
       x="550.5"
       y="208"
       width="350.89999"
       height="457.60001" />
    <polygon
       id="SVGID_50_"
       points="693.4,544.4 814.4,665.4 719,500 " />
    <filter
       id="Adobe_OpacityMaskFilter_1_"
       filterUnits="userSpaceOnUse"
       x="693.40002"
       y="500"
       width="121"
       height="165.39999">
      <feColorMatrix
         type="matrix"
         values="1 0 0 0 0  0 1 0 0 0  0 0 1 0 0  0 0 0 1 0"
         id="feColorMatrix668" />
    </filter>
    <defs
       id="defs451">
      <path
         id="path757"
         d="M 258.4,208 105.8,472.6 c -9.8,16.9 -9.8,37.8 0,54.7 L 258.5,792 h 191 L 281,500 449.5,208 Z" />
    </defs>
    <clipPath
       id="SVGID_10_">
      <use
         xlink:href="#SVGID_9_"
         style="overflow:visible"
         id="use453"
         x="0"
         y="0"
         width="100%"
         height="100%" />
    </clipPath>
    <defs
       id="defs409">
      <path
         id="path728"
         d="M 258.4,208 105.8,472.6 c -9.8,16.9 -9.8,37.8 0,54.7 L 258.5,792 h 191 L 281,500 449.5,208 Z" />
    </defs>
    <clipPath
       id="SVGID_2_">
      <use
         xlink:href="#SVGID_1_"
         style="overflow:visible"
         id="use411"
         x="0"
         y="0"
         width="100%"
         height="100%" />
    </clipPath>
    <defs
       id="defs491">
      <path
         id="path785"
         d="M 258.4,208 105.8,472.6 c -9.8,16.9 -9.8,37.8 0,54.7 L 258.5,792 h 191 L 281,500 449.5,208 Z" />
    </defs>
    <clipPath
       id="SVGID_18_">
      <use
         xlink:href="#SVGID_17_"
         style="overflow:visible"
         id="use493"
         x="0"
         y="0"
         width="100%"
         height="100%" />
    </clipPath>
    <defs
       id="defs623">
      <path
         id="path877"
         d="M 550.5,208 719,500 550.5,792 h 191 L 894.2,527.4 c 9.8,-16.9 9.8,-37.8 0,-54.8 L 741.5,208 Z" />
    </defs>
    <clipPath
       id="SVGID_43_">
      <use
         xlink:href="#SVGID_42_"
         style="overflow:visible"
         id="use625"
         x="0"
         y="0"
         width="100%"
         height="100%" />
    </clipPath>
    <defs
       id="defs419">
      <path
         id="path735"
         d="M 258.4,208 105.8,472.6 c -9.8,16.9 -9.8,37.8 0,54.7 L 258.5,792 h 191 L 281,500 449.5,208 Z" />
    </defs>
    <clipPath
       id="SVGID_4_">
      <use
         xlink:href="#SVGID_3_"
         style="overflow:visible"
         id="use421"
         x="0"
         y="0"
         width="100%"
         height="100%" />
    </clipPath>
    <defs
       id="defs511">
      <path
         id="path799"
         d="M 258.4,208 105.8,472.6 c -9.8,16.9 -9.8,37.8 0,54.7 L 258.5,792 h 191 L 281,500 449.5,208 Z" />
    </defs>
    <clipPath
       id="SVGID_22_">
      <use
         xlink:href="#SVGID_21_"
         style="overflow:visible"
         id="use513"
         x="0"
         y="0"
         width="100%"
         height="100%" />
    </clipPath>
    <defs
       id="defs531">
      <polygon
         id="polygon813"
         points="306.6,455.6 185.6,334.6 281,500 " />
    </defs>
    <clipPath
       id="SVGID_26_">
      <use
         xlink:href="#SVGID_25_"
         style="overflow:visible"
         id="use533"
         x="0"
         y="0"
         width="100%"
         height="100%" />
    </clipPath>
    <defs
       id="defs539">
      <filter
         id="filter820"
         filterUnits="userSpaceOnUse"
         x="185.60001"
         y="334.60001"
         width="121"
         height="165.39999">
        <feColorMatrix
           type="matrix"
           values="1 0 0 0 0  0 1 0 0 0  0 0 1 0 0  0 0 0 1 0"
           id="feColorMatrix818" />
      </filter>
    </defs>
    <mask
       maskUnits="userSpaceOnUse"
       x="185.6"
       y="334.6"
       width="121"
       height="165.4"
       id="SVGID_27_">
      <g
         class="st12"
         id="g548">
        <radialGradient
           id="SVGID_28_"
           cx="246.58929"
           cy="756.81628"
           r="1.9459"
           gradientTransform="matrix(-96.4638,0,0,-96.4638,23973.609,73343.398)"
           gradientUnits="userSpaceOnUse">
          <stop
             offset="0"
             style="stop-color:#333333"
             id="stop541" />
          <stop
             offset="1"
             style="stop-color:#050505"
             id="stop543" />
        </radialGradient>
        <rect
           x="185.60001"
           y="334.60001"
           class="st13"
           width="121"
           height="165.39999"
           clip-path="url(#SVGID_26_)"
           id="rect546" />
      </g>
    </mask>
    <radialGradient
       id="SVGID_29_"
       cx="246.58929"
       cy="756.81628"
       r="1.9459"
       gradientTransform="matrix(-96.4638,0,0,-96.4638,23973.609,73343.398)"
       gradientUnits="userSpaceOnUse">
      <stop
         offset="0"
         style="stop-color:#3E2823"
         id="stop551" />
      <stop
         offset="1"
         style="stop-color:#3E2823"
         id="stop553" />
    </radialGradient>
    <defs
       id="defs643">
      <path
         id="path891"
         d="M 550.5,208 719,500 550.5,792 h 191 L 894.2,527.4 c 9.8,-16.9 9.8,-37.8 0,-54.8 L 741.5,208 Z" />
    </defs>
    <clipPath
       id="SVGID_47_">
      <use
         xlink:href="#SVGID_46_"
         style="overflow:visible"
         id="use645"
         x="0"
         y="0"
         width="100%"
         height="100%" />
    </clipPath>
    <defs
       id="defs471">
      <path
         id="path771"
         d="M 258.4,208 105.8,472.6 c -9.8,16.9 -9.8,37.8 0,54.7 L 258.5,792 h 191 L 281,500 449.5,208 Z" />
    </defs>
    <clipPath
       id="SVGID_14_">
      <use
         xlink:href="#SVGID_13_"
         style="overflow:visible"
         id="use473"
         x="0"
         y="0"
         width="100%"
         height="100%" />
    </clipPath>
    <defs
       id="defs571">
      <path
         id="path841"
         d="M 550.5,208 719,500 550.5,792 h 191 L 894.2,527.4 c 9.8,-16.9 9.8,-37.8 0,-54.8 L 741.5,208 Z" />
    </defs>
    <clipPath
       id="SVGID_33_">
      <use
         xlink:href="#SVGID_32_"
         style="overflow:visible"
         id="use573"
         x="0"
         y="0"
         width="100%"
         height="100%" />
    </clipPath>
    <defs
       id="defs561">
      <path
         id="path834"
         d="M 550.5,208 719,500 550.5,792 h 191 L 894.2,527.4 c 9.8,-16.9 9.8,-37.8 0,-54.8 L 741.5,208 Z" />
    </defs>
    <clipPath
       id="SVGID_31_">
      <use
         xlink:href="#SVGID_30_"
         style="overflow:visible"
         id="use563"
         x="0"
         y="0"
         width="100%"
         height="100%" />
    </clipPath>
    <defs
       id="defs663">
      <polygon
         id="polygon905"
         points="693.4,544.4 814.4,665.4 719,500 " />
    </defs>
    <clipPath
       id="SVGID_51_">
      <use
         xlink:href="#SVGID_50_"
         style="overflow:visible"
         id="use665"
         x="0"
         y="0"
         width="100%"
         height="100%" />
    </clipPath>
    <defs
       id="defs671">
      <filter
         id="filter912"
         filterUnits="userSpaceOnUse"
         x="693.40002"
         y="500"
         width="121"
         height="165.39999">
        <feColorMatrix
           type="matrix"
           values="1 0 0 0 0  0 1 0 0 0  0 0 1 0 0  0 0 0 1 0"
           id="feColorMatrix910" />
      </filter>
    </defs>
    <mask
       maskUnits="userSpaceOnUse"
       x="693.4"
       y="500"
       width="121"
       height="165.4"
       id="SVGID_52_">
      <g
         class="st25"
         id="g680">
        <radialGradient
           id="SVGID_53_"
           cx="246.56841"
           cy="756.81628"
           r="1.9459"
           gradientTransform="matrix(96.4638,0,0,96.4638,-22971.627,-72343.398)"
           gradientUnits="userSpaceOnUse">
          <stop
             offset="0"
             style="stop-color:#333333"
             id="stop673" />
          <stop
             offset="1"
             style="stop-color:#050505"
             id="stop675" />
        </radialGradient>
        <rect
           x="693.40002"
           y="500"
           class="st26"
           width="121"
           height="165.39999"
           clip-path="url(#SVGID_51_)"
           id="rect678" />
      </g>
    </mask>
    <radialGradient
       id="SVGID_54_"
       cx="246.56841"
       cy="756.81628"
       r="1.9459"
       gradientTransform="matrix(96.4638,0,0,96.4638,-22971.627,-72343.398)"
       gradientUnits="userSpaceOnUse">
      <stop
         offset="0"
         style="stop-color:#BE3B26"
         id="stop683" />
      <stop
         offset="1"
         style="stop-color:#BE3B26"
         id="stop685" />
    </radialGradient>
    <defs
       id="defs603">
      <path
         id="path863"
         d="M 550.5,208 719,500 550.5,792 h 191 L 894.2,527.4 c 9.8,-16.9 9.8,-37.8 0,-54.8 L 741.5,208 Z" />
    </defs>
    <clipPath
       id="SVGID_39_">
      <use
         xlink:href="#SVGID_38_"
         style="overflow:visible"
         id="use605"
         x="0"
         y="0"
         width="100%"
         height="100%" />
    </clipPath>
    <defs
       id="defs517">
      <rect
         id="rect804"
         x="98.599998"
         y="334.5"
         width="350.89999"
         height="457.60001" />
    </defs>
    <clipPath
       id="SVGID_24_">
      <use
         xlink:href="#SVGID_23_"
         style="overflow:visible"
         id="use519"
         x="0"
         y="0"
         width="100%"
         height="100%" />
    </clipPath>
    <defs
       id="defs477">
      <rect
         id="rect776"
         x="185.5"
         y="208"
         width="264"
         height="128.8" />
    </defs>
    <clipPath
       id="SVGID_16_">
      <use
         xlink:href="#SVGID_15_"
         style="overflow:visible"
         id="use479"
         x="0"
         y="0"
         width="100%"
         height="100%" />
    </clipPath>
    <defs
       id="defs577">
      <rect
         id="rect846"
         x="513.70001"
         y="135"
         width="460.89999"
         height="570.40002" />
    </defs>
    <clipPath
       id="SVGID_35_">
      <use
         xlink:href="#SVGID_34_"
         style="overflow:visible"
         id="use579"
         x="0"
         y="0"
         width="100%"
         height="100%" />
    </clipPath>
    <defs
       id="defs609">
      <rect
         id="rect868"
         x="550.5"
         y="208"
         width="350.79999"
         height="294.29999" />
    </defs>
    <clipPath
       id="SVGID_41_">
      <use
         xlink:href="#SVGID_40_"
         style="overflow:visible"
         id="use611"
         x="0"
         y="0"
         width="100%"
         height="100%" />
    </clipPath>
    <defs
       id="defs425">
      <rect
         id="rect740"
         x="61.900002"
         y="294.70001"
         width="460.89999"
         height="570.40002" />
    </defs>
    <clipPath
       id="SVGID_6_">
      <use
         xlink:href="#SVGID_5_"
         style="overflow:visible"
         id="use427"
         x="0"
         y="0"
         width="100%"
         height="100%" />
    </clipPath>
    <defs
       id="defs649">
      <rect
         id="rect896"
         x="550.5"
         y="208"
         width="350.89999"
         height="457.60001" />
    </defs>
    <clipPath
       id="SVGID_49_">
      <use
         xlink:href="#SVGID_48_"
         style="overflow:visible"
         id="use651"
         x="0"
         y="0"
         width="100%"
         height="100%" />
    </clipPath>
    <defs
       id="defs629">
      <rect
         id="rect882"
         x="550.5"
         y="500"
         width="169.8"
         height="292" />
    </defs>
    <clipPath
       id="SVGID_45_">
      <use
         xlink:href="#SVGID_44_"
         style="overflow:visible"
         id="use631"
         x="0"
         y="0"
         width="100%"
         height="100%" />
    </clipPath>
    <defs
       id="defs497">
      <rect
         id="rect790"
         x="279.70001"
         y="208"
         width="169.7"
         height="292" />
    </defs>
    <clipPath
       id="SVGID_20_">
      <use
         xlink:href="#SVGID_19_"
         style="overflow:visible"
         id="use499"
         x="0"
         y="0"
         width="100%"
         height="100%" />
    </clipPath>
    <defs
       id="defs457">
      <rect
         id="rect762"
         x="98.599998"
         y="497.70001"
         width="350.79999"
         height="294.29999" />
    </defs>
    <clipPath
       id="SVGID_12_">
      <use
         xlink:href="#SVGID_11_"
         style="overflow:visible"
         id="use459"
         x="0"
         y="0"
         width="100%"
         height="100%" />
    </clipPath>
    <defs
       id="defs431">
      <rect
         id="rect745"
         x="61.900002"
         y="294.70001"
         width="460.89999"
         height="570.40002" />
    </defs>
    <clipPath
       id="SVGID_8_">
      <use
         xlink:href="#SVGID_7_"
         style="overflow:visible"
         id="use433"
         x="0"
         y="0"
         width="100%"
         height="100%" />
    </clipPath>
    <defs
       id="defs583">
      <rect
         id="rect851"
         x="513.70001"
         y="135"
         width="460.89999"
         height="570.40002" />
    </defs>
    <clipPath
       id="SVGID_37_">
      <use
         xlink:href="#SVGID_36_"
         style="overflow:visible"
         id="use585"
         x="0"
         y="0"
         width="100%"
         height="100%" />
    </clipPath>
    <path
       id="path56481"
       d="M 258.4,208 105.8,472.6 c -9.8,16.9 -9.8,37.8 0,54.7 L 258.5,792 h 191 L 281,500 449.5,208 Z" />
    <path
       id="path56483"
       d="M 258.4,208 105.8,472.6 c -9.8,16.9 -9.8,37.8 0,54.7 L 258.5,792 h 191 L 281,500 449.5,208 Z" />
    <path
       id="path56485"
       d="M 258.4,208 105.8,472.6 c -9.8,16.9 -9.8,37.8 0,54.7 L 258.5,792 h 191 L 281,500 449.5,208 Z" />
    <path
       id="path56487"
       d="M 550.5,208 719,500 550.5,792 h 191 L 894.2,527.4 c 9.8,-16.9 9.8,-37.8 0,-54.8 L 741.5,208 Z" />
    <path
       id="path56489"
       d="M 258.4,208 105.8,472.6 c -9.8,16.9 -9.8,37.8 0,54.7 L 258.5,792 h 191 L 281,500 449.5,208 Z" />
    <path
       id="path56491"
       d="M 258.4,208 105.8,472.6 c -9.8,16.9 -9.8,37.8 0,54.7 L 258.5,792 h 191 L 281,500 449.5,208 Z" />
    <polygon
       id="polygon56493"
       points="306.6,455.6 185.6,334.6 281,500 " />
    <filter
       id="filter56497"
       filterUnits="userSpaceOnUse"
       x="185.60001"
       y="334.60001"
       width="121"
       height="165.39999">
      <feColorMatrix
         type="matrix"
         values="1 0 0 0 0  0 1 0 0 0  0 0 1 0 0  0 0 0 1 0"
         id="feColorMatrix56495" />
    </filter>
    <path
       id="path56499"
       d="M 550.5,208 719,500 550.5,792 h 191 L 894.2,527.4 c 9.8,-16.9 9.8,-37.8 0,-54.8 L 741.5,208 Z" />
    <path
       id="path56501"
       d="M 258.4,208 105.8,472.6 c -9.8,16.9 -9.8,37.8 0,54.7 L 258.5,792 h 191 L 281,500 449.5,208 Z" />
    <path
       id="path56503"
       d="M 550.5,208 719,500 550.5,792 h 191 L 894.2,527.4 c 9.8,-16.9 9.8,-37.8 0,-54.8 L 741.5,208 Z" />
    <path
       id="path56505"
       d="M 550.5,208 719,500 550.5,792 h 191 L 894.2,527.4 c 9.8,-16.9 9.8,-37.8 0,-54.8 L 741.5,208 Z" />
    <polygon
       id="polygon56507"
       points="693.4,544.4 814.4,665.4 719,500 " />
    <filter
       id="filter56511"
       filterUnits="userSpaceOnUse"
       x="693.40002"
       y="500"
       width="121"
       height="165.39999">
      <feColorMatrix
         type="matrix"
         values="1 0 0 0 0  0 1 0 0 0  0 0 1 0 0  0 0 0 1 0"
         id="feColorMatrix56509" />
    </filter>
    <path
       id="path56513"
       d="M 550.5,208 719,500 550.5,792 h 191 L 894.2,527.4 c 9.8,-16.9 9.8,-37.8 0,-54.8 L 741.5,208 Z" />
    <rect
       id="rect56515"
       x="98.599998"
       y="334.5"
       width="350.89999"
       height="457.60001" />
    <rect
       id="rect56517"
       x="185.5"
       y="208"
       width="264"
       height="128.8" />
    <rect
       id="rect56519"
       x="513.70001"
       y="135"
       width="460.89999"
       height="570.40002" />
    <rect
       id="rect56521"
       x="550.5"
       y="208"
       width="350.79999"
       height="294.29999" />
    <rect
       id="rect56523"
       x="61.900002"
       y="294.70001"
       width="460.89999"
       height="570.40002" />
    <rect
       id="rect56525"
       x="550.5"
       y="208"
       width="350.89999"
       height="457.60001" />
    <rect
       id="rect56527"
       x="550.5"
       y="500"
       width="169.8"
       height="292" />
    <rect
       id="rect56529"
       x="279.70001"
       y="208"
       width="169.7"
       height="292" />
    <rect
       id="rect56531"
       x="98.599998"
       y="497.70001"
       width="350.79999"
       height="294.29999" />
    <rect
       id="rect56533"
       x="61.900002"
       y="294.70001"
       width="460.89999"
       height="570.40002" />
    <rect
       id="rect56535"
       x="513.70001"
       y="135"
       width="460.89999"
       height="570.40002" />
  </defs>
  <sodipodi:namedview
     id="namedview131"
     pagecolor="#ffffff"
     bordercolor="#666666"
     borderopacity="1.0"
     inkscape:pageshadow="2"
     inkscape:pageopacity="0.0"
     inkscape:pagecheckerboard="true"
     showgrid="false"
     inkscape:zoom="0.75479003"
     inkscape:cx="386.20012"
     inkscape:cy="263.64948"
     inkscape:window-width="1920"
     inkscape:window-height="1173"
     inkscape:window-x="0"
     inkscape:window-y="0"
     inkscape:window-maximized="1"
     inkscape:current-layer="g1727"
     fit-margin-top="0"
     fit-margin-left="0"
     fit-margin-right="0"
     fit-margin-bottom="0" />
  <clipPath
     id="g9c76c2a153_3_500.0">
    <path
       d="M 0,0 H 960 V 540 H 0 Z"
       clip-rule="nonzero"
       id="path2" />
  </clipPath>
  <g
     id="g27484"
     transform="translate(-110.33051,0.74336739)">
    <g
       id="g1441">
      <rect
         style="fill:none;fill-opacity:1;stroke:none;stroke-width:4.62502;stroke-dasharray:4.62502, 9.25004;stroke-dashoffset:8.32504"
         id="rect27560"
         width="859.80762"
         height="231.70236"
         x="0"
         y="0"
         transform="translate(110.33051,-0.74336739)" />
      <g
         id="g1727"
         transform="translate(-7.0000064)">
        <g
           id="g61384"
           style="fill:#64a725;fill-opacity:1"
           transform="translate(-296.17387)">
          <path
             fill="#efefef"
             d="m 446.87801,35.91096 h 187.2126 v 158.3937 h -187.2126 z"
             fill-rule="evenodd"
             id="path61380"
             style="fill:#64a725;fill-opacity:1" />
          <path
             fill="#efefef"
             d="m 633.73639,36.199251 56.07843,78.908319 -56.1412,78.90829 z"
             fill-rule="evenodd"
             id="path61382"
             style="fill:#64a725;fill-opacity:1;stroke:#64a725;stroke-width:0.996357;stroke-linejoin:bevel;stroke-opacity:1" />
        </g>
        <g
           id="g24069"
           style="fill:#64a725;fill-opacity:1">
          <path
             fill="#efefef"
             d="m 446.87801,35.91096 h 187.2126 v 158.3937 h -187.2126 z"
             fill-rule="evenodd"
             id="path69"
             style="fill:#64a725;fill-opacity:1" />
          <path
             fill="#efefef"
             d="m 633.73639,36.199251 56.07843,78.908319 -56.1412,78.90829 z"
             fill-rule="evenodd"
             id="path73"
             style="fill:#64a725;fill-opacity:1;stroke:#64a725;stroke-width:0.996357;stroke-linejoin:bevel;stroke-opacity:1" />
        </g>
        <g
           id="g23956"
           transform="translate(0,-198)">
          <path
             fill="#000000"
             fill-opacity="0"
             d="m 456.78551,242.83824 h 43.2 v 43.19998 h -43.2 z"
             fill-rule="evenodd"
             id="path77" />
          <g
             transform="matrix(0.27169816,0,0,0.27169816,456.78551,242.83823)"
             id="g84">
            <clipPath
               id="clipPath230">
              <path
                 d="M 0,0 H 159 V 159 H 0 Z"
                 clip-rule="evenodd"
                 id="path228" />
            </clipPath>
            <g
               id="g55042"
               transform="translate(-167.15018,199.48224)">
              <path
                 id="Fill-1"
                 class="cls-1"
                 d="m 246.65016,-199.48221 a 79.499987,79.499987 0 1 1 -79.49998,79.49998 79.499987,79.499987 0 0 1 79.49998,-79.49998"
                 style="stroke-width:0.458929" />
              <path
                 id="Fill-5"
                 class="cls-2"
                 d="m 199.94158,-107.82341 64.62884,-82.30586 c 1.44034,2.84329 0,4.452 -0.56119,6.15423 -5.87364,16.10577 -11.65377,32.32374 -17.80799,48.33599 -1.51517,4.05918 -0.86047,5.01318 3.40447,5.01318 h 41.60186 c 1.12235,0 2.63754,-0.56118 3.31093,0.67342 0.6734,1.23459 -0.76695,2.16988 -1.42165,3.12387 l -52.97504,70.128342 c -0.84176,1.141063 -1.68353,2.84329 -3.21741,2.001532 -1.53388,-0.841759 -0.56118,-2.56271 0,-3.984348 4.07788,-14.964703 7.95,-29.76108 12.21494,-44.632216 1.06623,-3.498 0,-4.26494 -3.19871,-4.17142 h -39.52552 z"
                 style="stroke-width:0.458929" />
            </g>
          </g>
        </g>
        <path
           fill="#efefef"
           d="m 742.55191,35.91096 h 201.2126 v 158.3937 h -201.2126 z"
           fill-rule="evenodd"
           id="path86"
           style="fill:#64a725;fill-opacity:1"
           sodipodi:nodetypes="ccccc" />
        <path
           fill="#000000"
           d="m 808.58211,115.58781 5.8594,-15.26563 h 2.1875 l 6.2344,15.26563 h -2.2969 l -1.7813,-4.625 h -6.375 l -1.6875,4.625 z m 4.4063,-6.26563 h 5.1718 l -1.5937,-4.23437 q -0.7188,-1.92188 -1.0781,-3.15625 -0.2969,1.46875 -0.8282,2.90625 z m 18.4757,2.21875 1.8437,0.23438 q -0.2969,1.90625 -1.5469,2.98437 -1.25,1.07813 -3.0625,1.07813 -2.2656,0 -3.6562,-1.48438 -1.375,-1.48437 -1.375,-4.25 0,-1.79687 0.5937,-3.14062 0.5938,-1.34375 1.8125,-2.01563 1.2188,-0.67187 2.6407,-0.67187 1.7968,0 2.9375,0.92187 1.1562,0.90625 1.4843,2.57813 l -1.8281,0.28125 q -0.2656,-1.10938 -0.9219,-1.67188 -0.6562,-0.5625 -1.5937,-0.5625 -1.4219,0 -2.3125,1.01563 -0.875,1.01562 -0.875,3.20312 0,2.23438 0.8437,3.25 0.8594,1 2.2344,1 1.1094,0 1.8438,-0.67187 0.7343,-0.67188 0.9375,-2.07813 z m 7.539,2.375 0.2656,1.65625 q -0.7812,0.15625 -1.4062,0.15625 -1.0313,0 -1.5938,-0.3125 -0.5625,-0.32812 -0.7968,-0.84375 -0.2188,-0.53125 -0.2188,-2.21875 v -6.375 h -1.375 v -1.45312 h 1.375 v -2.73438 l 1.8594,-1.125 v 3.85938 h 1.8906 v 1.45312 h -1.8906 v 6.46875 q 0,0.8125 0.094,1.04688 0.1094,0.21875 0.3281,0.35937 0.2344,0.125 0.6407,0.125 0.3125,0 0.8281,-0.0625 z m 1.8476,-11.4375 v -2.15625 h 1.875 v 2.15625 z m 0,13.10938 v -11.0625 h 1.875 v 11.0625 z m 4.0196,-5.53125 q 0,-3.07813 1.7188,-4.54688 1.4218,-1.23437 3.4687,-1.23437 2.2813,0 3.7188,1.5 1.4531,1.48437 1.4531,4.125 0,2.14062 -0.6406,3.35937 -0.625,1.21875 -1.8594,1.90625 -1.2188,0.67188 -2.6719,0.67188 -2.3125,0 -3.75,-1.48438 -1.4375,-1.5 -1.4375,-4.29687 z m 1.9375,0 q 0,2.125 0.9219,3.1875 0.9219,1.04687 2.3281,1.04687 1.4063,0 2.3281,-1.0625 0.9219,-1.0625 0.9219,-3.23437 0,-2.04688 -0.9375,-3.10938 -0.9219,-1.0625 -2.3125,-1.0625 -1.4062,0 -2.3281,1.0625 -0.9219,1.04688 -0.9219,3.17188 z m 10.6273,5.53125 v -11.0625 h 1.6875 v 1.57812 q 1.2188,-1.82812 3.5157,-1.82812 1,0 1.8437,0.35937 0.8438,0.35938 1.25,0.95313 0.4219,0.57812 0.5938,1.375 0.094,0.51562 0.094,1.82812 v 6.79688 h -1.875 v -6.73438 q 0,-1.14062 -0.2188,-1.70312 -0.2187,-0.57813 -0.7812,-0.90625 -0.5469,-0.34375 -1.2969,-0.34375 -1.2031,0 -2.0781,0.76562 -0.8594,0.75 -0.8594,2.875 v 6.04688 z m 11.1117,-3.29688 1.8594,-0.29687 q 0.1563,1.10937 0.8594,1.70312 0.7187,0.59375 2,0.59375 1.2969,0 1.9219,-0.51562 0.625,-0.53125 0.625,-1.23438 0,-0.64062 -0.5625,-1 -0.375,-0.25 -1.9063,-0.64062 -2.0625,-0.51563 -2.8594,-0.89063 -0.7968,-0.39062 -1.2187,-1.0625 -0.4063,-0.67187 -0.4063,-1.48437 0,-0.73438 0.3282,-1.35938 0.3437,-0.64062 0.9375,-1.0625 0.4375,-0.3125 1.1875,-0.53125 0.75,-0.23437 1.625,-0.23437 1.2968,0 2.2812,0.375 0.9844,0.375 1.4531,1.01562 0.4688,0.64063 0.6407,1.71875 l -1.8282,0.25 q -0.125,-0.85937 -0.7343,-1.32812 -0.5938,-0.48438 -1.6875,-0.48438 -1.2813,0 -1.8438,0.42188 -0.5469,0.42187 -0.5469,1 0,0.35937 0.2344,0.65625 0.2188,0.29687 0.7188,0.5 0.2812,0.10937 1.6562,0.48437 1.9844,0.53125 2.7656,0.875 0.7969,0.32813 1.2344,0.98438 0.4531,0.64062 0.4531,1.59375 0,0.9375 -0.5468,1.76562 -0.5469,0.82813 -1.5782,1.28125 -1.0312,0.45313 -2.3281,0.45313 -2.1562,0 -3.2969,-0.89063 -1.125,-0.90625 -1.4375,-2.65625 z"
           fill-rule="nonzero"
           id="path90"
           style="fill:#ffffff" />
        <path
           fill="#000000"
           d="m 772.11971,142.94969 q -1.3594,-1.70313 -2.2969,-4 -0.9375,-2.29688 -0.9375,-4.76563 0,-2.15625 0.7031,-4.14062 0.8281,-2.3125 2.5313,-4.59375 h 1.1718 q -1.0937,1.89062 -1.4531,2.70312 -0.5469,1.25 -0.875,2.625 -0.3906,1.70313 -0.3906,3.42188 0,4.375 2.7187,8.75 z m 3.5876,-3.92188 v -13.35937 h 1.7656 v 13.35937 z m 4.6834,0 v -9.67187 h 1.4687 v 1.375 q 1.0625,-1.59375 3.0781,-1.59375 0.875,0 1.6094,0.3125 0.7344,0.3125 1.0938,0.82812 0.375,0.5 0.5156,1.20313 0.094,0.45312 0.094,1.59375 v 5.95312 h -1.6406 v -5.89062 q 0,-1 -0.2032,-1.48438 -0.1875,-0.5 -0.6718,-0.79687 -0.4844,-0.29688 -1.1407,-0.29688 -1.0468,0 -1.8125,0.67188 -0.75,0.65625 -0.75,2.51562 v 5.28125 z m 9.1413,0.23438 3.875,-13.8125 h 1.3125 l -3.8594,13.8125 z m 5.8083,-5.07813 q 0,-2.6875 1.4844,-3.96875 1.25,-1.07812 3.0469,-1.07812 2,0 3.2656,1.3125 1.2656,1.29687 1.2656,3.60937 0,1.85938 -0.5625,2.9375 -0.5625,1.0625 -1.6406,1.65625 -1.0625,0.59375 -2.3281,0.59375 -2.0313,0 -3.2813,-1.29687 -1.25,-1.3125 -1.25,-3.76563 z m 1.6875,0 q 0,1.85938 0.7969,2.79688 0.8125,0.92187 2.0469,0.92187 1.2187,0 2.0312,-0.92187 0.8125,-0.9375 0.8125,-2.84375 0,-1.79688 -0.8125,-2.71875 -0.8125,-0.92188 -2.0312,-0.92188 -1.2344,0 -2.0469,0.92188 -0.7969,0.90625 -0.7969,2.76562 z m 15.6257,4.84375 v -1.42187 q -1.125,1.64062 -3.0625,1.64062 -0.8594,0 -1.6094,-0.32812 -0.7344,-0.32813 -1.0937,-0.82813 -0.3594,-0.5 -0.5,-1.21875 -0.1094,-0.46875 -0.1094,-1.53125 v -5.98437 h 1.6406 v 5.35937 q 0,1.28125 0.1094,1.73438 0.1562,0.64062 0.6562,1.01562 0.5,0.375 1.2344,0.375 0.7344,0 1.375,-0.375 0.6563,-0.39062 0.9219,-1.03125 0.2656,-0.65625 0.2656,-1.89062 v -5.1875 h 1.6406 v 9.67187 z m 7.6257,-1.46875 0.2344,1.45313 q -0.6875,0.14062 -1.2344,0.14062 -0.8906,0 -1.3906,-0.28125 -0.4844,-0.28125 -0.6875,-0.73437 -0.2031,-0.46875 -0.2031,-1.9375 v -5.57813 h -1.2032 v -1.26562 h 1.2032 v -2.39063 l 1.625,-0.98437 v 3.375 h 1.6562 v 1.26562 h -1.6562 v 5.67188 q 0,0.6875 0.078,0.89062 0.094,0.20313 0.2812,0.32813 0.2031,0.10937 0.5781,0.10937 0.2657,0 0.7188,-0.0625 z m 10.3667,0 0.2343,1.45313 q -0.6875,0.14062 -1.2343,0.14062 -0.8907,0 -1.3907,-0.28125 -0.4843,-0.28125 -0.6875,-0.73437 -0.2031,-0.46875 -0.2031,-1.9375 v -5.57813 h -1.2031 v -1.26562 h 1.2031 v -2.39063 l 1.625,-0.98437 v 3.375 h 1.6563 v 1.26562 h -1.6563 v 5.67188 q 0,0.6875 0.078,0.89062 0.094,0.20313 0.2813,0.32813 0.2031,0.10937 0.5781,0.10937 0.2656,0 0.7187,-0.0625 z m 1.6051,1.46875 v -13.35937 h 1.6406 v 4.79687 q 1.1407,-1.32812 2.8907,-1.32812 1.0781,0 1.8593,0.42187 0.7969,0.42188 1.1407,1.17188 0.3437,0.75 0.3437,2.17187 v 6.125 h -1.6406 v -6.125 q 0,-1.23437 -0.5313,-1.79687 -0.5312,-0.5625 -1.5156,-0.5625 -0.7187,0 -1.3594,0.39062 -0.6406,0.375 -0.9218,1.01563 -0.2657,0.64062 -0.2657,1.78125 v 5.29687 z m 17.0008,-3.10937 1.6875,0.20312 q -0.4063,1.48438 -1.4844,2.3125 -1.0781,0.8125 -2.7656,0.8125 -2.125,0 -3.375,-1.29687 -1.2344,-1.3125 -1.2344,-3.67188 0,-2.45312 1.25,-3.79687 1.2656,-1.34375 3.2656,-1.34375 1.9375,0 3.1563,1.32812 1.2343,1.3125 1.2343,3.70313 0,0.15625 0,0.4375 h -7.2187 q 0.094,1.59375 0.9062,2.45312 0.8125,0.84375 2.0157,0.84375 0.9062,0 1.5468,-0.46875 0.6407,-0.48437 1.0157,-1.51562 z m -5.3907,-2.65625 h 5.4063 q -0.1094,-1.21875 -0.625,-1.82813 -0.7813,-0.95312 -2.0313,-0.95312 -1.125,0 -1.9062,0.76562 -0.7656,0.75 -0.8438,2.01563 z m 20.6372,2.21875 1.6093,0.21875 q -0.2656,1.65625 -1.3593,2.60937 -1.0782,0.9375 -2.6719,0.9375 -1.9844,0 -3.1875,-1.29687 -1.2031,-1.29688 -1.2031,-3.71875 0,-1.57813 0.5156,-2.75 0.5156,-1.17188 1.5781,-1.75 1.0625,-0.59375 2.3125,-0.59375 1.5781,0 2.5781,0.79687 1,0.79688 1.2813,2.26563 l -1.5938,0.23437 q -0.2343,-0.96875 -0.8125,-1.45312 -0.5781,-0.5 -1.3906,-0.5 -1.2344,0 -2.0156,0.89062 -0.7813,0.89063 -0.7813,2.8125 0,1.95313 0.75,2.84375 0.75,0.875 1.9532,0.875 0.9687,0 1.6093,-0.59375 0.6563,-0.59375 0.8282,-1.82812 z m 2.9687,3.54687 v -13.35937 h 1.6406 v 13.35937 z m 10.5198,0 v -1.42187 q -1.125,1.64062 -3.0625,1.64062 -0.8594,0 -1.6094,-0.32812 -0.7344,-0.32813 -1.0937,-0.82813 -0.3594,-0.5 -0.5,-1.21875 -0.1094,-0.46875 -0.1094,-1.53125 v -5.98437 h 1.6406 v 5.35937 q 0,1.28125 0.1094,1.73438 0.1562,0.64062 0.6562,1.01562 0.5,0.375 1.2344,0.375 0.7344,0 1.375,-0.375 0.6563,-0.39062 0.9219,-1.03125 0.2656,-0.65625 0.2656,-1.89062 v -5.1875 h 1.6406 v 9.67187 z m 3.3914,-2.89062 1.625,-0.25 q 0.125,0.96875 0.75,1.5 0.625,0.51562 1.75,0.51562 1.125,0 1.6718,-0.45312 0.5469,-0.46875 0.5469,-1.09375 0,-0.54688 -0.4844,-0.875 -0.3281,-0.21875 -1.6718,-0.54688 -1.8125,-0.46875 -2.5157,-0.79687 -0.6875,-0.32813 -1.0468,-0.90625 -0.3594,-0.59375 -0.3594,-1.3125 0,-0.64063 0.2969,-1.1875 0.2968,-0.5625 0.8125,-0.92188 0.375,-0.28125 1.0312,-0.46875 0.6719,-0.20312 1.4219,-0.20312 1.1406,0 2,0.32812 0.8594,0.32813 1.2656,0.89063 0.4219,0.5625 0.5781,1.5 l -1.6093,0.21875 q -0.1094,-0.75 -0.6407,-1.17188 -0.5156,-0.42187 -1.4687,-0.42187 -1.1406,0 -1.625,0.375 -0.4688,0.375 -0.4688,0.875 0,0.3125 0.1875,0.57812 0.2032,0.26563 0.6407,0.4375 0.2343,0.0937 1.4375,0.42188 1.75,0.45312 2.4375,0.75 0.6875,0.29687 1.0781,0.85937 0.3906,0.5625 0.3906,1.40625 0,0.82813 -0.4844,1.54688 -0.4687,0.71875 -1.375,1.125 -0.9062,0.39062 -2.0468,0.39062 -1.875,0 -2.875,-0.78125 -0.9844,-0.78125 -1.25,-2.32812 z m 13.5625,1.42187 0.2343,1.45313 q -0.6875,0.14062 -1.2343,0.14062 -0.8907,0 -1.3907,-0.28125 -0.4843,-0.28125 -0.6875,-0.73437 -0.2031,-0.46875 -0.2031,-1.9375 v -5.57813 h -1.2031 v -1.26562 h 1.2031 v -2.39063 l 1.625,-0.98437 v 3.375 h 1.6563 v 1.26562 h -1.6563 v 5.67188 q 0,0.6875 0.078,0.89062 0.094,0.20313 0.2813,0.32813 0.2031,0.10937 0.5781,0.10937 0.2656,0 0.7187,-0.0625 z m 8.2301,-1.64062 1.6875,0.20312 q -0.4062,1.48438 -1.4844,2.3125 -1.0781,0.8125 -2.7656,0.8125 -2.125,0 -3.375,-1.29687 -1.2344,-1.3125 -1.2344,-3.67188 0,-2.45312 1.25,-3.79687 1.2657,-1.34375 3.2657,-1.34375 1.9375,0 3.1562,1.32812 1.2344,1.3125 1.2344,3.70313 0,0.15625 0,0.4375 h -7.2188 q 0.094,1.59375 0.9063,2.45312 0.8125,0.84375 2.0156,0.84375 0.9063,0 1.5469,-0.46875 0.6406,-0.48437 1.0156,-1.51562 z m -5.3906,-2.65625 h 5.4062 q -0.1093,-1.21875 -0.625,-1.82813 -0.7812,-0.95312 -2.0312,-0.95312 -1.125,0 -1.9063,0.76562 -0.7656,0.75 -0.8437,2.01563 z m 9.1257,5.76562 v -9.67187 h 1.4688 v 1.46875 q 0.5625,-1.03125 1.0312,-1.35938 0.4844,-0.32812 1.0625,-0.32812 0.8282,0 1.6875,0.53125 l -0.5625,1.51562 q -0.6093,-0.35937 -1.2031,-0.35937 -0.5469,0 -0.9687,0.32812 -0.4219,0.32813 -0.6094,0.89063 -0.2813,0.875 -0.2813,1.92187 v 5.0625 z m 7.3065,3.92188 h -1.1875 q 2.7344,-4.375 2.7344,-8.75 0,-1.71875 -0.3907,-3.39063 -0.3125,-1.375 -0.875,-2.625 -0.3593,-0.82812 -1.4687,-2.73437 h 1.1875 q 1.7031,2.28125 2.5312,4.59375 0.6875,1.98437 0.6875,4.14062 0,2.46875 -0.9375,4.76563 -0.9375,2.29687 -2.2812,4 z"
           fill-rule="nonzero"
           id="path92"
           style="fill:#ffffff" />
        <g
           id="g23949"
           transform="translate(0,-198)">
          <path
             fill="#000000"
             fill-opacity="0"
             d="m 158.7864,242.83824 h 43.20002 V 284.4673 H 158.7864 Z"
             fill-rule="evenodd"
             id="path60" />
          <g
             id="g3052"
             transform="matrix(0.06146436,0,0,0.06146436,157.78296,231.48254)">
            <path
               style="fill:#326ce5;fill-opacity:1;stroke:#ffffff;stroke-width:0;stroke-miterlimit:4;stroke-dasharray:none;stroke-opacity:1"
               d="m 365.3125,184.8125 a 46.724621,46.342246 0 0 0 -17.90625,4.53125 l -244.34375,116.75 a 46.724621,46.342246 0 0 0 -25.28125,31.4375 L 17.5,599.78125 A 46.724621,46.342246 0 0 0 23.84375,635.3125 46.724621,46.342246 0 0 0 26.5,639 l 169.125,210.28125 a 46.724621,46.342246 0 0 0 36.53125,17.4375 L 503.375,866.65625 A 46.724621,46.342246 0 0 0 539.90625,849.25 L 708.96875,638.9375 A 46.724621,46.342246 0 0 0 718,599.71875 l -60.375,-262.25 a 46.724621,46.342246 0 0 0 -25.28125,-31.4375 l -244.375,-116.6875 A 46.724621,46.342246 0 0 0 365.3125,184.8125 Z"
               id="path3055"
               inkscape:connector-curvature="0"
               inkscape:export-filename="new.png"
               inkscape:export-xdpi="250.55"
               inkscape:export-ydpi="250.55" />
            <path
               inkscape:connector-curvature="0"
               id="path3059"
               d="m 367.73366,274.05962 c -8.07696,8.2e-4 -14.62596,7.27591 -14.625,16.25 1e-5,0.13773 0.0282,0.26934 0.0312,0.40625 -0.0119,1.21936 -0.0708,2.68836 -0.0312,3.75 0.19262,5.176 1.3209,9.13749 2,13.90625 1.23028,10.20666 2.26117,18.66736 1.625,26.53125 -0.61869,2.9654 -2.80288,5.67741 -4.75,7.5625 l -0.34375,6.1875 c -8.77682,0.72717 -17.61235,2.05874 -26.4375,4.0625 -37.97461,8.62218 -70.67008,28.18307 -95.5625,54.59375 -1.61522,-1.10193 -4.44103,-3.12914 -5.2813,-3.75 -2.61117,0.35262 -5.25021,1.15829 -8.6875,-0.84375 -6.54491,-4.40563 -12.50587,-10.48693 -19.71875,-17.8125 -3.30498,-3.50419 -5.69832,-6.84101 -9.625,-10.21875 -0.89172,-0.76707 -2.25258,-1.80455 -3.25,-2.59375 -3.06988,-2.44757 -6.6907,-3.72402 -10.1875,-3.84375 -4.49589,-0.15394 -8.82394,1.60385 -11.65625,5.15625 -5.03521,6.31538 -3.42312,15.96805 3.59375,21.5625 0.0712,0.0567 0.14702,0.10078 0.21875,0.15625 0.96422,0.78162 2.14496,1.78313 3.03125,2.4375 4.16687,3.07655 7.9732,4.65145 12.125,7.09375 8.747,5.40181 15.99837,9.88086 21.75,15.28125 2.24602,2.39417 2.63858,6.61292 2.9375,8.4375 l 4.6875,4.1875 c -25.09342,37.76368 -36.70686,84.40946 -29.8437,131.9375 l -6.125,1.78125 c -1.6143,2.08461 -3.89541,5.36474 -6.2813,6.34375 -7.52513,2.37021 -15.99424,3.24059 -26.21875,4.3125 -4.80031,0.39915 -8.94218,0.16095 -14.03125,1.125 -1.12008,0.21218 -2.68072,0.61877 -3.90625,0.90625 -0.0426,0.009 -0.0824,0.0216 -0.125,0.0312 -0.0668,0.0155 -0.15456,0.0479 -0.21875,0.0625 -8.62014,2.08279 -14.15774,10.006 -12.375,17.8125 1.78316,7.80833 10.20314,12.55677 18.875,10.6875 0.0626,-0.0143 0.1535,-0.0167 0.21875,-0.0312 0.0979,-0.0224 0.18409,-0.0699 0.28125,-0.0937 1.20885,-0.26536 2.72377,-0.5606 3.78125,-0.84375 5.00334,-1.33963 8.62694,-3.30796 13.125,-5.03125 9.67694,-3.47077 17.69173,-6.37022 25.5,-7.5 3.26118,-0.25542 6.69711,2.01216 8.40625,2.96875 l 6.375,-1.09375 c 14.67018,45.48282 45.41416,82.24502 84.34375,105.3125 l -2.65625,6.375 c 0.95742,2.47542 2.01341,5.8247 1.30022,8.26932 -2.83868,7.3612 -7.70097,15.13097 -13.23772,23.79318 -2.68085,4.00192 -5.42453,7.10761 -7.84375,11.6875 -0.5789,1.09589 -1.31618,2.77932 -1.875,3.9375 -3.75884,8.04236 -1.00164,17.3052 6.21875,20.78125 7.26575,3.49788 16.28447,-0.19134 20.1875,-8.25 0.006,-0.0114 0.0257,-0.0198 0.0312,-0.0312 0.004,-0.009 -0.004,-0.0225 0,-0.0312 0.55593,-1.14255 1.34353,-2.64437 1.8125,-3.71875 2.07213,-4.74702 2.76161,-8.81506 4.21875,-13.40625 3.86962,-9.72014 5.99567,-19.91903 11.32258,-26.27411 1.45868,-1.74023 3.83681,-2.4095 6.30242,-3.06964 l 3.3125,-6 c 33.93824,13.0268 71.92666,16.52246 109.875,7.90625 8.65697,-1.96557 17.01444,-4.50945 25.09375,-7.5625 0.93098,1.65133 2.66113,4.8257 3.125,5.625 2.50559,0.81518 5.24044,1.23614 7.46875,4.53125 3.98539,6.80898 6.7109,14.86416 10.03125,24.59375 1.45738,4.59111 2.17762,8.65933 4.25,13.40625 0.47234,1.08195 1.256,2.60486 1.8125,3.75 3.89482,8.08484 12.94212,11.78667 20.21875,8.28125 7.2195,-3.4779 9.97974,-12.7399 6.21875,-20.78125 -0.55889,-1.15814 -1.3273,-2.84164 -1.90625,-3.9375 -2.41946,-4.57976 -5.1627,-7.65448 -7.84375,-11.65625 -5.53721,-8.66192 -10.12968,-15.8577 -12.96875,-23.21875 -1.18711,-3.79657 0.20028,-6.15774 1.125,-8.625 -0.55378,-0.63477 -1.73881,-4.22009 -2.4375,-5.90625 40.4574,-23.88816 70.29856,-62.02129 84.3125,-106.0625 1.8924,0.29742 5.18154,0.87936 6.25,1.09375 2.19954,-1.4507 4.22194,-3.34352 8.1875,-3.03125 7.80832,1.12937 15.82288,4.02973 25.5,7.5 4.49815,1.72306 8.1216,3.72313 13.125,5.0625 1.05749,0.28309 2.57238,0.5472 3.78125,0.8125 0.0972,0.0238 0.1833,0.0714 0.28125,0.0937 0.0653,0.0146 0.15615,0.0169 0.21875,0.0312 8.67236,1.86695 17.09384,-2.87871 18.875,-10.6875 1.78074,-7.80696 -3.7543,-15.73201 -12.375,-17.8125 -1.25393,-0.28513 -3.03225,-0.76938 -4.25,-1 -5.08912,-0.96378 -9.23092,-0.7261 -14.03125,-1.125 -10.22456,-1.07138 -18.6935,-1.94269 -26.21875,-4.3125 -3.06826,-1.19028 -5.25103,-4.84124 -6.31255,-6.34375 l -5.90625,-1.71875 c 3.06226,-22.15442 2.23655,-45.21134 -3.0625,-68.28125 -5.34839,-23.28471 -14.80037,-44.58084 -27.40625,-63.34375 1.51505,-1.37729 4.37619,-3.91091 5.1875,-4.65625 0.23716,-2.62417 0.0334,-5.37553 2.75,-8.28125 5.75134,-5.40069 13.00329,-9.87898 21.75,-15.28125 4.15167,-2.44252 7.98954,-4.01698 12.15625,-7.09375 0.94225,-0.69576 2.2289,-1.79759 3.21875,-2.59375 7.01538,-5.59633 8.63058,-15.24842 3.59375,-21.5625 -5.03683,-6.31408 -14.79712,-6.90883 -21.8125,-1.3125 -0.99856,0.79085 -2.35353,1.82252 -3.25,2.59375 -3.9265,3.37796 -6.35145,6.71439 -9.65625,10.21875 -7.21249,7.32595 -13.17407,13.43777 -19.71875,17.84375 -2.83601,1.65106 -6.98996,1.07978 -8.87505,0.96875 l -5.5625,3.96875 c -31.7188,-33.26057 -74.90466,-54.52546 -121.40605,-58.6563 -0.13006,-1.94872 -0.30045,-5.47117 -0.34375,-6.53125 -1.90371,-1.82165 -4.20342,-3.37686 -4.78125,-7.3125 -0.63617,-7.86389 0.42597,-16.32459 1.65625,-26.53125 0.6791,-4.76876 1.80738,-8.73025 2,-13.90625 0.0438,-1.17663 -0.0265,-2.88401 -0.0312,-4.15625 -9.6e-4,-8.97409 -6.54804,-16.25082 -14.625,-16.25 z m -18.3125,113.4375 -4.34375,76.71875 -0.3125,0.15625 c -0.29134,6.86335 -5.93996,12.34375 -12.875,12.34375 -2.84081,0 -5.46294,-0.91229 -7.59375,-2.46875 l -0.125,0.0625 -62.90625,-44.59375 c 19.33365,-19.01115 44.06291,-33.06039 72.5625,-39.53125 5.20599,-1.18203 10.40966,-2.0591 15.59375,-2.6875 z m 36.65625,0 c 33.27347,4.09232 64.04501,19.15882 87.625,42.25 l -62.5,44.3125 -0.21875,-0.0937 c -5.54745,4.05169 -13.36343,3.04639 -17.6875,-2.375 -1.77132,-2.22096 -2.70072,-4.83239 -2.8125,-7.46875 l -0.0625,-0.0312 z m -147.625,70.875 57.4375,51.375 -0.0625,0.3125 c 5.18437,4.50697 5.94888,12.32794 1.625,17.75 -1.7712,2.22105 -4.14208,3.71074 -6.6875,4.40625 l -0.0625,0.25 -73.625,21.25 c -3.74728,-34.26517 4.32855,-67.57364 21.375,-95.34375 z m 258.15625,0.0312 c 8.5341,13.83256 14.99655,29.28214 18.84375,46.03125 3.80106,16.54828 4.75499,33.06697 3.1875,49.03125 l -74,-21.3125 -0.0625,-0.3125 c -6.6265,-1.81104 -10.69893,-8.55162 -9.15625,-15.3125 0.63203,-2.76962 2.10222,-5.11264 4.09375,-6.84375 l -0.0312,-0.15625 57.125,-51.125 z m -140.65625,55.3125 h 23.53125 l 14.625,18.28125 -5.25,22.8125 -21.125,10.15625 -21.1875,-10.1875 -5.25,-22.8125 z m 75.4375,62.5625 c 0.99997,-0.0505 1.99558,0.0396 2.96875,0.21875 l 0.125,-0.15625 76.15625,12.875 c -11.1455,31.3131 -32.47281,58.44018 -60.96875,76.59375 l -29.5625,-71.40625 0.0937,-0.125 c -2.71561,-6.30999 0.002,-13.70956 6.25,-16.71875 1.59965,-0.77041 3.27089,-1.19701 4.9375,-1.28125 z m -127.90625,0.3125 c 5.81174,0.0815 11.02462,4.11525 12.375,10.03125 0.63219,2.76958 0.3245,5.51375 -0.71875,7.9375 l 0.21875,0.28125 -29.25,70.6875 c -27.34716,-17.5486 -49.12927,-43.82403 -60.78125,-76.06245 l 75.5,-12.8125 0.125,0.15625 c 0.84451,-0.15541 1.701,-0.2304 2.53125,-0.21875 z m 63.78125,30.9688 c 2.02445,-0.0744 4.07865,0.34098 6.03125,1.28125 2.55951,1.23253 4.53673,3.17319 5.78125,5.5 h 0.28125 l 37.21875,67.25 c -4.83029,1.61923 -9.79609,3.00308 -14.875,4.15625 -28.46453,6.4629 -56.83862,4.50467 -82.53125,-4.25 l 37.125,-67.125 h 0.0625 c 2.22767,-4.16441 6.45247,-6.64887 10.90625,-6.8125 z"
               style="color:#000000;font-style:normal;font-variant:normal;font-weight:normal;font-stretch:normal;font-size:medium;line-height:normal;font-family:Sans;-inkscape-font-specification:Sans;text-indent:0;text-align:start;text-decoration:none;text-decoration-line:none;letter-spacing:normal;word-spacing:normal;text-transform:none;writing-mode:lr-tb;direction:ltr;baseline-shift:baseline;text-anchor:start;display:inline;overflow:visible;visibility:visible;fill:#ffffff;fill-opacity:1;stroke:#ffffff;stroke-width:0.25;stroke-miterlimit:4;stroke-dasharray:none;stroke-opacity:1;marker:none;enable-background:accumulate"
               sodipodi:nodetypes="ccccccccsccccscssccsccccccccscccsccccccccccccccscccscsccsccccscscsccccccccscccscsccccsccccscscscccccccccccccccscccsccccccccccccscccccscccccccccccccccccccccccscccscccccccccscccscccc"
               inkscape:export-filename="./path3059.png"
               inkscape:export-xdpi="250.55"
               inkscape:export-ydpi="250.55" />
          </g>
          <path
             fill="#737373"
             d="m 180.22777,283.65153 v 0 c 0,-1.96851 1.59579,-3.5643 3.5643,-3.5643 h 12.11549 v 0 c 0.94532,0 1.8519,0.37552 2.52034,1.04394 0.66843,0.66846 1.04397,1.57505 1.04397,2.52036 v 0.36746 0 c 0,1.96851 -1.5958,3.5643 -3.56431,3.5643 h -12.11549 c -1.96851,0 -3.5643,-1.59579 -3.5643,-3.5643 z"
             fill-rule="evenodd"
             id="path105" />
          <path
             stroke="#737373"
             stroke-width="1"
             stroke-linejoin="round"
             stroke-linecap="butt"
             d="m 180.22777,283.65153 v 0 c 0,-1.96851 1.59579,-3.5643 3.5643,-3.5643 h 12.11549 v 0 c 0.94532,0 1.8519,0.37552 2.52034,1.04394 0.66843,0.66846 1.04397,1.57505 1.04397,2.52036 v 0.36746 0 c 0,1.96851 -1.5958,3.5643 -3.56431,3.5643 h -12.11549 c -1.96851,0 -3.5643,-1.59579 -3.5643,-3.5643 z"
             fill-rule="evenodd"
             id="path107" />
          <path
             fill="#ffffff"
             d="m 188.23797,284.97087 h -1.59375 l -0.34375,0.98437 h -0.51562 l 1.4375,-3.78125 h 0.4375 l 1.45313,3.78125 h -0.51563 z m -1.4375,-0.42188 h 1.29688 l -0.65625,-1.76562 z m 3.31953,-0.0781 v 1.48437 h -0.5 v -3.78125 h 1.40625 q 0.60937,0 0.95312,0.3125 0.35938,0.3125 0.35938,0.84375 0,0.54688 -0.34375,0.84375 -0.34375,0.29688 -0.98438,0.29688 z m 0,-0.40625 h 0.90625 q 0.39062,0 0.60937,-0.1875 0.21875,-0.1875 0.21875,-0.54688 0,-0.34375 -0.21875,-0.54687 -0.21875,-0.20313 -0.59375,-0.20313 H 190.12 Z m 3.39254,1.89062 h -0.5 v -3.78125 h 0.5 z"
             fill-rule="nonzero"
             id="path109" />
        </g>
        <path
           fill="#000000"
           d="m 222.43441,115.58781 v -15.26563 h 2.0156 v 7.5625 l 7.5782,-7.5625 h 2.75 l -6.4063,6.1875 6.6875,9.07813 h -2.6719 l -5.4375,-7.73438 -2.5,2.4375 v 5.29688 z m 16.4288,-8.28125 q -1.1562,-0.42188 -1.7187,-1.21875 -0.5625,-0.79688 -0.5625,-1.89063 0,-1.67187 1.1875,-2.79687 1.2031,-1.14063 3.1875,-1.14063 2,0 3.2187,1.17188 1.2188,1.15625 1.2188,2.8125 0,1.0625 -0.5625,1.85937 -0.5469,0.78125 -1.6875,1.20313 1.4062,0.45312 2.1406,1.48437 0.7344,1.01563 0.7344,2.4375 0,1.95313 -1.3906,3.29688 -1.375,1.32812 -3.6407,1.32812 -2.25,0 -3.6406,-1.34375 -1.3906,-1.34375 -1.3906,-3.34375 0,-1.48437 0.75,-2.48437 0.7656,-1.01563 2.1562,-1.375 z m -0.375,-3.17188 q 0,1.07813 0.7032,1.76563 0.7031,0.6875 1.8125,0.6875 1.0781,0 1.7656,-0.67188 0.7031,-0.6875 0.7031,-1.67187 0,-1.03125 -0.7187,-1.73438 -0.7032,-0.70312 -1.7657,-0.70312 -1.0781,0 -1.7968,0.6875 -0.7032,0.6875 -0.7032,1.64062 z m -0.5937,7.04688 q 0,0.79687 0.375,1.54687 0.375,0.75 1.125,1.17188 0.75,0.40625 1.625,0.40625 1.3437,0 2.2187,-0.85938 0.875,-0.875 0.875,-2.20312 0,-1.35938 -0.9062,-2.23438 -0.9063,-0.89062 -2.25,-0.89062 -1.3281,0 -2.2031,0.875 -0.8594,0.875 -0.8594,2.1875 z m 9.7211,1.10937 1.8593,-0.29687 q 0.1563,1.10937 0.8594,1.70312 0.7188,0.59375 2,0.59375 1.2969,0 1.9219,-0.51562 0.625,-0.53125 0.625,-1.23438 0,-0.64062 -0.5625,-1 -0.375,-0.25 -1.9063,-0.64062 -2.0625,-0.51563 -2.8593,-0.89063 -0.7969,-0.39062 -1.2188,-1.0625 -0.4062,-0.67187 -0.4062,-1.48437 0,-0.73438 0.3281,-1.35938 0.3437,-0.64062 0.9375,-1.0625 0.4375,-0.3125 1.1875,-0.53125 0.75,-0.23437 1.625,-0.23437 1.2969,0 2.2812,0.375 0.9844,0.375 1.4532,1.01562 0.4687,0.64063 0.6406,1.71875 l -1.8281,0.25 q -0.125,-0.85937 -0.7344,-1.32812 -0.5938,-0.48438 -1.6875,-0.48438 -1.2813,0 -1.8438,0.42188 -0.5468,0.42187 -0.5468,1 0,0.35937 0.2343,0.65625 0.2188,0.29687 0.7188,0.5 0.2812,0.10937 1.6562,0.48437 1.9844,0.53125 2.7657,0.875 0.7968,0.32813 1.2343,0.98438 0.4532,0.64062 0.4532,1.59375 0,0.9375 -0.5469,1.76562 -0.5469,0.82813 -1.5781,1.28125 -1.0313,0.45313 -2.3282,0.45313 -2.1562,0 -3.2968,-0.89063 -1.125,-0.90625 -1.4375,-2.65625 z m 14.7251,3.29688 5.8594,-15.26563 h 2.1875 l 6.2343,15.26563 h -2.2968 l -1.7813,-4.625 h -6.375 l -1.6875,4.625 z m 4.4062,-6.26563 h 5.1719 l -1.5937,-4.23437 q -0.7188,-1.92188 -1.0782,-3.15625 -0.2968,1.46875 -0.8281,2.90625 z m 11.4913,6.26563 v -15.26563 h 5.7657 q 1.5156,0 2.3281,0.14063 1.1094,0.1875 1.875,0.71875 0.7656,0.53125 1.2187,1.48437 0.4688,0.9375 0.4688,2.07813 0,1.9375 -1.25,3.29687 -1.2344,1.34375 -4.4688,1.34375 h -3.9062 v 6.20313 z m 2.0313,-8.01563 h 3.9375 q 1.9687,0 2.7812,-0.71875 0.8282,-0.73437 0.8282,-2.04687 0,-0.96875 -0.4844,-1.64063 -0.4844,-0.6875 -1.2813,-0.90625 -0.5,-0.14062 -1.875,-0.14062 h -3.9062 z m 12.5382,8.01563 v -15.26563 h 2.0312 v 15.26563 z"
           fill-rule="nonzero"
           id="path113"
           style="fill:#ffffff" />
        <path
           fill="#000000"
           d="m 182.30481,142.94969 q -1.35937,-1.70313 -2.29687,-4 -0.9375,-2.29688 -0.9375,-4.76563 0,-2.15625 0.70312,-4.14062 0.82813,-2.3125 2.53125,-4.59375 h 1.17188 q -1.09375,1.89062 -1.45313,2.70312 -0.54687,1.25 -0.875,2.625 -0.39062,1.70313 -0.39062,3.42188 0,4.375 2.71875,8.75 z m 12.82205,-8.60938 1.76563,0.45313 q -0.5625,2.17187 -2,3.32812 -1.4375,1.14063 -3.53125,1.14063 -2.15625,0 -3.51563,-0.875 -1.34375,-0.89063 -2.0625,-2.54688 -0.70312,-1.67187 -0.70312,-3.59375 0,-2.07812 0.79687,-3.625 0.79688,-1.5625 2.26563,-2.35937 1.48437,-0.8125 3.25,-0.8125 2,0 3.35937,1.01562 1.375,1.01563 1.90625,2.875 l -1.73437,0.40625 q -0.46875,-1.45312 -1.35938,-2.10937 -0.875,-0.67188 -2.20312,-0.67188 -1.54688,0 -2.57813,0.73438 -1.03125,0.73437 -1.45312,1.98437 -0.42188,1.23438 -0.42188,2.5625 0,1.70313 0.5,2.96875 0.5,1.26563 1.54688,1.90625 1.04687,0.625 2.26562,0.625 1.48438,0 2.51563,-0.85937 1.03125,-0.85938 1.39062,-2.54688 z m 10.0667,4.6875 v -1.42187 q -1.125,1.64062 -3.0625,1.64062 -0.85938,0 -1.60938,-0.32812 -0.73437,-0.32813 -1.09375,-0.82813 -0.35937,-0.5 -0.5,-1.21875 -0.10937,-0.46875 -0.10937,-1.53125 v -5.98437 h 1.64062 v 5.35937 q 0,1.28125 0.10938,1.73438 0.15625,0.64062 0.65625,1.01562 0.5,0.375 1.23437,0.375 0.73438,0 1.375,-0.375 0.65625,-0.39062 0.92188,-1.03125 0.26562,-0.65625 0.26562,-1.89062 v -5.1875 h 1.64063 v 9.67187 z m 3.39134,-2.89062 1.625,-0.25 q 0.125,0.96875 0.75,1.5 0.62501,0.51562 1.75001,0.51562 1.125,0 1.6719,-0.45312 0.5468,-0.46875 0.5468,-1.09375 0,-0.54688 -0.4843,-0.875 -0.3282,-0.21875 -1.6719,-0.54688 -1.81251,-0.46875 -2.51563,-0.79687 -0.6875,-0.32813 -1.04688,-0.90625 -0.35937,-0.59375 -0.35937,-1.3125 0,-0.64063 0.29687,-1.1875 0.29688,-0.5625 0.8125,-0.92188 0.375,-0.28125 1.03125,-0.46875 0.67186,-0.20312 1.42186,-0.20312 1.1406,0 2,0.32812 0.8594,0.32813 1.2656,0.89063 0.4219,0.5625 0.5782,1.5 l -1.6094,0.21875 q -0.1094,-0.75 -0.6406,-1.17188 -0.5157,-0.42187 -1.4688,-0.42187 -1.1406,0 -1.62498,0.375 -0.46875,0.375 -0.46875,0.875 0,0.3125 0.1875,0.57812 0.20312,0.26563 0.64062,0.4375 0.23441,0.0937 1.43751,0.42188 1.75,0.45312 2.4375,0.75 0.6875,0.29687 1.0781,0.85937 0.3906,0.5625 0.3906,1.40625 0,0.82813 -0.4843,1.54688 -0.4688,0.71875 -1.375,1.125 -0.9063,0.39062 -2.0469,0.39062 -1.87501,0 -2.87501,-0.78125 -0.98437,-0.78125 -1.25,-2.32812 z m 13.56251,1.42187 0.2344,1.45313 q -0.6875,0.14062 -1.2344,0.14062 -0.8906,0 -1.3906,-0.28125 -0.4844,-0.28125 -0.6875,-0.73437 -0.2032,-0.46875 -0.2032,-1.9375 v -5.57813 h -1.2031 v -1.26562 h 1.2031 v -2.39063 l 1.625,-0.98437 v 3.375 h 1.6563 v 1.26562 h -1.6563 v 5.67188 q 0,0.6875 0.078,0.89062 0.094,0.20313 0.2813,0.32813 0.2031,0.10937 0.5781,0.10937 0.2656,0 0.7188,-0.0625 z m 0.9958,-3.375 q 0,-2.6875 1.4844,-3.96875 1.25,-1.07812 3.0468,-1.07812 2,0 3.2657,1.3125 1.2656,1.29687 1.2656,3.60937 0,1.85938 -0.5625,2.9375 -0.5625,1.0625 -1.6406,1.65625 -1.0625,0.59375 -2.3282,0.59375 -2.0312,0 -3.2812,-1.29687 -1.25,-1.3125 -1.25,-3.76563 z m 1.6875,0 q 0,1.85938 0.7969,2.79688 0.8125,0.92187 2.0468,0.92187 1.2188,0 2.0313,-0.92187 0.8125,-0.9375 0.8125,-2.84375 0,-1.79688 -0.8125,-2.71875 -0.8125,-0.92188 -2.0313,-0.92188 -1.2343,0 -2.0468,0.92188 -0.7969,0.90625 -0.7969,2.76562 z m 9.2976,4.84375 v -9.67187 h 1.4687 v 1.35937 q 0.4532,-0.71875 1.2032,-1.14062 0.7656,-0.4375 1.7187,-0.4375 1.0781,0 1.7656,0.45312 0.6875,0.4375 0.9688,1.23438 1.1562,-1.6875 2.9844,-1.6875 1.4531,0 2.2187,0.79687 0.7813,0.79688 0.7813,2.45313 v 6.64062 h -1.6407 v -6.09375 q 0,-0.98437 -0.1562,-1.40625 -0.1563,-0.4375 -0.5781,-0.70312 -0.4219,-0.26563 -0.9844,-0.26563 -1.0156,0 -1.6875,0.6875 -0.6719,0.67188 -0.6719,2.15625 v 5.625 h -1.6406 v -6.28125 q 0,-1.09375 -0.4063,-1.64062 -0.4062,-0.54688 -1.3125,-0.54688 -0.6875,0 -1.2812,0.35938 -0.5938,0.35937 -0.8594,1.0625 -0.25,0.70312 -0.25,2.03125 v 5.01562 z m 20.9585,0 v -13.35937 h 5.9218 q 1.7813,0 2.7032,0.35937 0.9375,0.35938 1.4843,1.28125 0.5625,0.90625 0.5625,2.01563 0,1.40625 -0.9218,2.39062 -0.9219,0.96875 -2.8438,1.23438 0.7031,0.34375 1.0781,0.67187 0.7657,0.70313 1.4532,1.76563 l 2.3281,3.64062 h -2.2188 l -1.7656,-2.78125 q -0.7812,-1.20312 -1.2812,-1.82812 -0.5,-0.64063 -0.9063,-0.89063 -0.3906,-0.26562 -0.7969,-0.35937 -0.2968,-0.0781 -0.9843,-0.0781 h -2.0469 v 5.9375 z m 1.7656,-7.45312 h 3.7969 q 1.2187,0 1.8906,-0.25 0.6875,-0.26563 1.0469,-0.8125 0.3593,-0.54688 0.3593,-1.1875 0,-0.95313 -0.6875,-1.5625 -0.6875,-0.60938 -2.1875,-0.60938 h -4.2187 z m 18.0979,4.34375 1.6875,0.20312 q -0.4062,1.48438 -1.4843,2.3125 -1.0782,0.8125 -2.7657,0.8125 -2.125,0 -3.375,-1.29687 -1.2343,-1.3125 -1.2343,-3.67188 0,-2.45312 1.25,-3.79687 1.2656,-1.34375 3.2656,-1.34375 1.9375,0 3.1562,1.32812 1.2344,1.3125 1.2344,3.70313 0,0.15625 0,0.4375 h -7.2187 q 0.094,1.59375 0.9062,2.45312 0.8125,0.84375 2.0156,0.84375 0.9063,0 1.5469,-0.46875 0.6406,-0.48437 1.0156,-1.51562 z m -5.3906,-2.65625 h 5.4063 q -0.1094,-1.21875 -0.625,-1.82813 -0.7813,-0.95312 -2.0313,-0.95312 -1.125,0 -1.9062,0.76562 -0.7657,0.75 -0.8438,2.01563 z m 8.4851,2.875 1.625,-0.25 q 0.125,0.96875 0.75,1.5 0.625,0.51562 1.75,0.51562 1.125,0 1.6719,-0.45312 0.5469,-0.46875 0.5469,-1.09375 0,-0.54688 -0.4844,-0.875 -0.3281,-0.21875 -1.6719,-0.54688 -1.8125,-0.46875 -2.5156,-0.79687 -0.6875,-0.32813 -1.0469,-0.90625 -0.3594,-0.59375 -0.3594,-1.3125 0,-0.64063 0.2969,-1.1875 0.2969,-0.5625 0.8125,-0.92188 0.375,-0.28125 1.0313,-0.46875 0.6718,-0.20312 1.4218,-0.20312 1.1407,0 2,0.32812 0.8594,0.32813 1.2657,0.89063 0.4218,0.5625 0.5781,1.5 l -1.6094,0.21875 q -0.1094,-0.75 -0.6406,-1.17188 -0.5156,-0.42187 -1.4688,-0.42187 -1.1406,0 -1.625,0.375 -0.4687,0.375 -0.4687,0.875 0,0.3125 0.1875,0.57812 0.2031,0.26563 0.6406,0.4375 0.2344,0.0937 1.4375,0.42188 1.75,0.45312 2.4375,0.75 0.6875,0.29687 1.0781,0.85937 0.3907,0.5625 0.3907,1.40625 0,0.82813 -0.4844,1.54688 -0.4688,0.71875 -1.375,1.125 -0.9063,0.39062 -2.0469,0.39062 -1.875,0 -2.875,-0.78125 -0.9844,-0.78125 -1.25,-2.32812 z m 9.375,-1.95313 q 0,-2.6875 1.4844,-3.96875 1.25,-1.07812 3.0469,-1.07812 2,0 3.2656,1.3125 1.2656,1.29687 1.2656,3.60937 0,1.85938 -0.5625,2.9375 -0.5625,1.0625 -1.6406,1.65625 -1.0625,0.59375 -2.3281,0.59375 -2.0313,0 -3.2813,-1.29687 -1.25,-1.3125 -1.25,-3.76563 z m 1.6875,0 q 0,1.85938 0.7969,2.79688 0.8125,0.92187 2.0469,0.92187 1.2187,0 2.0312,-0.92187 0.8125,-0.9375 0.8125,-2.84375 0,-1.79688 -0.8125,-2.71875 -0.8125,-0.92188 -2.0312,-0.92188 -1.2344,0 -2.0469,0.92188 -0.7969,0.90625 -0.7969,2.76562 z m 15.6257,4.84375 v -1.42187 q -1.125,1.64062 -3.0625,1.64062 -0.8593,0 -1.6093,-0.32812 -0.7344,-0.32813 -1.0938,-0.82813 -0.3594,-0.5 -0.5,-1.21875 -0.1094,-0.46875 -0.1094,-1.53125 v -5.98437 h 1.6407 v 5.35937 q 0,1.28125 0.1093,1.73438 0.1563,0.64062 0.6563,1.01562 0.5,0.375 1.2344,0.375 0.7343,0 1.375,-0.375 0.6562,-0.39062 0.9218,-1.03125 0.2657,-0.65625 0.2657,-1.89062 v -5.1875 h 1.6406 v 9.67187 z m 4.032,0 v -9.67187 h 1.4687 v 1.46875 q 0.5625,-1.03125 1.0313,-1.35938 0.4844,-0.32812 1.0625,-0.32812 0.8281,0 1.6875,0.53125 l -0.5625,1.51562 q -0.6094,-0.35937 -1.2031,-0.35937 -0.5469,0 -0.9688,0.32812 -0.4219,0.32813 -0.6094,0.89063 -0.2812,0.875 -0.2812,1.92187 v 5.0625 z m 12.5408,-3.54687 1.6094,0.21875 q -0.2657,1.65625 -1.3594,2.60937 -1.0781,0.9375 -2.6719,0.9375 -1.9844,0 -3.1875,-1.29687 -1.2031,-1.29688 -1.2031,-3.71875 0,-1.57813 0.5156,-2.75 0.5156,-1.17188 1.5781,-1.75 1.0625,-0.59375 2.3125,-0.59375 1.5782,0 2.5782,0.79687 1,0.79688 1.2812,2.26563 l -1.5937,0.23437 q -0.2344,-0.96875 -0.8125,-1.45312 -0.5782,-0.5 -1.3907,-0.5 -1.2343,0 -2.0156,0.89062 -0.7812,0.89063 -0.7812,2.8125 0,1.95313 0.75,2.84375 0.75,0.875 1.9531,0.875 0.9687,0 1.6094,-0.59375 0.6562,-0.59375 0.8281,-1.82812 z m 9.6406,0.4375 1.6875,0.20312 q -0.4062,1.48438 -1.4844,2.3125 -1.0781,0.8125 -2.7656,0.8125 -2.125,0 -3.375,-1.29687 -1.2344,-1.3125 -1.2344,-3.67188 0,-2.45312 1.25,-3.79687 1.2657,-1.34375 3.2657,-1.34375 1.9375,0 3.1562,1.32812 1.2344,1.3125 1.2344,3.70313 0,0.15625 0,0.4375 h -7.2188 q 0.094,1.59375 0.9063,2.45312 0.8125,0.84375 2.0156,0.84375 0.9063,0 1.5469,-0.46875 0.6406,-0.48437 1.0156,-1.51562 z m -5.3906,-2.65625 h 5.4062 q -0.1093,-1.21875 -0.625,-1.82813 -0.7812,-0.95312 -2.0312,-0.95312 -1.125,0 -1.9063,0.76562 -0.7656,0.75 -0.8437,2.01563 z m 10.2195,9.6875 h -1.1875 q 2.7344,-4.375 2.7344,-8.75 0,-1.71875 -0.3907,-3.39063 -0.3125,-1.375 -0.875,-2.625 -0.3593,-0.82812 -1.4687,-2.73437 h 1.1875 q 1.7031,2.28125 2.5312,4.59375 0.6875,1.98437 0.6875,4.14062 0,2.46875 -0.9375,4.76563 -0.9375,2.29687 -2.2812,4 z"
           fill-rule="nonzero"
           id="path115"
           style="fill:#ffffff" />
        <path
           fill="#000000"
           d="m 513.43211,108.15031 q 0,-3.79688 2.0312,-5.9375 2.0469,-2.15625 5.2813,-2.15625 2.1093,0 3.7968,1.01562 1.7032,1 2.5938,2.8125 0.8906,1.79688 0.8906,4.09375 0,2.3125 -0.9375,4.15625 -0.9375,1.82813 -2.6562,2.78125 -1.7032,0.9375 -3.7032,0.9375 -2.1562,0 -3.8593,-1.04687 -1.6875,-1.04688 -2.5625,-2.84375 -0.875,-1.79688 -0.875,-3.8125 z m 2.0781,0.0312 q 0,2.76562 1.4844,4.35937 1.4843,1.57813 3.7343,1.57813 2.2813,0 3.75,-1.59375 1.4688,-1.60938 1.4688,-4.5625 0,-1.85938 -0.6406,-3.25 -0.625,-1.39063 -1.8438,-2.15625 -1.2031,-0.76563 -2.7031,-0.76563 -2.1563,0 -3.7031,1.48438 -1.5469,1.46875 -1.5469,4.90625 z m 14.8866,11.64062 v -15.29682 h 1.7031 v 1.4375 q 0.6094,-0.84375 1.3594,-1.26563 0.7656,-0.42187 1.8593,-0.42187 1.4063,0 2.4844,0.73437 1.0938,0.71875 1.6406,2.04688 0.5469,1.32812 0.5469,2.92187 0,1.6875 -0.6094,3.04688 -0.5937,1.35937 -1.7656,2.09375 -1.1562,0.71875 -2.4375,0.71875 -0.9375,0 -1.6875,-0.39063 -0.7344,-0.40625 -1.2187,-1 v 5.375 z m 1.7031,-9.70312 q 0,2.14062 0.8594,3.15625 0.8593,1.01562 2.0937,1.01562 1.25,0 2.1406,-1.04687 0.8907,-1.0625 0.8907,-3.28125 0,-2.10938 -0.875,-3.15625 -0.8594,-1.0625 -2.0782,-1.0625 -1.1875,0 -2.1093,1.125 -0.9219,1.10937 -0.9219,3.25 z m 17.7367,1.90625 1.9219,0.23437 q -0.4532,1.70313 -1.6875,2.64063 -1.2344,0.9375 -3.1719,0.9375 -2.4219,0 -3.8438,-1.48438 -1.4218,-1.5 -1.4218,-4.20312 0,-2.79688 1.4375,-4.32813 1.4375,-1.54687 3.7343,-1.54687 2.2188,0 3.6094,1.51562 1.4063,1.5 1.4063,4.25 0,0.15625 0,0.5 h -8.25 q 0.1093,1.8125 1.0312,2.78125 0.9219,0.96875 2.3125,0.96875 1.0313,0 1.75,-0.53125 0.7344,-0.54687 1.1719,-1.73437 z m -6.1563,-3.03125 h 6.1719 q -0.125,-1.39063 -0.7031,-2.09375 -0.9063,-1.07813 -2.3281,-1.07813 -1.2969,0 -2.1719,0.85938 -0.875,0.85937 -0.9688,2.3125 z m 10.4242,6.59375 v -11.0625 h 1.6875 v 1.67187 q 0.6407,-1.17187 1.1875,-1.54687 0.5469,-0.375 1.2032,-0.375 0.9531,0 1.9218,0.60937 l -0.6406,1.73438 q -0.6875,-0.40625 -1.375,-0.40625 -0.6094,0 -1.1094,0.375 -0.4843,0.35937 -0.6875,1.01562 -0.3125,1 -0.3125,2.1875 v 5.79688 z m 14.3369,-1.35938 q -1.0469,0.875 -2.0157,1.25 -0.9531,0.35938 -2.0625,0.35938 -1.8125,0 -2.7968,-0.89063 -0.9844,-0.89062 -0.9844,-2.28125 0,-0.8125 0.375,-1.48437 0.375,-0.67188 0.9687,-1.07813 0.5938,-0.40625 1.3438,-0.60937 0.5625,-0.14063 1.6719,-0.28125 2.2656,-0.26563 3.3437,-0.64063 0.016,-0.39062 0.016,-0.5 0,-1.14062 -0.5312,-1.60937 -0.7188,-0.64063 -2.1407,-0.64063 -1.3281,0 -1.9531,0.46875 -0.625,0.46875 -0.9375,1.64063 l -1.8281,-0.25 q 0.25,-1.17188 0.8125,-1.89063 0.5781,-0.73437 1.6562,-1.125 1.0938,-0.39062 2.5157,-0.39062 1.4218,0 2.2968,0.34375 0.8907,0.32812 1.3125,0.82812 0.4219,0.5 0.5782,1.28125 0.094,0.46875 0.094,1.71875 v 2.5 q 0,2.625 0.125,3.3125 0.125,0.6875 0.4687,1.32813 h -1.9531 q -0.2969,-0.57813 -0.375,-1.35938 z m -0.1563,-4.1875 q -1.0156,0.40625 -3.0625,0.70313 -1.1562,0.17187 -1.6406,0.375 -0.4688,0.20312 -0.7344,0.60937 -0.2656,0.40625 -0.2656,0.89063 0,0.75 0.5625,1.25 0.5781,0.5 1.6719,0.5 1.0781,0 1.9218,-0.46875 0.8438,-0.48438 1.25,-1.29688 0.2969,-0.64062 0.2969,-1.875 z m 8.8929,3.875 0.2656,1.65625 q -0.7812,0.15625 -1.4062,0.15625 -1.0313,0 -1.5938,-0.3125 -0.5625,-0.32812 -0.7968,-0.84375 -0.2188,-0.53125 -0.2188,-2.21875 v -6.375 h -1.3749 v -1.45312 h 1.3749 v -2.73438 l 1.8594,-1.125 v 3.85938 h 1.8906 v 1.45312 h -1.8906 v 6.46875 q 0,0.8125 0.094,1.04688 0.1094,0.21875 0.3281,0.35937 0.2344,0.125 0.6407,0.125 0.3125,0 0.8281,-0.0625 z m 1.1288,-3.85937 q 0,-3.07813 1.7188,-4.54688 1.4218,-1.23437 3.4687,-1.23437 2.2813,0 3.7188,1.5 1.4531,1.48437 1.4531,4.125 0,2.14062 -0.6406,3.35937 -0.625,1.21875 -1.8594,1.90625 -1.2188,0.67188 -2.6719,0.67188 -2.3125,0 -3.75,-1.48438 -1.4375,-1.5 -1.4375,-4.29687 z m 1.9375,0 q 0,2.125 0.9219,3.1875 0.9219,1.04687 2.3281,1.04687 1.4063,0 2.3281,-1.0625 0.9219,-1.0625 0.9219,-3.23437 0,-2.04688 -0.9375,-3.10938 -0.9219,-1.0625 -2.3125,-1.0625 -1.4062,0 -2.3281,1.0625 -0.9219,1.04688 -0.9219,3.17188 z m 10.6117,5.53125 v -11.0625 h 1.6875 v 1.67187 q 0.6406,-1.17187 1.1875,-1.54687 0.5469,-0.375 1.2031,-0.375 0.9532,0 1.9219,0.60937 l -0.6406,1.73438 q -0.6875,-0.40625 -1.375,-0.40625 -0.6094,0 -1.1094,0.375 -0.4844,0.35937 -0.6875,1.01562 -0.3125,1 -0.3125,2.1875 v 5.79688 z"
           fill-rule="nonzero"
           id="path119"
           style="fill:#ffffff" />
        <path
           fill="#000000"
           d="m 486.61471,142.94969 q -1.3594,-1.70313 -2.2969,-4 -0.9375,-2.29688 -0.9375,-4.76563 0,-2.15625 0.7032,-4.14062 0.8281,-2.3125 2.5312,-4.59375 h 1.1719 q -1.0938,1.89062 -1.4531,2.70312 -0.5469,1.25 -0.875,2.625 -0.3907,1.70313 -0.3907,3.42188 0,4.375 2.7188,8.75 z m 5.6189,-3.92188 -3.5312,-13.35937 h 1.8125 l 2.0312,8.76562 q 0.3282,1.375 0.5625,2.71875 0.5,-2.14062 0.5938,-2.46875 l 2.5469,-9.01562 h 2.125 l 1.9218,6.76562 q 0.7188,2.51563 1.0313,4.71875 0.2656,-1.26562 0.6719,-2.89062 l 2.0937,-8.59375 h 1.7813 l -3.6719,13.35937 h -1.7031 l -2.8125,-10.17187 q -0.3594,-1.28125 -0.4219,-1.5625 -0.2031,0.90625 -0.3906,1.5625 l -2.8282,10.17187 z m 20.6972,-1.1875 q -0.9218,0.76563 -1.7656,1.09375 -0.8281,0.3125 -1.7969,0.3125 -1.5937,0 -2.4531,-0.78125 -0.8594,-0.78125 -0.8594,-1.98437 0,-0.71875 0.3282,-1.29688 0.3281,-0.59375 0.8437,-0.9375 0.5313,-0.35937 1.1875,-0.54687 0.4688,-0.125 1.4531,-0.25 1.9844,-0.23438 2.9219,-0.5625 0.016,-0.34375 0.016,-0.42188 0,-1 -0.4687,-1.42187 -0.625,-0.54688 -1.875,-0.54688 -1.1563,0 -1.7032,0.40625 -0.5468,0.40625 -0.8125,1.42188 l -1.6093,-0.21875 q 0.2187,-1.01563 0.7187,-1.64063 0.5,-0.64062 1.4531,-0.98437 0.9532,-0.34375 2.1875,-0.34375 1.25,0 2.0157,0.29687 0.7812,0.28125 1.1406,0.73438 0.375,0.4375 0.5156,1.10937 0.078,0.42188 0.078,1.51563 v 2.1875 q 0,2.28125 0.1094,2.89062 0.1094,0.59375 0.4062,1.15625 h -1.7031 q -0.2656,-0.51562 -0.3281,-1.1875 z m -0.1406,-3.67187 q -0.8906,0.375 -2.6719,0.625 -1.0156,0.14062 -1.4375,0.32812 -0.4218,0.1875 -0.6562,0.53125 -0.2188,0.34375 -0.2188,0.78125 0,0.65625 0.5,1.09375 0.5,0.4375 1.4532,0.4375 0.9375,0 1.6718,-0.40625 0.75,-0.42187 1.0938,-1.14062 0.2656,-0.5625 0.2656,-1.64063 z m 7.782,3.39062 0.2343,1.45313 q -0.6875,0.14062 -1.2343,0.14062 -0.8907,0 -1.3907,-0.28125 -0.4843,-0.28125 -0.6875,-0.73437 -0.2031,-0.46875 -0.2031,-1.9375 v -5.57813 h -1.2031 v -1.26562 h 1.2031 v -2.39063 l 1.625,-0.98437 v 3.375 h 1.6563 v 1.26562 h -1.6563 v 5.67188 q 0,0.6875 0.078,0.89062 0.094,0.20313 0.2813,0.32813 0.2031,0.10937 0.5781,0.10937 0.2656,0 0.7187,-0.0625 z m 7.9177,-2.07812 1.6093,0.21875 q -0.2656,1.65625 -1.3593,2.60937 -1.0782,0.9375 -2.6719,0.9375 -1.9844,0 -3.1875,-1.29687 -1.2031,-1.29688 -1.2031,-3.71875 0,-1.57813 0.5156,-2.75 0.5156,-1.17188 1.5781,-1.75 1.0625,-0.59375 2.3125,-0.59375 1.5781,0 2.5781,0.79687 1,0.79688 1.2813,2.26563 l -1.5938,0.23437 q -0.2343,-0.96875 -0.8125,-1.45312 -0.5781,-0.5 -1.3906,-0.5 -1.2344,0 -2.0156,0.89062 -0.7813,0.89063 -0.7813,2.8125 0,1.95313 0.75,2.84375 0.75,0.875 1.9532,0.875 0.9687,0 1.6093,-0.59375 0.6563,-0.59375 0.8282,-1.82812 z m 3.0156,3.54687 v -13.35937 h 1.6406 v 4.79687 q 1.1406,-1.32812 2.8906,-1.32812 1.0782,0 1.8594,0.42187 0.7969,0.42188 1.1406,1.17188 0.3438,0.75 0.3438,2.17187 v 6.125 h -1.6406 v -6.125 q 0,-1.23437 -0.5313,-1.79687 -0.5312,-0.5625 -1.5156,-0.5625 -0.7188,0 -1.3594,0.39062 -0.6406,0.375 -0.9219,1.01563 -0.2656,0.64062 -0.2656,1.78125 v 5.29687 z m 17.0007,-3.10937 1.6875,0.20312 q -0.4063,1.48438 -1.4844,2.3125 -1.0781,0.8125 -2.7656,0.8125 -2.125,0 -3.375,-1.29687 -1.2344,-1.3125 -1.2344,-3.67188 0,-2.45312 1.25,-3.79687 1.2656,-1.34375 3.2656,-1.34375 1.9375,0 3.1563,1.32812 1.2344,1.3125 1.2344,3.70313 0,0.15625 0,0.4375 h -7.2188 q 0.094,1.59375 0.9063,2.45312 0.8125,0.84375 2.0156,0.84375 0.9062,0 1.5469,-0.46875 0.6406,-0.48437 1.0156,-1.51562 z m -5.3906,-2.65625 h 5.4062 q -0.1094,-1.21875 -0.625,-1.82813 -0.7812,-0.95312 -2.0312,-0.95312 -1.125,0 -1.9063,0.76562 -0.7656,0.75 -0.8437,2.01563 z m 8.4851,2.875 1.625,-0.25 q 0.125,0.96875 0.75,1.5 0.625,0.51562 1.75,0.51562 1.125,0 1.6718,-0.45312 0.5469,-0.46875 0.5469,-1.09375 0,-0.54688 -0.4844,-0.875 -0.3281,-0.21875 -1.6718,-0.54688 -1.8125,-0.46875 -2.5157,-0.79687 -0.6875,-0.32813 -1.0468,-0.90625 -0.3594,-0.59375 -0.3594,-1.3125 0,-0.64063 0.2969,-1.1875 0.2968,-0.5625 0.8125,-0.92188 0.375,-0.28125 1.0312,-0.46875 0.6719,-0.20312 1.4219,-0.20312 1.1406,0 2,0.32812 0.8594,0.32813 1.2656,0.89063 0.4219,0.5625 0.5781,1.5 l -1.6093,0.21875 q -0.1094,-0.75 -0.6407,-1.17188 -0.5156,-0.42187 -1.4687,-0.42187 -1.1406,0 -1.625,0.375 -0.4688,0.375 -0.4688,0.875 0,0.3125 0.1875,0.57812 0.2032,0.26563 0.6407,0.4375 0.2343,0.0937 1.4375,0.42188 1.75,0.45312 2.4375,0.75 0.6875,0.29687 1.0781,0.85937 0.3906,0.5625 0.3906,1.40625 0,0.82813 -0.4844,1.54688 -0.4687,0.71875 -1.375,1.125 -0.9062,0.39062 -2.0468,0.39062 -1.875,0 -2.875,-0.78125 -0.9844,-0.78125 -1.25,-2.32812 z m 21.7927,-0.21875 1.6875,0.20312 q -0.4063,1.48438 -1.4844,2.3125 -1.0781,0.8125 -2.7657,0.8125 -2.125,0 -3.375,-1.29687 -1.2343,-1.3125 -1.2343,-3.67188 0,-2.45312 1.25,-3.79687 1.2656,-1.34375 3.2656,-1.34375 1.9375,0 3.1563,1.32812 1.2343,1.3125 1.2343,3.70313 0,0.15625 0,0.4375 h -7.2187 q 0.094,1.59375 0.9062,2.45312 0.8125,0.84375 2.0156,0.84375 0.9063,0 1.5469,-0.46875 0.6407,-0.48437 1.0157,-1.51562 z m -5.3907,-2.65625 h 5.4063 q -0.1094,-1.21875 -0.625,-1.82813 -0.7813,-0.95312 -2.0313,-0.95312 -1.125,0 -1.9062,0.76562 -0.7657,0.75 -0.8438,2.01563 z m 11.8288,5.76562 -3.6875,-9.67187 h 1.7344 l 2.0781,5.79687 q 0.3282,0.9375 0.625,1.9375 0.2032,-0.76562 0.6094,-1.82812 l 2.1406,-5.90625 h 1.6875 l -3.6562,9.67187 z m 13.2657,-3.10937 1.6875,0.20312 q -0.4063,1.48438 -1.4844,2.3125 -1.0781,0.8125 -2.7656,0.8125 -2.125,0 -3.375,-1.29687 -1.2344,-1.3125 -1.2344,-3.67188 0,-2.45312 1.25,-3.79687 1.2656,-1.34375 3.2656,-1.34375 1.9375,0 3.1563,1.32812 1.2343,1.3125 1.2343,3.70313 0,0.15625 0,0.4375 h -7.2187 q 0.094,1.59375 0.9062,2.45312 0.8125,0.84375 2.0157,0.84375 0.9062,0 1.5468,-0.46875 0.6407,-0.48437 1.0157,-1.51562 z m -5.3907,-2.65625 h 5.4063 q -0.1094,-1.21875 -0.625,-1.82813 -0.7813,-0.95312 -2.0313,-0.95312 -1.125,0 -1.9062,0.76562 -0.7656,0.75 -0.8438,2.01563 z m 9.1414,5.76562 v -9.67187 h 1.4687 v 1.375 q 1.0625,-1.59375 3.0782,-1.59375 0.875,0 1.6093,0.3125 0.7344,0.3125 1.0938,0.82812 0.375,0.5 0.5156,1.20313 0.094,0.45312 0.094,1.59375 v 5.95312 h -1.6406 v -5.89062 q 0,-1 -0.2031,-1.48438 -0.1875,-0.5 -0.6719,-0.79687 -0.4844,-0.29688 -1.1406,-0.29688 -1.0469,0 -1.8125,0.67188 -0.75,0.65625 -0.75,2.51562 v 5.28125 z m 13.9538,-1.46875 0.2344,1.45313 q -0.6875,0.14062 -1.2344,0.14062 -0.8906,0 -1.3906,-0.28125 -0.4844,-0.28125 -0.6875,-0.73437 -0.2031,-0.46875 -0.2031,-1.9375 v -5.57813 h -1.2031 v -1.26562 h 1.2031 v -2.39063 l 1.625,-0.98437 v 3.375 h 1.6562 v 1.26562 h -1.6562 v 5.67188 q 0,0.6875 0.078,0.89062 0.094,0.20313 0.2812,0.32813 0.2032,0.10937 0.5782,0.10937 0.2656,0 0.7187,-0.0625 z m 0.949,-1.42187 1.625,-0.25 q 0.125,0.96875 0.75,1.5 0.625,0.51562 1.75,0.51562 1.125,0 1.6718,-0.45312 0.5469,-0.46875 0.5469,-1.09375 0,-0.54688 -0.4844,-0.875 -0.3281,-0.21875 -1.6718,-0.54688 -1.8125,-0.46875 -2.5157,-0.79687 -0.6875,-0.32813 -1.0468,-0.90625 -0.3594,-0.59375 -0.3594,-1.3125 0,-0.64063 0.2969,-1.1875 0.2968,-0.5625 0.8125,-0.92188 0.375,-0.28125 1.0312,-0.46875 0.6719,-0.20312 1.4219,-0.20312 1.1406,0 2,0.32812 0.8594,0.32813 1.2656,0.89063 0.4219,0.5625 0.5781,1.5 l -1.6093,0.21875 q -0.1094,-0.75 -0.6407,-1.17188 -0.5156,-0.42187 -1.4687,-0.42187 -1.1406,0 -1.625,0.375 -0.4688,0.375 -0.4688,0.875 0,0.3125 0.1875,0.57812 0.2032,0.26563 0.6407,0.4375 0.2343,0.0937 1.4375,0.42188 1.75,0.45312 2.4375,0.75 0.6875,0.29687 1.0781,0.85937 0.3906,0.5625 0.3906,1.40625 0,0.82813 -0.4844,1.54688 -0.4687,0.71875 -1.375,1.125 -0.9062,0.39062 -2.0468,0.39062 -1.875,0 -2.875,-0.78125 -0.9844,-0.78125 -1.25,-2.32812 z m 11.0625,6.8125 h -1.1875 q 2.7343,-4.375 2.7343,-8.75 0,-1.71875 -0.3906,-3.39063 -0.3125,-1.375 -0.875,-2.625 -0.3594,-0.82812 -1.4687,-2.73437 h 1.1875 q 1.7031,2.28125 2.5312,4.59375 0.6875,1.98437 0.6875,4.14062 0,2.46875 -0.9375,4.76563 -0.9375,2.29687 -2.2812,4 z"
           fill-rule="nonzero"
           id="path121"
           style="fill:#ffffff" />
        <g
           id="g56550"
           transform="matrix(0.072,0,0,0.072,750.78551,44.838206)">
          <g
             id="g11341"
             transform="matrix(0.89041976,0,0,0.89041976,-283.3104,540.58101)">
            <g
               id="g60222">
              <path
                 sodipodi:type="star"
                 style="fill:#4d8b15;fill-opacity:1;stroke-width:10;stroke-linecap:square;stop-color:#000000"
                 id="path354-7-9-3-9-8-3"
                 inkscape:flatsided="false"
                 sodipodi:sides="6"
                 sodipodi:cx="465.93665"
                 sodipodi:cy="-872.64856"
                 sodipodi:r1="299.99118"
                 sodipodi:r2="346.41016"
                 sodipodi:arg1="0.52359878"
                 sodipodi:arg2="1.0471976"
                 inkscape:rounded="0"
                 inkscape:randomized="0"
                 transform="matrix(1.158597,0,0,1.1230658,179.69319,709.85351)"
                 d="m 725.73663,-722.65297 -86.59492,150.00441 -173.20507,-0.009 -173.20509,0.009 -86.59489,-150.0044 -86.61017,-149.99561 86.61017,-149.99562 86.59492,-150.0044 173.20507,0.01 173.20509,-0.01 86.59489,150.0044 86.61017,149.99556 z" />
              <g
                 id="g11614"
                 transform="matrix(1.1935196,0,0,1.1935196,1209.8905,-203.2575)">
                <path
                   style="fill:#ffffff;stroke:#ffffff;stroke-width:1px;stroke-linecap:butt;stroke-linejoin:miter;stroke-opacity:1"
                   d="m -372.38808,-226.84742 -6.74085,-56.57991 -64.85893,-0.24222 -5.54951,56.62232 -0.20546,12.48168 h 77.54325 z"
                   id="path265"
                   sodipodi:nodetypes="ccccccc" />
                <path
                   style="fill:#ffffff;stroke:#ffffff;stroke-width:1px;stroke-linecap:butt;stroke-linejoin:miter;stroke-opacity:1"
                   d="m -262.40038,-149.7606 35.24155,-44.77453 -45.69092,-46.03347 -43.96212,36.11393 -8.97116,8.6806 54.83135,54.83135 z"
                   id="path402"
                   sodipodi:nodetypes="ccccccc" />
                <path
                   style="fill:#ffffff;stroke:#ffffff;stroke-width:1px;stroke-linecap:butt;stroke-linejoin:miter;stroke-opacity:1"
                   d="m -239.86293,-17.012523 56.57991,-6.740839 0.24223,-64.858935 -56.62232,-5.549511 -12.48169,-0.205459 1e-5,77.543242 z"
                   id="path503"
                   sodipodi:nodetypes="ccccccc" />
                <path
                   style="fill:#ffffff;stroke:#ffffff;stroke-width:1px;stroke-linecap:butt;stroke-linejoin:miter;stroke-opacity:1"
                   d="m -316.76776,92.841553 44.77453,35.241517 46.03347,-45.690887 -36.11393,-43.962122 -8.6806,-8.971163 -54.83134,54.831358 z"
                   id="path505"
                   sodipodi:nodetypes="ccccccc" />
                <path
                   style="fill:#ffffff;stroke:#ffffff;stroke-width:1px;stroke-linecap:butt;stroke-linejoin:miter;stroke-opacity:1"
                   d="m -449.5549,114.69049 6.74087,56.57989 64.85892,0.24225 5.5495,-56.62232 0.20547,-12.48165 -77.54326,1e-5 z"
                   id="path507"
                   sodipodi:nodetypes="ccccccc" />
                <path
                   style="fill:#ffffff;stroke:#ffffff;stroke-width:1px;stroke-linecap:butt;stroke-linejoin:miter;stroke-opacity:1"
                   d="m -559.5699,38.278585 -35.24153,44.774537 45.69089,46.033468 43.96212,-36.113918 8.97115,-8.680586 -54.83138,-54.831347 z"
                   id="path509"
                   sodipodi:nodetypes="ccccccc" />
                <path
                   style="fill:#ffffff;stroke:#ffffff;stroke-width:1px;stroke-linecap:butt;stroke-linejoin:miter;stroke-opacity:1"
                   d="m -581.8487,-94.179331 -56.5799,6.74087 -0.24225,64.858917 56.62232,5.549516 12.48166,0.205442 -3e-5,-77.543246 z"
                   id="path511"
                   sodipodi:nodetypes="ccccccc" />
                <path
                   style="fill:#ffffff;stroke:#ffffff;stroke-width:1px;stroke-linecap:butt;stroke-linejoin:miter;stroke-opacity:1"
                   d="m -504.94502,-204.46605 -44.77454,-35.24152 -46.03347,45.69089 36.11393,43.96211 8.68057,8.97114 54.83134,-54.83136 z"
                   id="path513"
                   sodipodi:nodetypes="ccccccc" />
                <circle
                   style="fill:none;stroke:#ffffff;stroke-width:70;stroke-miterlimit:4;stroke-dasharray:none;stroke-opacity:1"
                   id="path704"
                   cx="-410.80356"
                   cy="-56.708004"
                   r="140.18617" />
              </g>
            </g>
          </g>
        </g>
      </g>
    </g>
  </g>
  <style
     type="text/css"
     id="style406">
	.st0{clip-path:url(#SVGID_2_);fill:#DC4637;}
	.st1{opacity:0.2;clip-path:url(#SVGID_4_);enable-background:new    ;}
	.st2{clip-path:url(#SVGID_6_);}
	.st3{clip-path:url(#SVGID_4_);fill:#557EBF;}
	.st4{opacity:0.2;clip-path:url(#SVGID_10_);enable-background:new    ;}
	.st5{clip-path:url(#SVGID_12_);fill:#2D3079;}
	.st6{opacity:0.2;clip-path:url(#SVGID_14_);enable-background:new    ;}
	.st7{clip-path:url(#SVGID_16_);fill:#FFFFFF;}
	.st8{opacity:0.2;clip-path:url(#SVGID_18_);enable-background:new    ;}
	.st9{clip-path:url(#SVGID_20_);fill:#3E2823;}
	.st10{opacity:0.2;clip-path:url(#SVGID_22_);enable-background:new    ;}
	.st11{clip-path:url(#SVGID_24_);fill:#FFFFFF;}
	.st12{filter:url(#Adobe_OpacityMaskFilter);}
	.st13{clip-path:url(#SVGID_26_);fill:url(#SVGID_28_);}
	.st14{clip-path:url(#SVGID_26_);mask:url(#SVGID_27_);fill:url(#SVGID_29_);}
	.st15{clip-path:url(#SVGID_31_);fill:#FDC113;}
	.st16{opacity:0.2;clip-path:url(#SVGID_33_);enable-background:new    ;}
	.st17{clip-path:url(#SVGID_35_);}
	.st18{clip-path:url(#SVGID_33_);fill:#0F9D58;}
	.st19{opacity:0.2;clip-path:url(#SVGID_39_);enable-background:new    ;}
	.st20{clip-path:url(#SVGID_41_);fill:#FFFFFF;}
	.st21{opacity:0.2;clip-path:url(#SVGID_43_);enable-background:new    ;}
	.st22{clip-path:url(#SVGID_45_);fill:#FFFFFF;}
	.st23{opacity:0.2;clip-path:url(#SVGID_47_);enable-background:new    ;}
	.st24{clip-path:url(#SVGID_49_);fill:#273339;}
	.st25{filter:url(#Adobe_OpacityMaskFilter_1_);}
	.st26{clip-path:url(#SVGID_51_);fill:url(#SVGID_53_);}
	.st27{clip-path:url(#SVGID_51_);mask:url(#SVGID_52_);fill:url(#SVGID_54_);}
</style>
</svg>
