<?xml version="1.0" encoding="UTF-8" standalone="no"?>
<svg
   width="1280"
   height="640"
   viewBox="0 0 1280 640"
   version="1.1"
   id="svg34"
   sodipodi:docname="priming-effect.svg"
   inkscape:version="1.2.2 (b0a8486541, 2022-12-01)"
   inkscape:export-filename="../priming-effect.png"
   inkscape:export-xdpi="96"
   inkscape:export-ydpi="96"
   xml:space="preserve"
   xmlns:inkscape="http://www.inkscape.org/namespaces/inkscape"
   xmlns:sodipodi="http://sodipodi.sourceforge.net/DTD/sodipodi-0.dtd"
   xmlns="http://www.w3.org/2000/svg"
   xmlns:svg="http://www.w3.org/2000/svg"><defs
     id="defs38"><marker
       style="overflow:visible"
       id="marker19882"
       refX="0"
       refY="0"
       orient="auto"
       inkscape:stockid="SquareS"
       inkscape:isstock="true"><path
         transform="scale(0.2)"
         style="fill:context-stroke;fill-rule:evenodd;stroke:context-stroke;stroke-width:1pt"
         d="M -5,-5 V 5 H 5 V -5 Z"
         id="path19880" /></marker><marker
       style="overflow:visible"
       id="marker19882-6"
       refX="0"
       refY="0"
       orient="auto"
       inkscape:stockid="SquareS"
       inkscape:isstock="true"><path
         transform="scale(0.2)"
         style="fill:context-stroke;fill-rule:evenodd;stroke:context-stroke;stroke-width:1pt"
         d="M -5,-5 V 5 H 5 V -5 Z"
         id="path19880-0" /></marker><marker
       style="overflow:visible"
       id="marker19882-2"
       refX="0"
       refY="0"
       orient="auto"
       inkscape:stockid="SquareS"
       inkscape:isstock="true"><path
         transform="scale(0.2)"
         style="fill:context-stroke;fill-rule:evenodd;stroke:context-stroke;stroke-width:1pt"
         d="M -5,-5 V 5 H 5 V -5 Z"
         id="path19880-6" /></marker><marker
       style="overflow:visible"
       id="marker19882-8"
       refX="0"
       refY="0"
       orient="auto"
       inkscape:stockid="SquareS"
       inkscape:isstock="true"><path
         transform="scale(0.2)"
         style="fill:context-stroke;fill-rule:evenodd;stroke:context-stroke;stroke-width:1pt"
         d="M -5,-5 V 5 H 5 V -5 Z"
         id="path19880-7" /></marker><marker
       style="overflow:visible"
       id="marker19882-20"
       refX="0"
       refY="0"
       orient="auto"
       inkscape:stockid="SquareS"
       inkscape:isstock="true"><path
         transform="scale(0.2)"
         style="fill:context-stroke;fill-rule:evenodd;stroke:context-stroke;stroke-width:1pt"
         d="M -5,-5 V 5 H 5 V -5 Z"
         id="path19880-2" /></marker></defs><sodipodi:namedview
     id="namedview36"
     pagecolor="#ffffff"
     bordercolor="#000000"
     borderopacity="0.25"
     inkscape:pageshadow="2"
     inkscape:pageopacity="0.0"
     inkscape:pagecheckerboard="true"
     showgrid="false"
     inkscape:zoom="2.6859177"
     inkscape:cx="946.79"
     inkscape:cy="461.85332"
     inkscape:window-width="1680"
     inkscape:window-height="981"
     inkscape:window-x="0"
     inkscape:window-y="0"
     inkscape:window-maximized="1"
     inkscape:current-layer="svg34"
     showguides="true"
     inkscape:guide-bbox="true"
     inkscape:snap-global="false"
     fit-margin-top="0"
     fit-margin-left="0"
     fit-margin-right="0"
     fit-margin-bottom="0"
     inkscape:showpageshadow="2"
     inkscape:deskcolor="#d1d1d1"><sodipodi:guide
       position="1198.8744,526.30293"
       orientation="1,0"
       id="guide2364"
       inkscape:locked="false" /><sodipodi:guide
       position="78.791587,387.70683"
       orientation="1,0"
       id="guide2366"
       inkscape:locked="false" /><sodipodi:guide
       position="603.47684,561.65908"
       orientation="0,-1"
       id="guide2368"
       inkscape:locked="false" /><sodipodi:guide
       position="528.52181,75.158462"
       orientation="0,-1"
       id="guide2370"
       inkscape:locked="false" /><sodipodi:guide
       position="373.05035,339.4402"
       orientation="1,0"
       id="guide418"
       inkscape:locked="false" /><sodipodi:guide
       position="906.94879,342.49892"
       orientation="1,0"
       id="guide420"
       inkscape:locked="false" /><sodipodi:guide
       position="769.33217,340.89383"
       orientation="0,-1"
       id="guide686"
       inkscape:locked="false" /><sodipodi:guide
       position="774.98903,285.0324"
       orientation="0,-1"
       id="guide688"
       inkscape:locked="false" /><sodipodi:guide
       position="769.33217,130.88312"
       orientation="0,-1"
       id="guide690"
       inkscape:locked="false" /><sodipodi:guide
       position="718.06694,149.35628"
       orientation="1,0"
       id="guide2739"
       inkscape:locked="false" /><sodipodi:guide
       position="790.82764,316.19678"
       orientation="1,0"
       id="guide4644"
       inkscape:locked="false" /><sodipodi:guide
       position="483.66104,105.9576"
       orientation="1,0"
       id="guide4721"
       inkscape:locked="false" /><sodipodi:guide
       position="107.22335,113.13225"
       orientation="1,0"
       id="guide4916"
       inkscape:locked="false" /><sodipodi:guide
       position="862.46294,123.37218"
       orientation="1,0"
       id="guide5282"
       inkscape:locked="false" /><sodipodi:guide
       position="1173.25,271.5"
       orientation="1,0"
       id="guide5599"
       inkscape:locked="false" /><sodipodi:guide
       position="414.91455,294.74072"
       orientation="1,0"
       id="guide5828"
       inkscape:locked="false" /><sodipodi:guide
       position="112.51837,128.23147"
       orientation="0,-1"
       id="guide493"
       inkscape:locked="false" /><sodipodi:guide
       position="1171.6875,282.9375"
       orientation="0,-1"
       id="guide665"
       inkscape:locked="false" /></sodipodi:namedview><rect
     style="opacity:1;fill:#ffffff;stroke-width:1.12226;stroke-opacity:0"
     id="rect2132"
     width="1280"
     height="640"
     x="0"
     y="0"
     inkscape:export-filename="priming-effect.png"
     inkscape:export-xdpi="96"
     inkscape:export-ydpi="96" /><text
     xml:space="preserve"
     style="font-style:normal;font-weight:normal;font-size:40px;line-height:1.25;font-family:sans-serif;fill:#000000;fill-opacity:1;stroke:none"
     x="1566.2191"
     y="537.1803"
     id="text24733"><tspan
       sodipodi:role="line"
       id="tspan24731"
       x="1566.2191"
       y="537.1803" /></text><g
     id="g7133"
     transform="translate(8.6239023,297.23193)"><rect
       style="fill:#559e11;fill-opacity:1;stroke-width:0.646144;stroke-opacity:0"
       id="rect64126-6"
       width="1280"
       height="193.85544"
       x="-8.6239023"
       y="-297.23193"
       inkscape:export-filename="devops-implementations.png"
       inkscape:export-xdpi="96"
       inkscape:export-ydpi="96" /><text
       xml:space="preserve"
       style="font-style:normal;font-weight:normal;font-size:42.6667px;line-height:1.25;font-family:sans-serif;fill:#ffffff;fill-opacity:1;stroke:none;stroke-width:1.99572"
       x="492.53864"
       y="-173.6962"
       id="text7142-2-2-7"
       inkscape:export-filename="devops-implementations.png"
       inkscape:export-xdpi="96"
       inkscape:export-ydpi="96"><tspan
         sodipodi:role="line"
         id="tspan7140-9-0-5"
         x="492.53864"
         y="-173.6962"
         style="font-style:normal;font-variant:normal;font-weight:normal;font-stretch:normal;font-size:42.6667px;font-family:Ubuntu;-inkscape-font-specification:Ubuntu;fill:#ffffff;stroke-width:1.99572">Priming Effect</tspan></text></g><path
     style="fill:#fcaf3e;fill-opacity:1;stroke-width:1.6"
     inkscape:connector-curvature="0"
     id="path606"
     d="m 552.1143,242.15858 c -8.84803,0 -16.00004,7.152 -16.00004,16 0,8.848 7.15201,16 16.00004,16 8.84796,0 15.99994,-7.152 15.99994,-16 0,-8.848 -7.15198,-16 -15.99994,-16 z m 0,28.8 c -7.05604,0 -12.80004,-5.744 -12.80004,-12.8 0,-7.056 5.744,-12.8 12.80004,-12.8 7.056,0 12.79996,5.744 12.79996,12.8 0,7.056 -5.74396,12.8 -12.79996,12.8 z"
     sodipodi:nodetypes="ssssssssss" /><text
     id="text610"
     y="268.44675"
     x="658.23578"
     style="font-style:normal;font-weight:normal;font-size:29.7724px;line-height:1.25;font-family:sans-serif;letter-spacing:0px;word-spacing:0px;display:inline;fill:#272727;fill-opacity:1;stroke:none;stroke-width:0.844586"
     xml:space="preserve"><tspan
       style="font-style:normal;font-variant:normal;font-weight:normal;font-stretch:normal;font-size:29.7724px;font-family:Ubuntu;-inkscape-font-specification:Ubuntu;text-align:center;text-anchor:middle;fill:#000000;fill-opacity:1;stroke-width:0.844586"
       y="268.44675"
       x="658.23578"
       sodipodi:role="line"
       id="tspan608">With a Peer</tspan></text><text
     id="text610-9"
     y="268.68982"
     x="552.09631"
     style="font-style:normal;font-weight:normal;font-size:35.7597px;line-height:1.25;font-family:sans-serif;letter-spacing:0px;word-spacing:0px;display:inline;fill:#272727;fill-opacity:1;stroke:#fcaf3e;stroke-width:1.01444;stroke-opacity:1"
     xml:space="preserve"><tspan
       style="font-style:normal;font-variant:normal;font-weight:normal;font-stretch:normal;font-size:35.7597px;font-family:Ubuntu;-inkscape-font-specification:Ubuntu;text-align:center;text-anchor:middle;fill:#fcaf3e;fill-opacity:1;stroke:#fcaf3e;stroke-width:1.01444;stroke-opacity:1"
       y="268.68982"
       x="552.09631"
       sodipodi:role="line"
       id="tspan608-3">~</tspan></text><circle
     style="fill:#fcaf3e;fill-opacity:1;stroke:#fcaf3e;stroke-width:3.077;stroke-linecap:square;stroke-opacity:1;stop-color:#000000"
     id="circle4289"
     cx="790.85712"
     cy="357.06714"
     r="5.0591545" /><path
     id="path614"
     d="m 765.03131,373.29725 v 183.96283 c 0,2.95957 -2.39874,5.35831 -5.35831,5.35831 H 514.38962 c -2.95957,0 -5.35831,-2.39874 -5.35831,-5.35831 v -31.50272 c 0,-2.95958 2.39874,-5.35832 5.35831,-5.35832 2.95958,0 5.35832,2.39874 5.35832,5.35832 v 26.1444 h 50.60451 V 526.5998 c 0,-2.95957 2.39874,-5.35831 5.35831,-5.35831 2.95958,0 5.35832,2.39874 5.35832,5.35831 v 25.30196 h 173.2456 v -19.94364 h -55.96223 c -2.95958,0 -5.35831,-2.39874 -5.35831,-5.35832 0,-2.95957 2.39873,-5.35831 5.35831,-5.35831 h 55.96223 V 378.65556 h -25.30196 c -2.95957,0 -5.35831,-2.39874 -5.35831,-5.35831 0,-2.95958 2.39874,-5.35831 5.35831,-5.35831 H 759.673 c 2.95957,0 5.35831,2.39873 5.35831,5.35831 z M 575.71076,490.58062 c -2.95957,0 -5.35831,2.39874 -5.35831,5.35831 0,2.95958 2.39874,5.35832 5.35831,5.35832 h 61.32055 c 2.95958,0 5.35831,-2.39874 5.35831,-5.35832 V 439.9767 h 25.30256 c 2.95957,0 5.35831,-2.39873 5.35831,-5.35831 0,-2.95958 -2.39874,-5.35831 -5.35831,-5.35831 h -55.96223 v -25.30196 c 0,-2.95958 -2.39874,-5.35832 -5.35832,-5.35832 -2.95957,0 -5.35831,2.39874 -5.35831,5.35832 v 25.30196 h -25.30256 c -2.95957,0 -5.35831,2.39873 -5.35831,5.35831 0,2.95958 2.39874,5.35831 5.35831,5.35831 H 631.673 v 50.60392 z M 759.673,306.61839 H 514.38962 c -2.95957,0 -5.35831,2.39874 -5.35831,5.35831 v 183.96223 c 0,2.95958 2.39874,5.35832 5.35831,5.35832 h 25.30196 v 25.30077 c 0,2.95957 2.39874,5.35831 5.35832,5.35831 2.95957,0 5.35831,-2.39874 5.35831,-5.35831 v -55.96104 h 55.96342 c 2.95958,0 5.35832,-2.39874 5.35832,-5.35832 0,-2.95957 -2.39874,-5.35831 -5.35832,-5.35831 h -55.96342 v -25.30196 c 0,-2.95958 -2.39874,-5.35831 -5.35831,-5.35831 -2.95958,0 -5.35832,2.39873 -5.35832,5.35831 v 55.96223 H 519.74794 V 378.65556 h 25.30196 c 2.95957,0 5.35831,-2.39874 5.35831,-5.35831 0,-2.95958 -2.39874,-5.35831 -5.35831,-5.35831 h -25.30196 v -19.94365 h 50.60451 v 50.60451 h -26.10809 c -2.95957,0 -5.35831,2.39874 -5.35831,5.35832 0,2.95957 2.39874,5.35831 5.35831,5.35831 h 31.4664 c 2.95958,0 5.35832,-2.39874 5.35832,-5.35831 v -61.32114 c 0,-2.95958 -2.39874,-5.35832 -5.35832,-5.35832 h -55.96282 v -19.94364 h 81.26538 v 55.96223 c 0,2.95957 2.39874,5.35831 5.35831,5.35831 h 61.32055 c 2.95957,0 5.35831,-2.39874 5.35831,-5.35831 0,-2.95958 -2.39874,-5.35831 -5.35831,-5.35831 h -55.96223 v -50.60392 h 142.58473 v 19.94364 H 637.03131 c -2.95958,0 -5.35831,2.39874 -5.35831,5.35832 0,2.95957 2.39873,5.35831 5.35831,5.35831 h 55.96283 l 5.9e-4,50.60451 h -55.96342 c -2.95958,0 -5.35831,2.39874 -5.35831,5.35832 0,2.95957 2.39873,5.35831 5.35831,5.35831 h 55.96342 v 25.15312 c -10e-4,0.0494 -0.002,0.0988 -0.002,0.14884 0,0.05 5.9e-4,0.0994 0.002,0.14884 l 6e-4,30.51441 c 0,2.95957 2.39874,5.35831 5.35831,5.35831 h 25.30196 l -0.001,25.29839 c 0,2.95957 2.39874,5.35891 5.35772,5.35891 5.9e-4,0 5.9e-4,0 5.9e-4,0 2.95958,0 5.35832,-2.39874 5.35832,-5.35772 l 0.002,-30.65789 c 0,-1.42114 -0.56441,-2.78394 -1.56939,-3.78892 -1.00498,-1.00499 -2.36837,-1.56939 -3.78892,-1.56939 H 703.71195 V 439.9767 h 25.29958 c 1.42115,0 2.78394,-0.56441 3.78893,-1.56939 1.00498,-1.00498 1.56939,-2.36837 1.56939,-3.78892 l -0.001,-30.66027 c 0,-2.95958 -2.39934,-5.35832 -5.35832,-5.35832 -2.95957,0 -5.35831,2.39874 -5.35831,5.35832 l 10e-4,25.30196 h -19.94186 l -6e-4,-81.26479 H 759.673 c 2.95957,0 5.35831,-2.39874 5.35831,-5.35831 V 311.9767 c 0,-2.95957 -2.39874,-5.35831 -5.35831,-5.35831 z m -55.96224,189.32054 c 0,-2.95957 -2.39873,-5.35831 -5.35831,-5.35831 h -25.30136 l -6e-4,-25.30196 c 0,-2.95957 -2.39874,-5.35831 -5.35831,-5.35831 -2.95958,0 -5.35832,2.39874 -5.35832,5.35831 l 6e-4,30.5799 c -6e-4,0.0268 -6e-4,0.0536 -6e-4,0.0804 0,0.0268 0,0.0536 6e-4,0.0804 l 5.9e-4,25.22218 h -53.704 c -2.95957,0 -5.35831,2.39874 -5.35831,5.35831 0,2.95958 2.39874,5.35832 5.35831,5.35832 h 59.06232 c 1.42114,0 2.78394,-0.56441 3.78892,-1.56939 1.00498,-1.00499 1.56939,-2.36838 1.56939,-3.78893 l -5.9e-4,-25.30255 h 25.30136 c 2.95958,0 5.35831,-2.39874 5.35831,-5.35832 z"
     style="fill:#2e3436;fill-opacity:1;stroke-width:0.595368" /><text
     id="text620"
     y="544.09485"
     x="483.18384"
     style="font-style:normal;font-weight:normal;font-size:14.9471px;line-height:1.25;font-family:sans-serif;letter-spacing:0px;word-spacing:0px;display:inline;fill:#272727;fill-opacity:1;stroke:none;stroke-width:0.424022"
     xml:space="preserve"><tspan
       style="font-style:normal;font-variant:normal;font-weight:500;font-stretch:normal;font-size:14.9471px;font-family:Ubuntu;-inkscape-font-specification:'Ubuntu Medium';text-align:center;text-anchor:middle;fill:#000000;fill-opacity:1;stroke-width:0.424022"
       y="544.09485"
       x="483.18384"
       sodipodi:role="line"
       id="tspan618">Start</tspan></text><text
     id="text624"
     y="335.74316"
     x="790.75793"
     style="font-style:normal;font-weight:normal;font-size:14.9471px;line-height:1.25;font-family:sans-serif;letter-spacing:0px;word-spacing:0px;display:inline;fill:#272727;fill-opacity:1;stroke:none;stroke-width:0.424022"
     xml:space="preserve"><tspan
       style="font-style:normal;font-variant:normal;font-weight:500;font-stretch:normal;font-size:14.9471px;font-family:Ubuntu;-inkscape-font-specification:'Ubuntu Medium';text-align:center;text-anchor:middle;fill:#000000;fill-opacity:1;stroke-width:0.424022"
       y="335.74316"
       x="790.75793"
       sodipodi:role="line"
       id="tspan622">End</tspan></text><path
     style="fill:none;fill-opacity:1;stroke:#fcaf3e;stroke-width:7;stroke-linecap:square;stroke-dasharray:none;stroke-opacity:1;stop-color:#000000"
     d="m 487.24258,511.80397 h 42.30325 v 31.82573 h 30.49538 v -62.05362 h 60.8672 V 449.78925 H 560.86607 V 420.1184 h 25.64924 v -88.68314 h -60.56067 v -8.3431 h 69.35034 v 64.58255 l 26.61925,10e-4 v 32.44267 h 60.2947 l 0.22781,60.21833 30.69354,-0.47406 0.15314,32.38324 h 31.09001 l -0.0103,-120.68588 -30.3673,0.38669 -0.26956,-34.89213 h 77.22344"
     id="path626"
     sodipodi:nodetypes="cccccccccccccccccccccccccc" /><circle
     style="fill:#ffffff;fill-opacity:1;stroke:#fcaf3e;stroke-width:3.077;stroke-linecap:square;stroke-opacity:1;stop-color:#000000"
     id="path3942"
     cx="483.31613"
     cy="511.77441"
     r="5.0591545" /><path
     style="fill:#ef4444;stroke-width:1.6"
     inkscape:connector-curvature="0"
     id="path635"
     d="m 976.10464,251.75858 -4.144,4.144 -4.14401,-4.144 -2.25603,2.256 4.144,4.144 -4.144,4.144 2.25603,2.256 4.14401,-4.144 4.144,4.144 2.25596,-2.256 -4.14396,-4.144 4.14396,-4.144 z m -4.144,-9.6 c -8.84803,0 -16.00004,7.152 -16.00004,16 0,8.848 7.15201,16 16.00004,16 8.84796,0 15.99994,-7.152 15.99994,-16 0,-8.848 -7.15198,-16 -15.99994,-16 z m 0,28.8 c -7.05604,0 -12.80004,-5.744 -12.80004,-12.8 0,-7.056 5.744,-12.8 12.80004,-12.8 7.056,0 12.79996,5.744 12.79996,12.8 0,7.056 -5.74396,12.8 -12.79996,12.8 z" /><text
     id="text322-3-7"
     y="268.44675"
     x="1042.0822"
     style="font-style:normal;font-weight:normal;font-size:29.7724px;line-height:1.25;font-family:sans-serif;letter-spacing:0px;word-spacing:0px;display:inline;fill:#272727;fill-opacity:1;stroke:none;stroke-width:0.844586"
     xml:space="preserve"><tspan
       style="font-style:normal;font-variant:normal;font-weight:normal;font-stretch:normal;font-size:29.7724px;font-family:Ubuntu;-inkscape-font-specification:Ubuntu;text-align:center;text-anchor:middle;fill:#000000;fill-opacity:1;stroke-width:0.844586"
       y="268.44675"
       x="1042.0822"
       sodipodi:role="line"
       id="tspan569-6-5">Alone</tspan></text><path
     id="path923"
     d="m 1145.7478,373.29725 v 183.96283 c 0,2.95957 -2.3987,5.35831 -5.3583,5.35831 H 895.1061 c -2.95957,0 -5.35831,-2.39874 -5.35831,-5.35831 v -31.50272 c 0,-2.95958 2.39874,-5.35832 5.35831,-5.35832 2.95958,0 5.35832,2.39874 5.35832,5.35832 v 26.1444 h 50.60451 V 526.5998 c 0,-2.95957 2.39874,-5.35831 5.35831,-5.35831 2.95958,0 5.35832,2.39874 5.35832,5.35831 v 25.30196 h 173.24564 v -19.94364 h -55.9623 c -2.9595,0 -5.3583,-2.39874 -5.3583,-5.35832 0,-2.95957 2.3988,-5.35831 5.3583,-5.35831 h 55.9623 V 378.65556 h -25.302 c -2.9596,0 -5.3583,-2.39874 -5.3583,-5.35831 0,-2.95958 2.3987,-5.35831 5.3583,-5.35831 h 30.6603 c 2.9596,0 5.3583,2.39873 5.3583,5.35831 z M 956.42724,490.58062 c -2.95957,0 -5.35831,2.39874 -5.35831,5.35831 0,2.95958 2.39874,5.35832 5.35831,5.35832 h 61.32056 c 2.9596,0 5.3583,-2.39874 5.3583,-5.35832 V 439.9767 h 25.3026 c 2.9595,0 5.3583,-2.39873 5.3583,-5.35831 0,-2.95958 -2.3988,-5.35831 -5.3583,-5.35831 h -55.96227 v -25.30196 c 0,-2.95958 -2.39874,-5.35832 -5.35832,-5.35832 -2.95957,0 -5.35831,2.39874 -5.35831,5.35832 v 25.30196 h -25.30256 c -2.95957,0 -5.35831,2.39873 -5.35831,5.35831 0,2.95958 2.39874,5.35831 5.35831,5.35831 h 55.96226 v 50.60392 z M 1140.3895,306.61839 H 895.1061 c -2.95957,0 -5.35831,2.39874 -5.35831,5.35831 v 183.96223 c 0,2.95958 2.39874,5.35832 5.35831,5.35832 h 25.30196 v 25.30077 c 0,2.95957 2.39874,5.35831 5.35832,5.35831 2.95957,0 5.35831,-2.39874 5.35831,-5.35831 v -55.96104 h 55.96342 c 2.95958,0 5.35832,-2.39874 5.35832,-5.35832 0,-2.95957 -2.39874,-5.35831 -5.35832,-5.35831 h -55.96342 v -25.30196 c 0,-2.95958 -2.39874,-5.35831 -5.35831,-5.35831 -2.95958,0 -5.35832,2.39873 -5.35832,5.35831 v 55.96223 H 900.46442 V 378.65556 h 25.30196 c 2.95957,0 5.35831,-2.39874 5.35831,-5.35831 0,-2.95958 -2.39874,-5.35831 -5.35831,-5.35831 h -25.30196 v -19.94365 h 50.60451 v 50.60451 h -26.10809 c -2.95957,0 -5.35831,2.39874 -5.35831,5.35832 0,2.95957 2.39874,5.35831 5.35831,5.35831 h 31.4664 c 2.95958,0 5.35832,-2.39874 5.35832,-5.35831 v -61.32114 c 0,-2.95958 -2.39874,-5.35832 -5.35832,-5.35832 h -55.96282 v -19.94364 h 81.26538 v 55.96223 c 0,2.95957 2.39874,5.35831 5.35831,5.35831 h 61.32059 c 2.9595,0 5.3583,-2.39874 5.3583,-5.35831 0,-2.95958 -2.3988,-5.35831 -5.3583,-5.35831 h -55.96227 v -50.60392 h 142.58477 v 19.94364 h -117.2834 c -2.9596,0 -5.3583,2.39874 -5.3583,5.35832 0,2.95957 2.3987,5.35831 5.3583,5.35831 h 55.9628 l 6e-4,50.60451 h -55.9634 c -2.9596,0 -5.3583,2.39874 -5.3583,5.35832 0,2.95957 2.3987,5.35831 5.3583,5.35831 h 55.9634 v 25.15312 c 0,0.0494 0,0.0988 0,0.14884 0,0.05 6e-4,0.0994 0,0.14884 l 6e-4,30.51441 c 0,2.95957 2.3987,5.35831 5.3583,5.35831 h 25.302 v 25.29839 c 0,2.95957 2.3987,5.35891 5.3577,5.35891 6e-4,0 6e-4,0 6e-4,0 2.9596,0 5.3583,-2.39874 5.3583,-5.35772 v -30.65789 c 0,-1.42114 -0.5644,-2.78394 -1.5694,-3.78892 -1.005,-1.00499 -2.3684,-1.56939 -3.7889,-1.56939 h -25.3026 V 439.9767 h 25.2996 c 1.4212,0 2.784,-0.56441 3.7889,-1.56939 1.005,-1.00498 1.5694,-2.36837 1.5694,-3.78892 v -30.66027 c 0,-2.95958 -2.3993,-5.35832 -5.3583,-5.35832 -2.9596,0 -5.3583,2.39874 -5.3583,5.35832 v 25.30196 h -19.9419 l -6e-4,-81.26479 h 55.9623 c 2.9596,0 5.3583,-2.39874 5.3583,-5.35831 V 311.9767 c 0,-2.95957 -2.3987,-5.35831 -5.3583,-5.35831 z m -55.9623,189.32054 c 0,-2.95957 -2.3987,-5.35831 -5.3583,-5.35831 h -25.3013 l -6e-4,-25.30196 c 0,-2.95957 -2.3988,-5.35831 -5.3583,-5.35831 -2.9596,0 -5.3584,2.39874 -5.3584,5.35831 l 6e-4,30.5799 c -6e-4,0.0268 -6e-4,0.0536 -6e-4,0.0804 0,0.0268 0,0.0536 6e-4,0.0804 l 6e-4,25.22218 h -53.70397 c -2.95957,0 -5.35831,2.39874 -5.35831,5.35831 0,2.95958 2.39874,5.35832 5.35831,5.35832 h 59.06227 c 1.4212,0 2.784,-0.56441 3.789,-1.56939 1.005,-1.00499 1.5694,-2.36838 1.5694,-3.78893 l -6e-4,-25.30255 h 25.3013 c 2.9596,0 5.3583,-2.39874 5.3583,-5.35832 z"
     style="fill:#2e3436;fill-opacity:1;stroke-width:0.595368" /><text
     id="text322-3-7-5"
     y="544.09485"
     x="861.77173"
     style="font-style:normal;font-weight:normal;font-size:14.9471px;line-height:1.25;font-family:sans-serif;letter-spacing:0px;word-spacing:0px;display:inline;fill:#272727;fill-opacity:1;stroke:none;stroke-width:0.424022"
     xml:space="preserve"><tspan
       style="font-style:normal;font-variant:normal;font-weight:500;font-stretch:normal;font-size:14.9471px;font-family:Ubuntu;-inkscape-font-specification:'Ubuntu Medium';text-align:center;text-anchor:middle;fill:#000000;fill-opacity:1;stroke-width:0.424022"
       y="544.09485"
       x="861.77173"
       sodipodi:role="line"
       id="tspan569-6-5-6">Start</tspan></text><text
     id="text5943"
     y="335.74316"
     x="1172.5822"
     style="font-style:normal;font-weight:normal;font-size:14.9471px;line-height:1.25;font-family:sans-serif;letter-spacing:0px;word-spacing:0px;display:inline;fill:#272727;fill-opacity:1;stroke:none;stroke-width:0.424022"
     xml:space="preserve"><tspan
       style="font-style:normal;font-variant:normal;font-weight:500;font-stretch:normal;font-size:14.9471px;font-family:Ubuntu;-inkscape-font-specification:'Ubuntu Medium';text-align:center;text-anchor:middle;fill:#000000;fill-opacity:1;stroke-width:0.424022"
       y="335.74316"
       x="1172.5822"
       sodipodi:role="line"
       id="tspan5941">End</tspan></text><path
     style="fill:none;fill-opacity:1;stroke:#ef4444;stroke-width:7;stroke-linecap:square;stroke-dasharray:none;stroke-opacity:1;stop-color:#000000"
     d="m 867.95906,511.12898 h 42.30325 v 30.50072 h 30.49538 v -60.05362 h 61.35271 V 449.78925 H 941.58255 V 420.1184 h -30.91143 v -93.02624 h 61.35034 v 56.87024 h 86.93914 V 362.02624 H 998.27624 V 323.09216 H 1128.041 v 8.3431 h -121.0587 v 21.57367 h 61.3674 v 40.78292 h -66.2393 v 26.32655 h 60.825 v 29.67085 h -29.7307 l -0.2724,61.33973 h -60.34569 l -0.17339,30.53342 h 91.43338 l 0.1658,-30.53342 h 25.7924 v -26.17607 h -30.3016 v -8.65523 h 39.1537 v 34.8313 h 26.4457 l -0.01,-119.56894 -30.3673,0.38669 -0.2695,-34.89213 h 77.2234"
     id="path4725"
     sodipodi:nodetypes="cccccccccccccccccccccccccccccccccccccccccccc" /><circle
     style="fill:#ffffff;fill-opacity:1;stroke:#ef4444;stroke-width:3.077;stroke-linecap:square;stroke-opacity:1;stop-color:#000000"
     id="circle5250"
     cx="863.96753"
     cy="511.80469"
     r="5.0591545" /><circle
     style="fill:#ef4444;fill-opacity:1;stroke:#ef4444;stroke-width:3.077;stroke-linecap:square;stroke-opacity:1;stop-color:#000000"
     id="circle5567"
     cx="1171.7534"
     cy="357.11133"
     r="5.0591545" /><g
     id="g275"
     transform="matrix(6.6977635,0,0,6.6977635,-1999.0896,-363.63242)"
     style="display:inline"><g
       id="g1800"
       transform="matrix(0.41322201,0,0,0.41322201,191.68105,54.667241)"><text
         id="text322-3"
         y="96.022934"
         x="359.10263"
         style="font-style:normal;font-weight:normal;font-size:10.7573px;line-height:1.25;font-family:sans-serif;letter-spacing:0px;word-spacing:0px;display:inline;fill:#272727;fill-opacity:1;stroke:none;stroke-width:0.305164"
         xml:space="preserve"><tspan
           style="font-style:normal;font-variant:normal;font-weight:normal;font-stretch:normal;font-size:10.7573px;font-family:Ubuntu;-inkscape-font-specification:Ubuntu;text-align:center;text-anchor:middle;fill:#000000;fill-opacity:1;stroke-width:0.305164"
           y="96.022934"
           x="359.10263"
           sodipodi:role="line"
           id="tspan569-6">With a Mentor</tspan></text><path
         style="display:inline;fill:#559e11;fill-opacity:1;stroke-width:0.578105"
         inkscape:connector-curvature="0"
         id="path645"
         d="m 313.36401,86.524623 c -3.19114,0 -5.78104,2.58991 -5.78104,5.78105 0,3.19114 2.5899,5.78105 5.78104,5.78105 3.19114,0 5.78107,-2.58991 5.78107,-5.78105 0,-3.19114 -2.58993,-5.78105 -5.78107,-5.78105 z m 0,10.40589 c -2.54943,0 -4.62482,-2.0754 -4.62482,-4.62484 0,-2.54944 2.07539,-4.62484 4.62482,-4.62484 2.54946,0 4.62485,2.0754 4.62485,4.62484 0,2.54944 -2.07539,4.62484 -4.62485,4.62484 z m 2.65351,-7.18006 -3.8097,3.80971 -1.49729,-1.49151 -0.81515,0.81513 2.31244,2.31242 4.62482,-4.62484 z" /></g></g><g
     style="fill:#2e3436;fill-opacity:1"
     id="g346"
     transform="matrix(0.59536822,0,0,0.59536822,133.11379,306.61839)"><path
       id="XMLID_46_"
       d="m 429.986,111.996 v 308.99 c 0,4.971 -4.029,9 -9,9 H 9 c -4.971,0 -9,-4.029 -9,-9 v -52.913 c 0,-4.971 4.029,-9 9,-9 4.971,0 9,4.029 9,9 v 43.913 h 84.997 v -42.498 c 0,-4.971 4.029,-9 9,-9 4.971,0 9,4.029 9,9 v 42.498 H 411.986 V 378.488 H 317.99 c -4.971,0 -9,-4.029 -9,-9 0,-4.971 4.029,-9 9,-9 h 93.996 V 120.996 h -42.498 c -4.971,0 -9,-4.029 -9,-9 0,-4.971 4.029,-9 9,-9 h 51.498 c 4.971,0 9,4.029 9,9 z M 111.997,308.989 c -4.971,0 -9,4.029 -9,9 0,4.971 4.029,9 9,9 h 102.996 c 4.971,0 9,-4.029 9,-9 v -93.996 h 42.499 c 4.971,0 9,-4.029 9,-9 0,-4.971 -4.029,-9 -9,-9 h -93.996 v -42.498 c 0,-4.971 -4.029,-9 -9,-9 -4.971,0 -9,4.029 -9,9 v 42.498 h -42.499 c -4.971,0 -9,4.029 -9,9 0,4.971 4.029,9 9,9 h 93.996 v 84.996 z M 420.986,0 H 9 C 4.029,0 0,4.029 0,9 v 308.989 c 0,4.971 4.029,9 9,9 h 42.498 v 42.496 c 0,4.971 4.029,9 9,9 4.971,0 9,-4.029 9,-9 v -93.994 h 93.998 c 4.971,0 9,-4.029 9,-9 0,-4.971 -4.029,-9 -9,-9 H 69.498 v -42.498 c 0,-4.971 -4.029,-9 -9,-9 -4.971,0 -9,4.029 -9,9 v 93.996 H 18 V 120.996 h 42.498 c 4.971,0 9,-4.029 9,-9 0,-4.971 -4.029,-9 -9,-9 H 18 V 69.498 h 84.997 v 84.997 H 59.145 c -4.971,0 -9,4.029 -9,9 0,4.971 4.029,9 9,9 h 52.852 c 4.971,0 9,-4.029 9,-9 V 60.498 c 0,-4.971 -4.029,-9 -9,-9 H 18 V 18 h 136.496 v 93.996 c 0,4.971 4.029,9 9,9 h 102.996 c 4.971,0 9,-4.029 9,-9 0,-4.971 -4.029,-9 -9,-9 H 172.496 V 18 h 239.49 V 51.498 H 214.993 c -4.971,0 -9,4.029 -9,9 0,4.971 4.029,9 9,9 h 93.997 l 10e-4,84.997 h -93.998 c -4.971,0 -9,4.029 -9,9 0,4.971 4.029,9 9,9 h 93.998 v 42.248 c -0.002,0.083 -0.003,0.166 -0.003,0.25 0,0.084 10e-4,0.167 0.003,0.25 l 0.001,51.253 c 0,4.971 4.029,9 9,9 h 42.498 l -0.002,42.492 c 0,4.971 4.029,9.001 8.999,9.001 10e-4,0 10e-4,0 10e-4,0 4.971,0 9,-4.029 9,-8.999 l 0.003,-51.494 c 0,-2.387 -0.948,-4.676 -2.636,-6.364 -1.688,-1.688 -3.978,-2.636 -6.364,-2.636 h -42.499 v -33.503 h 42.494 c 2.387,0 4.676,-0.948 6.364,-2.636 1.688,-1.688 2.636,-3.978 2.636,-6.364 l -0.002,-51.498 c 0,-4.971 -4.03,-9 -9,-9 -4.971,0 -9,4.029 -9,9 l 0.002,42.498 H 326.991 L 326.99,69.498 h 93.996 c 4.971,0 9,-4.029 9,-9 V 9 c 0,-4.971 -4.029,-9 -9,-9 z M 326.99,317.989 c 0,-4.971 -4.029,-9 -9,-9 h -42.497 l -10e-4,-42.498 c 0,-4.971 -4.029,-9 -9,-9 -4.971,0 -9,4.029 -9,9 l 10e-4,51.363 c -10e-4,0.045 -10e-4,0.09 -10e-4,0.135 0,0.045 0,0.09 10e-4,0.135 l 0.001,42.364 h -90.203 c -4.971,0 -9,4.029 -9,9 0,4.971 4.029,9 9,9 h 99.203 c 2.387,0 4.676,-0.948 6.364,-2.636 1.688,-1.688 2.636,-3.978 2.636,-6.364 l -0.001,-42.499 h 42.497 c 4.971,0 9,-4.029 9,-9 z"
       style="fill:#2e3436;fill-opacity:1" /></g><text
     id="text322-3-7-5-1"
     y="544.09485"
     x="106.75994"
     style="font-style:normal;font-weight:normal;font-size:14.9471px;line-height:1.25;font-family:sans-serif;letter-spacing:0px;word-spacing:0px;display:inline;fill:#272727;fill-opacity:1;stroke:none;stroke-width:0.424022"
     xml:space="preserve"><tspan
       style="font-style:normal;font-variant:normal;font-weight:500;font-stretch:normal;font-size:14.9471px;font-family:Ubuntu;-inkscape-font-specification:'Ubuntu Medium';text-align:center;text-anchor:middle;fill:#000000;fill-opacity:1;stroke-width:0.424022"
       y="544.09485"
       x="106.75994"
       sodipodi:role="line"
       id="tspan569-6-5-6-2">Start</tspan></text><text
     id="text5943-7"
     y="335.74316"
     x="414.89478"
     style="font-style:normal;font-weight:normal;font-size:14.9471px;line-height:1.25;font-family:sans-serif;letter-spacing:0px;word-spacing:0px;display:inline;fill:#272727;fill-opacity:1;stroke:none;stroke-width:0.424022"
     xml:space="preserve"><tspan
       style="font-style:normal;font-variant:normal;font-weight:500;font-stretch:normal;font-size:14.9471px;font-family:Ubuntu;-inkscape-font-specification:'Ubuntu Medium';text-align:center;text-anchor:middle;fill:#000000;fill-opacity:1;stroke-width:0.424022"
       y="335.74316"
       x="414.89478"
       sodipodi:role="line"
       id="tspan5941-0">End</tspan></text><path
     style="fill:none;fill-opacity:1;stroke:#4d8b15;stroke-width:7;stroke-linecap:square;stroke-dasharray:none;stop-color:#000000"
     d="m 105.89041,511.7255 h 46.85302 v 30.01891 h 31.59912 V 511.7255 h 92.11229 v -61.37394 h 30.19107 v 31.28822 h 28.54661 V 511.7255 H 368.1014 V 389.07783 h -30.04905 v -31.99687 h 72.84685"
     id="path3005"
     sodipodi:nodetypes="cccccccccccccccc" /><circle
     style="fill:#ffffff;fill-opacity:1;stroke:#4d8b15;stroke-width:3.077;stroke-linecap:square;stroke-opacity:1;stop-color:#000000"
     id="circle4918"
     cx="107.22366"
     cy="511.77441"
     r="5.0591545" /><circle
     style="fill:#4d8b15;fill-opacity:1;stroke:#4d8b15;stroke-width:3.077;stroke-linecap:square;stroke-opacity:1;stop-color:#000000"
     id="circle5830"
     cx="414.94092"
     cy="357.04504"
     r="5.0591545" /></svg>
