<?xml version="1.0" encoding="UTF-8" standalone="no"?>
<svg
   width="1280"
   height="640"
   viewBox="0 0 1280 640"
   version="1.1"
   id="svg34"
   sodipodi:docname="priming-effect.svg"
   inkscape:version="1.2.2 (b0a8486541, 2022-12-01)"
   inkscape:export-filename="priming-effect.png"
   inkscape:export-xdpi="96"
   inkscape:export-ydpi="96"
   xml:space="preserve"
   xmlns:inkscape="http://www.inkscape.org/namespaces/inkscape"
   xmlns:sodipodi="http://sodipodi.sourceforge.net/DTD/sodipodi-0.dtd"
   xmlns="http://www.w3.org/2000/svg"
   xmlns:svg="http://www.w3.org/2000/svg"><defs
     id="defs38"><marker
       style="overflow:visible"
       id="marker19882"
       refX="0"
       refY="0"
       orient="auto"
       inkscape:stockid="SquareS"
       inkscape:isstock="true"><path
         transform="scale(0.2)"
         style="fill:context-stroke;fill-rule:evenodd;stroke:context-stroke;stroke-width:1pt"
         d="M -5,-5 V 5 H 5 V -5 Z"
         id="path19880" /></marker><marker
       style="overflow:visible"
       id="marker19882-6"
       refX="0"
       refY="0"
       orient="auto"
       inkscape:stockid="SquareS"
       inkscape:isstock="true"><path
         transform="scale(0.2)"
         style="fill:context-stroke;fill-rule:evenodd;stroke:context-stroke;stroke-width:1pt"
         d="M -5,-5 V 5 H 5 V -5 Z"
         id="path19880-0" /></marker><marker
       style="overflow:visible"
       id="marker19882-2"
       refX="0"
       refY="0"
       orient="auto"
       inkscape:stockid="SquareS"
       inkscape:isstock="true"><path
         transform="scale(0.2)"
         style="fill:context-stroke;fill-rule:evenodd;stroke:context-stroke;stroke-width:1pt"
         d="M -5,-5 V 5 H 5 V -5 Z"
         id="path19880-6" /></marker><marker
       style="overflow:visible"
       id="marker19882-8"
       refX="0"
       refY="0"
       orient="auto"
       inkscape:stockid="SquareS"
       inkscape:isstock="true"><path
         transform="scale(0.2)"
         style="fill:context-stroke;fill-rule:evenodd;stroke:context-stroke;stroke-width:1pt"
         d="M -5,-5 V 5 H 5 V -5 Z"
         id="path19880-7" /></marker><marker
       style="overflow:visible"
       id="marker19882-20"
       refX="0"
       refY="0"
       orient="auto"
       inkscape:stockid="SquareS"
       inkscape:isstock="true"><path
         transform="scale(0.2)"
         style="fill:context-stroke;fill-rule:evenodd;stroke:context-stroke;stroke-width:1pt"
         d="M -5,-5 V 5 H 5 V -5 Z"
         id="path19880-2" /></marker></defs><sodipodi:namedview
     id="namedview36"
     pagecolor="#ffffff"
     bordercolor="#000000"
     borderopacity="0.25"
     inkscape:pageshadow="2"
     inkscape:pageopacity="0.0"
     inkscape:pagecheckerboard="true"
     showgrid="false"
     inkscape:zoom="0.70710678"
     inkscape:cx="555.07882"
     inkscape:cy="497.09607"
     inkscape:window-width="1920"
     inkscape:window-height="1011"
     inkscape:window-x="0"
     inkscape:window-y="0"
     inkscape:window-maximized="1"
     inkscape:current-layer="svg34"
     showguides="true"
     inkscape:guide-bbox="true"
     inkscape:snap-global="false"
     fit-margin-top="0"
     fit-margin-left="0"
     fit-margin-right="0"
     fit-margin-bottom="0"
     inkscape:showpageshadow="2"
     inkscape:deskcolor="#d1d1d1"><sodipodi:guide
       position="1198.8744,526.30293"
       orientation="1,0"
       id="guide2364"
       inkscape:locked="false" /><sodipodi:guide
       position="78.791587,387.70683"
       orientation="1,0"
       id="guide2366"
       inkscape:locked="false" /><sodipodi:guide
       position="603.47684,561.65908"
       orientation="0,-1"
       id="guide2368"
       inkscape:locked="false" /><sodipodi:guide
       position="528.52181,75.158462"
       orientation="0,-1"
       id="guide2370"
       inkscape:locked="false" /><sodipodi:guide
       position="373.05035,339.4402"
       orientation="1,0"
       id="guide418"
       inkscape:locked="false" /><sodipodi:guide
       position="906.94879,342.49892"
       orientation="1,0"
       id="guide420"
       inkscape:locked="false" /><sodipodi:guide
       position="769.33217,340.89383"
       orientation="0,-1"
       id="guide686"
       inkscape:locked="false" /><sodipodi:guide
       position="774.98903,285.0324"
       orientation="0,-1"
       id="guide688"
       inkscape:locked="false" /><sodipodi:guide
       position="769.33217,130.88312"
       orientation="0,-1"
       id="guide690"
       inkscape:locked="false" /></sodipodi:namedview><rect
     style="opacity:1;fill:#ffffff;stroke-width:1.12226;stroke-opacity:0"
     id="rect2132"
     width="1280"
     height="640"
     x="0"
     y="0"
     inkscape:export-filename="priming-effect.png"
     inkscape:export-xdpi="96"
     inkscape:export-ydpi="96" /><text
     xml:space="preserve"
     style="font-style:normal;font-weight:normal;font-size:40px;line-height:1.25;font-family:sans-serif;fill:#000000;fill-opacity:1;stroke:none"
     x="1566.2191"
     y="537.1803"
     id="text24733"><tspan
       sodipodi:role="line"
       id="tspan24731"
       x="1566.2191"
       y="537.1803" /></text><g
     id="g910"
     transform="translate(-0.12110242,6)"><g
       id="g799"
       transform="translate(-533.5)"><g
         id="g275"
         transform="matrix(6.6977635,0,0,6.6977635,-1382.2723,-369.63242)"
         style="display:inline"><g
           id="g1800"
           transform="matrix(0.41322201,0,0,0.41322201,191.68105,54.667241)"><text
             id="text322-3"
             y="96.022934"
             x="369.94202"
             style="font-style:normal;font-weight:normal;font-size:10.7573px;line-height:1.25;font-family:sans-serif;letter-spacing:0px;word-spacing:0px;display:inline;fill:#272727;fill-opacity:1;stroke:none;stroke-width:0.305164"
             xml:space="preserve"><tspan
               style="font-style:normal;font-variant:normal;font-weight:normal;font-stretch:normal;font-size:10.7573px;font-family:Ubuntu;-inkscape-font-specification:Ubuntu;text-align:center;text-anchor:middle;fill:#000000;fill-opacity:1;stroke-width:0.305164"
               y="96.022934"
               x="369.94202"
               sodipodi:role="line"
               id="tspan569-6">With a Mentor/Peer</tspan></text><path
             style="display:inline;fill:#559e11;fill-opacity:1;stroke-width:0.578105"
             inkscape:connector-curvature="0"
             id="path645"
             d="m 313.36401,86.524623 c -3.19114,0 -5.78104,2.58991 -5.78104,5.78105 0,3.19114 2.5899,5.78105 5.78104,5.78105 3.19114,0 5.78107,-2.58991 5.78107,-5.78105 0,-3.19114 -2.58993,-5.78105 -5.78107,-5.78105 z m 0,10.40589 c -2.54943,0 -4.62482,-2.0754 -4.62482,-4.62484 0,-2.54944 2.07539,-4.62484 4.62482,-4.62484 2.54946,0 4.62485,2.0754 4.62485,4.62484 0,2.54944 -2.07539,4.62484 -4.62485,4.62484 z m 2.65351,-7.18006 -3.8097,3.80971 -1.49729,-1.49151 -0.81515,0.81513 2.31244,2.31242 4.62482,-4.62484 z" /></g></g><g
         style="fill:#2e3436;fill-opacity:1"
         id="g346"
         transform="matrix(0.59536822,0,0,0.59536822,784.73489,300.61839)"><path
           id="XMLID_46_"
           d="m 429.986,111.996 v 308.99 c 0,4.971 -4.029,9 -9,9 H 9 c -4.971,0 -9,-4.029 -9,-9 v -52.913 c 0,-4.971 4.029,-9 9,-9 4.971,0 9,4.029 9,9 v 43.913 h 84.997 v -42.498 c 0,-4.971 4.029,-9 9,-9 4.971,0 9,4.029 9,9 v 42.498 H 411.986 V 378.488 H 317.99 c -4.971,0 -9,-4.029 -9,-9 0,-4.971 4.029,-9 9,-9 h 93.996 V 120.996 h -42.498 c -4.971,0 -9,-4.029 -9,-9 0,-4.971 4.029,-9 9,-9 h 51.498 c 4.971,0 9,4.029 9,9 z M 111.997,308.989 c -4.971,0 -9,4.029 -9,9 0,4.971 4.029,9 9,9 h 102.996 c 4.971,0 9,-4.029 9,-9 v -93.996 h 42.499 c 4.971,0 9,-4.029 9,-9 0,-4.971 -4.029,-9 -9,-9 h -93.996 v -42.498 c 0,-4.971 -4.029,-9 -9,-9 -4.971,0 -9,4.029 -9,9 v 42.498 h -42.499 c -4.971,0 -9,4.029 -9,9 0,4.971 4.029,9 9,9 h 93.996 v 84.996 z M 420.986,0 H 9 C 4.029,0 0,4.029 0,9 v 308.989 c 0,4.971 4.029,9 9,9 h 42.498 v 42.496 c 0,4.971 4.029,9 9,9 4.971,0 9,-4.029 9,-9 v -93.994 h 93.998 c 4.971,0 9,-4.029 9,-9 0,-4.971 -4.029,-9 -9,-9 H 69.498 v -42.498 c 0,-4.971 -4.029,-9 -9,-9 -4.971,0 -9,4.029 -9,9 v 93.996 H 18 V 120.996 h 42.498 c 4.971,0 9,-4.029 9,-9 0,-4.971 -4.029,-9 -9,-9 H 18 V 69.498 h 84.997 v 84.997 H 59.145 c -4.971,0 -9,4.029 -9,9 0,4.971 4.029,9 9,9 h 52.852 c 4.971,0 9,-4.029 9,-9 V 60.498 c 0,-4.971 -4.029,-9 -9,-9 H 18 V 18 h 136.496 v 93.996 c 0,4.971 4.029,9 9,9 h 102.996 c 4.971,0 9,-4.029 9,-9 0,-4.971 -4.029,-9 -9,-9 H 172.496 V 18 h 239.49 V 51.498 H 214.993 c -4.971,0 -9,4.029 -9,9 0,4.971 4.029,9 9,9 h 93.997 l 10e-4,84.997 h -93.998 c -4.971,0 -9,4.029 -9,9 0,4.971 4.029,9 9,9 h 93.998 v 42.248 c -0.002,0.083 -0.003,0.166 -0.003,0.25 0,0.084 10e-4,0.167 0.003,0.25 l 0.001,51.253 c 0,4.971 4.029,9 9,9 h 42.498 l -0.002,42.492 c 0,4.971 4.029,9.001 8.999,9.001 10e-4,0 10e-4,0 10e-4,0 4.971,0 9,-4.029 9,-8.999 l 0.003,-51.494 c 0,-2.387 -0.948,-4.676 -2.636,-6.364 -1.688,-1.688 -3.978,-2.636 -6.364,-2.636 h -42.499 v -33.503 h 42.494 c 2.387,0 4.676,-0.948 6.364,-2.636 1.688,-1.688 2.636,-3.978 2.636,-6.364 l -0.002,-51.498 c 0,-4.971 -4.03,-9 -9,-9 -4.971,0 -9,4.029 -9,9 l 0.002,42.498 H 326.991 L 326.99,69.498 h 93.996 c 4.971,0 9,-4.029 9,-9 V 9 c 0,-4.971 -4.029,-9 -9,-9 z M 326.99,317.989 c 0,-4.971 -4.029,-9 -9,-9 h -42.497 l -10e-4,-42.498 c 0,-4.971 -4.029,-9 -9,-9 -4.971,0 -9,4.029 -9,9 l 10e-4,51.363 c -10e-4,0.045 -10e-4,0.09 -10e-4,0.135 0,0.045 0,0.09 10e-4,0.135 l 0.001,42.364 h -90.203 c -4.971,0 -9,4.029 -9,9 0,4.971 4.029,9 9,9 h 99.203 c 2.387,0 4.676,-0.948 6.364,-2.636 1.688,-1.688 2.636,-3.978 2.636,-6.364 l -0.001,-42.499 h 42.497 c 4.971,0 9,-4.029 9,-9 z"
           style="fill:#2e3436;fill-opacity:1" /></g><text
         id="text322-3-7-5-1"
         y="510.41824"
         x="728.13104"
         style="font-style:normal;font-weight:normal;font-size:14.9471px;line-height:1.25;font-family:sans-serif;letter-spacing:0px;word-spacing:0px;display:inline;fill:#272727;fill-opacity:1;stroke:none;stroke-width:0.424022"
         xml:space="preserve"><tspan
           style="font-style:normal;font-variant:normal;font-weight:500;font-stretch:normal;font-size:14.9471px;font-family:Ubuntu;-inkscape-font-specification:'Ubuntu Medium';text-align:center;text-anchor:middle;fill:#000000;fill-opacity:1;stroke-width:0.424022"
           y="510.41824"
           x="728.13104"
           sodipodi:role="line"
           id="tspan569-6-5-6-2">Start</tspan></text><text
         id="text5943-7"
         y="355.81659"
         x="1090.3909"
         style="font-style:normal;font-weight:normal;font-size:14.9471px;line-height:1.25;font-family:sans-serif;letter-spacing:0px;word-spacing:0px;display:inline;fill:#272727;fill-opacity:1;stroke:none;stroke-width:0.424022"
         xml:space="preserve"><tspan
           style="font-style:normal;font-variant:normal;font-weight:500;font-stretch:normal;font-size:14.9471px;font-family:Ubuntu;-inkscape-font-specification:'Ubuntu Medium';text-align:center;text-anchor:middle;fill:#000000;fill-opacity:1;stroke-width:0.424022"
           y="355.81659"
           x="1090.3909"
           sodipodi:role="line"
           id="tspan5941-0">End</tspan></text><path
         style="fill:none;fill-opacity:1;stroke:#4d8b15;stroke-width:7;stroke-linecap:square;stroke-dasharray:none;stop-color:#000000"
         d="m 757.51151,505.7255 h 46.85302 v 30.01891 h 31.59912 V 505.7255 h 92.11229 v -61.37394 h 30.19107 v 31.28822 h 28.54661 v 30.08572 h 32.90888 V 383.07783 h -30.04905 v -32.26204 h 72.84685"
         id="path3005"
         sodipodi:nodetypes="cccccccccccccccc" /></g><g
       id="g755"
       transform="translate(533.74218,0.17173)"><g
         id="g6179"
         transform="translate(54.565315,34)"><path
           style="fill:#ef4444;stroke-width:1.6"
           inkscape:connector-curvature="0"
           id="path635"
           d="m 161.23687,211.58685 -4.144,4.144 -4.14401,-4.144 -2.25603,2.256 4.144,4.144 -4.144,4.144 2.25603,2.256 4.14401,-4.144 4.144,4.144 2.25596,-2.256 -4.14396,-4.144 4.14396,-4.144 z m -4.144,-9.6 c -8.84803,0 -16.00004,7.152 -16.00004,16 0,8.848 7.15201,16 16.00004,16 8.84796,0 15.99994,-7.152 15.99994,-16 0,-8.848 -7.15198,-16 -15.99994,-16 z m 0,28.8 c -7.05604,0 -12.80004,-5.744 -12.80004,-12.8 0,-7.056 5.744,-12.8 12.80004,-12.8 7.056,0 12.79996,5.744 12.79996,12.8 0,7.056 -5.74396,12.8 -12.79996,12.8 z" /><text
           id="text322-3-7"
           y="228.27502"
           x="337.21436"
           style="font-style:normal;font-weight:normal;font-size:29.7724px;line-height:1.25;font-family:sans-serif;letter-spacing:0px;word-spacing:0px;display:inline;fill:#272727;fill-opacity:1;stroke:none;stroke-width:0.844586"
           xml:space="preserve"><tspan
             style="font-style:normal;font-variant:normal;font-weight:normal;font-stretch:normal;font-size:29.7724px;font-family:Ubuntu;-inkscape-font-specification:Ubuntu;text-align:center;text-anchor:middle;fill:#000000;fill-opacity:1;stroke-width:0.844586"
             y="228.27502"
             x="337.21436"
             sodipodi:role="line"
             id="tspan569-6-5">Without a Mentor/Peer</tspan></text></g><g
         style="fill:#2e3436;fill-opacity:1"
         id="g925"
         transform="matrix(0.59536822,0,0,0.59536822,246.12671,300.44666)"><path
           id="path923"
           d="m 429.986,111.996 v 308.99 c 0,4.971 -4.029,9 -9,9 H 9 c -4.971,0 -9,-4.029 -9,-9 v -52.913 c 0,-4.971 4.029,-9 9,-9 4.971,0 9,4.029 9,9 v 43.913 h 84.997 v -42.498 c 0,-4.971 4.029,-9 9,-9 4.971,0 9,4.029 9,9 v 42.498 H 411.986 V 378.488 H 317.99 c -4.971,0 -9,-4.029 -9,-9 0,-4.971 4.029,-9 9,-9 h 93.996 V 120.996 h -42.498 c -4.971,0 -9,-4.029 -9,-9 0,-4.971 4.029,-9 9,-9 h 51.498 c 4.971,0 9,4.029 9,9 z M 111.997,308.989 c -4.971,0 -9,4.029 -9,9 0,4.971 4.029,9 9,9 h 102.996 c 4.971,0 9,-4.029 9,-9 v -93.996 h 42.499 c 4.971,0 9,-4.029 9,-9 0,-4.971 -4.029,-9 -9,-9 h -93.996 v -42.498 c 0,-4.971 -4.029,-9 -9,-9 -4.971,0 -9,4.029 -9,9 v 42.498 h -42.499 c -4.971,0 -9,4.029 -9,9 0,4.971 4.029,9 9,9 h 93.996 v 84.996 z M 420.986,0 H 9 C 4.029,0 0,4.029 0,9 v 308.989 c 0,4.971 4.029,9 9,9 h 42.498 v 42.496 c 0,4.971 4.029,9 9,9 4.971,0 9,-4.029 9,-9 v -93.994 h 93.998 c 4.971,0 9,-4.029 9,-9 0,-4.971 -4.029,-9 -9,-9 H 69.498 v -42.498 c 0,-4.971 -4.029,-9 -9,-9 -4.971,0 -9,4.029 -9,9 v 93.996 H 18 V 120.996 h 42.498 c 4.971,0 9,-4.029 9,-9 0,-4.971 -4.029,-9 -9,-9 H 18 V 69.498 h 84.997 v 84.997 H 59.145 c -4.971,0 -9,4.029 -9,9 0,4.971 4.029,9 9,9 h 52.852 c 4.971,0 9,-4.029 9,-9 V 60.498 c 0,-4.971 -4.029,-9 -9,-9 H 18 V 18 h 136.496 v 93.996 c 0,4.971 4.029,9 9,9 h 102.996 c 4.971,0 9,-4.029 9,-9 0,-4.971 -4.029,-9 -9,-9 H 172.496 V 18 h 239.49 V 51.498 H 214.993 c -4.971,0 -9,4.029 -9,9 0,4.971 4.029,9 9,9 h 93.997 l 10e-4,84.997 h -93.998 c -4.971,0 -9,4.029 -9,9 0,4.971 4.029,9 9,9 h 93.998 v 42.248 c -0.002,0.083 -0.003,0.166 -0.003,0.25 0,0.084 10e-4,0.167 0.003,0.25 l 0.001,51.253 c 0,4.971 4.029,9 9,9 h 42.498 l -0.002,42.492 c 0,4.971 4.029,9.001 8.999,9.001 10e-4,0 10e-4,0 10e-4,0 4.971,0 9,-4.029 9,-8.999 l 0.003,-51.494 c 0,-2.387 -0.948,-4.676 -2.636,-6.364 -1.688,-1.688 -3.978,-2.636 -6.364,-2.636 h -42.499 v -33.503 h 42.494 c 2.387,0 4.676,-0.948 6.364,-2.636 1.688,-1.688 2.636,-3.978 2.636,-6.364 l -0.002,-51.498 c 0,-4.971 -4.03,-9 -9,-9 -4.971,0 -9,4.029 -9,9 l 0.002,42.498 H 326.991 L 326.99,69.498 h 93.996 c 4.971,0 9,-4.029 9,-9 V 9 c 0,-4.971 -4.029,-9 -9,-9 z M 326.99,317.989 c 0,-4.971 -4.029,-9 -9,-9 h -42.497 l -10e-4,-42.498 c 0,-4.971 -4.029,-9 -9,-9 -4.971,0 -9,4.029 -9,9 l 10e-4,51.363 c -10e-4,0.045 -10e-4,0.09 -10e-4,0.135 0,0.045 0,0.09 10e-4,0.135 l 0.001,42.364 h -90.203 c -4.971,0 -9,4.029 -9,9 0,4.971 4.029,9 9,9 h 99.203 c 2.387,0 4.676,-0.948 6.364,-2.636 1.688,-1.688 2.636,-3.978 2.636,-6.364 l -0.001,-42.499 h 42.497 c 4.971,0 9,-4.029 9,-9 z"
           style="fill:#2e3436;fill-opacity:1" /></g><text
         id="text322-3-7-5"
         y="510.4231"
         x="194.23634"
         style="font-style:normal;font-weight:normal;font-size:14.9471px;line-height:1.25;font-family:sans-serif;letter-spacing:0px;word-spacing:0px;display:inline;fill:#272727;fill-opacity:1;stroke:none;stroke-width:0.424022"
         xml:space="preserve"><tspan
           style="font-style:normal;font-variant:normal;font-weight:500;font-stretch:normal;font-size:14.9471px;font-family:Ubuntu;-inkscape-font-specification:'Ubuntu Medium';text-align:center;text-anchor:middle;fill:#000000;fill-opacity:1;stroke-width:0.424022"
           y="510.4231"
           x="194.23634"
           sodipodi:role="line"
           id="tspan569-6-5-6">Start</tspan></text><text
         id="text5943"
         y="355.82144"
         x="556.49622"
         style="font-style:normal;font-weight:normal;font-size:14.9471px;line-height:1.25;font-family:sans-serif;letter-spacing:0px;word-spacing:0px;display:inline;fill:#272727;fill-opacity:1;stroke:none;stroke-width:0.424022"
         xml:space="preserve"><tspan
           style="font-style:normal;font-variant:normal;font-weight:500;font-stretch:normal;font-size:14.9471px;font-family:Ubuntu;-inkscape-font-specification:'Ubuntu Medium';text-align:center;text-anchor:middle;fill:#000000;fill-opacity:1;stroke-width:0.424022"
           y="355.82144"
           x="556.49622"
           sodipodi:role="line"
           id="tspan5941">End</tspan></text><path
         style="fill:none;fill-opacity:1;stroke:#ef4444;stroke-width:7;stroke-linecap:square;stroke-dasharray:none;stroke-opacity:1;stop-color:#000000"
         d="m 224.33798,506.07418 h 42.30325 v 31.38379 h 30.49538 v -62.05362 h 60.8672 v -31.78683 h -60.04234 v -29.67085 h 25.64924 v -88.68314 h -60.56067 v -8.3431 h 69.35034 v 60.87024 h 82.93914 v -21.93616 h -60.68436 v -38.93408 h 129.7648 v 8.3431 H 363.36125 v 21.57367 h 61.36737 v 40.78292 H 358.4893 v 26.32655 h 60.82503 v 29.67085 h -29.73074 l -0.27236,62.45666 h -60.3457 l -0.17339,32.09082 91.35515,-0.47406 0.24153,-31.61676 h 61.09001 l -0.0103,-120.68588 -30.3673,0.38669 -0.26956,-34.89213 h 77.22344"
         id="path4725"
         sodipodi:nodetypes="cccccccccccccccccccccccccccccccccccccccc" /></g></g><g
     id="g7133"
     transform="translate(8.6239023,297.23193)"><rect
       style="fill:#559e11;fill-opacity:1;stroke-width:0.646144;stroke-opacity:0"
       id="rect64126-6"
       width="1280"
       height="193.85544"
       x="-8.6239023"
       y="-297.23193"
       inkscape:export-filename="devops-implementations.png"
       inkscape:export-xdpi="96"
       inkscape:export-ydpi="96" /><text
       xml:space="preserve"
       style="font-style:normal;font-weight:normal;font-size:42.6667px;line-height:1.25;font-family:sans-serif;fill:#ffffff;fill-opacity:1;stroke:none;stroke-width:1.99572"
       x="492.53864"
       y="-173.6962"
       id="text7142-2-2-7"
       inkscape:export-filename="devops-implementations.png"
       inkscape:export-xdpi="96"
       inkscape:export-ydpi="96"><tspan
         sodipodi:role="line"
         id="tspan7140-9-0-5"
         x="492.53864"
         y="-173.6962"
         style="font-style:normal;font-variant:normal;font-weight:normal;font-stretch:normal;font-size:42.6667px;font-family:Ubuntu;-inkscape-font-specification:Ubuntu;fill:#ffffff;stroke-width:1.99572">Priming Effect</tspan></text></g></svg>
