<?xml version="1.0" encoding="UTF-8" standalone="no"?>
<svg
   width="1280"
   height="640"
   viewBox="0 0 1280 640"
   version="1.1"
   id="svg34"
   sodipodi:docname="roadmap-faq.svg"
   inkscape:version="1.2.2 (b0a8486541, 2022-12-01)"
   inkscape:export-filename="roadmap-faq.png"
   inkscape:export-xdpi="130.66029"
   inkscape:export-ydpi="130.66029"
   xmlns:inkscape="http://www.inkscape.org/namespaces/inkscape"
   xmlns:sodipodi="http://sodipodi.sourceforge.net/DTD/sodipodi-0.dtd"
   xmlns="http://www.w3.org/2000/svg"
   xmlns:svg="http://www.w3.org/2000/svg">
  <defs
     id="defs38">
    <marker
       style="overflow:visible"
       id="marker19882"
       refX="0"
       refY="0"
       orient="auto"
       inkscape:stockid="SquareS"
       inkscape:isstock="true">
      <path
         transform="scale(0.2)"
         style="fill:context-stroke;fill-rule:evenodd;stroke:context-stroke;stroke-width:1pt"
         d="M -5,-5 V 5 H 5 V -5 Z"
         id="path19880" />
    </marker>
    <marker
       style="overflow:visible"
       id="marker19882-6"
       refX="0"
       refY="0"
       orient="auto"
       inkscape:stockid="SquareS"
       inkscape:isstock="true">
      <path
         transform="scale(0.2)"
         style="fill:context-stroke;fill-rule:evenodd;stroke:context-stroke;stroke-width:1pt"
         d="M -5,-5 V 5 H 5 V -5 Z"
         id="path19880-0" />
    </marker>
    <marker
       style="overflow:visible"
       id="marker19882-2"
       refX="0"
       refY="0"
       orient="auto"
       inkscape:stockid="SquareS"
       inkscape:isstock="true">
      <path
         transform="scale(0.2)"
         style="fill:context-stroke;fill-rule:evenodd;stroke:context-stroke;stroke-width:1pt"
         d="M -5,-5 V 5 H 5 V -5 Z"
         id="path19880-6" />
    </marker>
    <marker
       style="overflow:visible"
       id="marker19882-8"
       refX="0"
       refY="0"
       orient="auto"
       inkscape:stockid="SquareS"
       inkscape:isstock="true">
      <path
         transform="scale(0.2)"
         style="fill:context-stroke;fill-rule:evenodd;stroke:context-stroke;stroke-width:1pt"
         d="M -5,-5 V 5 H 5 V -5 Z"
         id="path19880-7" />
    </marker>
    <marker
       style="overflow:visible"
       id="marker19882-20"
       refX="0"
       refY="0"
       orient="auto"
       inkscape:stockid="SquareS"
       inkscape:isstock="true">
      <path
         transform="scale(0.2)"
         style="fill:context-stroke;fill-rule:evenodd;stroke:context-stroke;stroke-width:1pt"
         d="M -5,-5 V 5 H 5 V -5 Z"
         id="path19880-2" />
    </marker>
  </defs>
  <sodipodi:namedview
     id="namedview36"
     pagecolor="#ffffff"
     bordercolor="#000000"
     borderopacity="0.25"
     inkscape:pageshadow="2"
     inkscape:pageopacity="0.0"
     inkscape:pagecheckerboard="true"
     showgrid="false"
     inkscape:zoom="0.26874754"
     inkscape:cx="413.02704"
     inkscape:cy="515.35355"
     inkscape:window-width="1920"
     inkscape:window-height="1011"
     inkscape:window-x="0"
     inkscape:window-y="0"
     inkscape:window-maximized="1"
     inkscape:current-layer="svg34"
     showguides="true"
     inkscape:guide-bbox="true"
     inkscape:snap-global="false"
     fit-margin-top="0"
     fit-margin-left="0"
     fit-margin-right="0"
     fit-margin-bottom="0"
     inkscape:showpageshadow="2"
     inkscape:deskcolor="#d1d1d1">
    <sodipodi:guide
       position="1198.8744,526.30293"
       orientation="1,0"
       id="guide2364"
       inkscape:locked="false" />
    <sodipodi:guide
       position="78.791587,387.70683"
       orientation="1,0"
       id="guide2366"
       inkscape:locked="false" />
    <sodipodi:guide
       position="603.47684,561.65908"
       orientation="0,-1"
       id="guide2368"
       inkscape:locked="false" />
    <sodipodi:guide
       position="528.52181,75.158462"
       orientation="0,-1"
       id="guide2370"
       inkscape:locked="false" />
  </sodipodi:namedview>
  <rect
     style="opacity:1;fill:#ffffff;stroke-width:1.12226;stroke-opacity:0"
     id="rect2132"
     width="1280"
     height="640"
     x="0"
     y="0"
     inkscape:export-filename="roadmap-faq.png"
     inkscape:export-xdpi="96"
     inkscape:export-ydpi="96" />
  <rect
     style="opacity:1;fill:#559e11;fill-opacity:1;stroke-width:0.397119;stroke-opacity:0"
     id="rect2558"
     width="1280"
     height="80.137337"
     x="0"
     y="73.691566"
     inkscape:export-filename="roadmap-faq.png"
     inkscape:export-xdpi="96"
     inkscape:export-ydpi="96" />
  <text
     xml:space="preserve"
     style="font-style:normal;font-weight:normal;font-size:42.6667px;line-height:1.25;font-family:sans-serif;fill:#ffffff;fill-opacity:1;stroke:none;stroke-width:1.82625"
     x="269.82462"
     y="126.36825"
     id="text56388-9-1-3"
     inkscape:export-filename="roadmap-faq.png"
     inkscape:export-xdpi="96"
     inkscape:export-ydpi="96"><tspan
       sodipodi:role="line"
       id="tspan56386-1-8-6"
       x="269.82462"
       y="126.36825"
       style="font-style:normal;font-variant:normal;font-weight:normal;font-stretch:normal;font-size:42.6667px;font-family:Ubuntu;-inkscape-font-specification:Ubuntu;fill:#ffffff;stroke-width:1.82625">Roadmap Frequently Asked Questions</tspan></text>
  <text
     xml:space="preserve"
     style="font-style:normal;font-weight:normal;font-size:42.6667px;line-height:1.25;font-family:sans-serif;fill:#ffffff;fill-opacity:1;stroke:none;stroke-width:1.82625"
     x="267.15714"
     y="910.61182"
     id="text56388-9-1-3-3"
     inkscape:export-filename="roadmap-faq.png"
     inkscape:export-xdpi="96"
     inkscape:export-ydpi="96"><tspan
       sodipodi:role="line"
       id="tspan56386-1-8-6-6"
       x="267.15714"
       y="910.61182"
       style="font-style:normal;font-variant:normal;font-weight:normal;font-stretch:normal;font-size:42.6667px;font-family:Ubuntu;-inkscape-font-specification:Ubuntu;fill:#ffffff;stroke-width:1.82625">Interview Questions and Best Practices</tspan></text>
  <text
     xml:space="preserve"
     style="font-style:normal;font-weight:normal;font-size:40px;line-height:1.25;font-family:sans-serif;fill:#000000;fill-opacity:1;stroke:none"
     x="1566.2191"
     y="537.1803"
     id="text24733"><tspan
       sodipodi:role="line"
       id="tspan24731"
       x="1566.2191"
       y="537.1803" /></text>
  <path
     id="path15932-7-0"
     style="fill:none;fill-opacity:1;stroke:#559e11;stroke-width:4.42912006;stroke-linecap:square;stroke-miterlimit:4;stroke-dasharray:4.42912006,13.28736019;stroke-dashoffset:2.65747204;stroke-opacity:1;stop-color:#000000"
     d="m 626.02737,517.71179 h 93.28156 18.22593 l 44.30814,35.83873 0.01,-35.83873 h 30.74042 l 26.45275,-60.29138 -26.45275,-60.2914 h -93.28148 -93.28156 l -26.45267,60.2914 z"
     sodipodi:nodetypes="cccccccccccc"
     inkscape:export-filename="roadmap-faq.png"
     inkscape:export-xdpi="96"
     inkscape:export-ydpi="96" />
  <path
     id="path1163-6-3"
     style="fill:#8ebf56;fill-opacity:1;stroke:#559e11;stroke-width:8.85824;stroke-linecap:square;stroke-miterlimit:4;stroke-dasharray:none;stroke-opacity:1;stop-color:#000000"
     d="M 716.5309,453.5166 H 585.43765 559.82386 l -62.26841,50.36598 -0.01,-50.36598 h -43.20104 l -37.1753,-84.73055 37.1753,-84.73056 h 131.09325 131.09325 l 37.1753,84.73056 z"
     sodipodi:nodetypes="cccccccccccc"
     inkscape:export-filename="roadmap-faq.png"
     inkscape:export-xdpi="96"
     inkscape:export-ydpi="96" />
  <path
     id="path15932-7"
     style="fill:#add18b;fill-opacity:1;stroke:#559e11;stroke-width:5.74571;stroke-linecap:square;stroke-miterlimit:4;stroke-dasharray:none;stroke-opacity:1;stop-color:#000000"
     d="m 670.35278,336.10482 h 85.031 16.61381 l 40.38917,32.66886 0.009,-32.66886 h 28.02146 L 864.5301,281.1461 840.41708,226.18737 h -85.03091 -85.03099 l -24.11294,54.95873 z"
     sodipodi:nodetypes="cccccccccccc"
     inkscape:export-filename="roadmap-faq.png"
     inkscape:export-xdpi="96"
     inkscape:export-ydpi="96" />
  <path
     sodipodi:type="star"
     style="fill:#559e11;fill-opacity:1;stroke-width:10;stroke-linecap:square;stop-color:#000000"
     id="path16249"
     inkscape:flatsided="false"
     sodipodi:sides="6"
     sodipodi:cx="465.93665"
     sodipodi:cy="-872.64856"
     sodipodi:r1="299.99118"
     sodipodi:r2="346.41016"
     sodipodi:arg1="0.52359878"
     sodipodi:arg2="1.0471976"
     inkscape:rounded="0"
     inkscape:randomized="0"
     transform="matrix(0.06628892,0,0,0.064256,477.2776,426.40442)"
     d="m 725.73663,-722.65297 -86.59492,150.00441 -173.20507,-0.009 -173.20509,0.009 -86.59489,-150.0044 -86.61017,-149.99561 86.61017,-149.99562 86.59492,-150.0044 173.20507,0.01 173.20509,-0.01 86.59489,150.0044 86.61017,149.99556 z"
     inkscape:export-filename="roadmap-faq.png"
     inkscape:export-xdpi="96"
     inkscape:export-ydpi="96" />
  <path
     sodipodi:type="star"
     style="fill:#559e11;fill-opacity:1;stroke-width:10;stroke-linecap:square;stop-color:#000000"
     id="path29323"
     inkscape:flatsided="false"
     sodipodi:sides="6"
     sodipodi:cx="465.93665"
     sodipodi:cy="-872.64856"
     sodipodi:r1="299.99118"
     sodipodi:r2="346.41016"
     sodipodi:arg1="0.52359878"
     sodipodi:arg2="1.0471976"
     inkscape:rounded="0"
     inkscape:randomized="0"
     transform="matrix(0.06628892,0,0,0.064256,556.14371,426.40442)"
     d="m 725.73663,-722.65297 -86.59492,150.00441 -173.20507,-0.009 -173.20509,0.009 -86.59489,-150.0044 -86.61017,-149.99561 86.61017,-149.99562 86.59492,-150.0044 173.20507,0.01 173.20509,-0.01 86.59489,150.0044 86.61017,149.99556 z"
     inkscape:export-filename="roadmap-faq.png"
     inkscape:export-xdpi="96"
     inkscape:export-ydpi="96" />
  <path
     sodipodi:type="star"
     style="fill:#559e11;fill-opacity:1;stroke-width:10;stroke-linecap:square;stop-color:#000000"
     id="path29325"
     inkscape:flatsided="false"
     sodipodi:sides="6"
     sodipodi:cx="465.93665"
     sodipodi:cy="-872.64856"
     sodipodi:r1="299.99118"
     sodipodi:r2="346.41016"
     sodipodi:arg1="0.52359878"
     sodipodi:arg2="1.0471976"
     inkscape:rounded="0"
     inkscape:randomized="0"
     transform="matrix(0.06628892,0,0,0.064256,635.00963,426.40442)"
     d="m 725.73663,-722.65297 -86.59492,150.00441 -173.20507,-0.009 -173.20509,0.009 -86.59489,-150.0044 -86.61017,-149.99561 86.61017,-149.99562 86.59492,-150.0044 173.20507,0.01 173.20509,-0.01 86.59489,150.0044 86.61017,149.99556 z"
     inkscape:export-filename="roadmap-faq.png"
     inkscape:export-xdpi="96"
     inkscape:export-ydpi="96" />
  <g
     id="g45955"
     inkscape:export-filename="roadmap-faq.png"
     inkscape:export-xdpi="96"
     inkscape:export-ydpi="96">
    <path
       d="m 742.61098,292.52817 c 0.0126,-1.09057 0.0756,-2.1118 0.18282,-3.04478 0.10716,-0.9771 0.27106,-1.91637 0.48539,-2.81152 0.23955,-0.98971 0.52953,-1.89747 0.88255,-2.71067 0.36562,-0.85733 0.79428,-1.6327 1.28599,-2.32613 l 0.0315,-0.0441 v 0 l 0.082,-0.10716 0.0252,-0.0315 c 0.43497,-0.59887 0.92667,-1.20404 1.48772,-1.80921 0.57995,-0.62409 1.22295,-1.26078 1.92898,-1.89747 0.66821,-0.60517 1.44989,-1.25447 2.33874,-1.9479 0.83211,-0.6556 1.75878,-1.33642 2.7674,-2.04245 0.0441,-0.0378 0.0883,-0.0756 0.13868,-0.10717 0.0504,-0.0378 0.10717,-0.0693 0.1639,-0.0945 0.32781,-0.21434 0.6493,-0.44128 0.9645,-0.68082 0.32149,-0.25216 0.63038,-0.52322 0.92667,-0.8069 0.28367,-0.27737 0.54843,-0.57365 0.79428,-0.87624 0.23955,-0.29628 0.44758,-0.59256 0.6367,-0.88884 0.0126,-0.0252 0.0252,-0.0441 0.0441,-0.0694 v 0 c 0.18912,-0.30258 0.35302,-0.60517 0.4854,-0.92036 0.13238,-0.30259 0.24585,-0.643 0.34671,-1.02123 0.0946,-0.35302 0.17021,-0.73125 0.21434,-1.1347 0.0504,-0.40344 0.0756,-0.8258 0.0756,-1.27338 0,-0.44757 -0.0252,-0.84472 -0.0756,-1.20404 -0.0504,-0.35932 -0.12608,-0.67451 -0.22064,-0.95819 -0.0883,-0.25846 -0.18912,-0.498 -0.31519,-0.71234 -0.11978,-0.21433 -0.26477,-0.40975 -0.42867,-0.59256 l -0.0315,-0.0315 v 0 l -0.0441,-0.0504 c -0.12608,-0.12608 -0.25846,-0.23324 -0.39715,-0.3215 -0.15759,-0.10086 -0.34041,-0.19542 -0.55474,-0.27737 l -0.0315,-0.0126 v 0 l -0.0315,-0.0126 c -0.24585,-0.0883 -0.51061,-0.1576 -0.78798,-0.20173 -0.29628,-0.0441 -0.643,-0.0693 -1.05275,-0.0693 -0.30889,0 -0.57995,0.0189 -0.80689,0.0567 -0.22694,0.0378 -0.44758,0.0945 -0.6493,0.1702 -0.18282,0.0693 -0.35932,0.15129 -0.52953,0.25846 -0.1702,0.10086 -0.3341,0.22694 -0.4917,0.37193 -0.11977,0.11347 -0.22694,0.23324 -0.31519,0.36562 -0.10087,0.14499 -0.18282,0.3152 -0.25846,0.49801 -0.0883,0.22694 -0.1576,0.498 -0.21433,0.8132 -0.063,0.34671 -0.0946,0.70603 -0.10717,1.07796 v 0.0189 c -0.0315,0.96449 -0.43497,1.83443 -1.07796,2.45851 -0.60517,0.58626 -1.40577,0.96449 -2.29461,1.01493 -0.0694,0.006 -0.13238,0.0126 -0.20173,0.0126 h -14.36653 c -0.80689,0 -1.55705,-0.27106 -2.16222,-0.72494 -0.60518,-0.46018 -1.06536,-1.10948 -1.28599,-1.86595 l -0.0252,-0.0693 c -0.082,-0.22694 -0.13868,-0.46018 -0.1702,-0.68082 -0.0315,-0.23955 -0.0378,-0.46649 -0.0252,-0.69973 -0.0126,-1.70835 0.11347,-3.30953 0.37823,-4.79725 0.27737,-1.54445 0.69973,-3.00064 1.27969,-4.36858 0.60517,-1.43098 1.36794,-2.74219 2.28831,-3.92732 0.92036,-1.19143 1.99832,-2.26309 3.22758,-3.20867 1.17882,-0.90775 2.4396,-1.69574 3.77602,-2.36395 1.32381,-0.66191 2.75479,-1.21665 4.28033,-1.66422 1.47511,-0.42867 3.03216,-0.75647 4.65856,-0.9708 1.65162,-0.22063 3.34736,-0.3278 5.08723,-0.3278 1.89746,0 3.71298,0.12608 5.45285,0.37193 1.73356,0.24585 3.37888,0.62408 4.94224,1.12209 1.58857,0.51061 3.07629,1.15361 4.46314,1.92898 1.34272,0.75016 2.59089,1.6264 3.7445,2.62872 0.0693,0.0504 0.13238,0.10716 0.19542,0.1639 l 0.0189,0.0189 c 1.16622,1.03384 2.18114,2.14962 3.05738,3.35366 0.89515,1.23556 1.65161,2.57198 2.25679,4.01557 0.59886,1.41837 1.04644,2.91239 1.33642,4.47575 0.29628,1.56966 0.44127,3.20867 0.44127,4.91072 0,1.06535 -0.082,2.13701 -0.25216,3.21497 -0.1639,1.06536 -0.40975,2.09919 -0.73755,3.11412 -0.3278,1.02122 -0.73755,2.01093 -1.22925,2.96912 -0.4854,0.95819 -1.05275,1.89116 -1.69575,2.79262 v 0 c -0.0252,0.0378 -0.0567,0.0819 -0.0946,0.12607 v 0 c -0.59257,0.83212 -1.25448,1.64532 -1.97312,2.44591 -0.69973,0.77537 -1.43728,1.50032 -2.20005,2.16853 -0.80059,0.69973 -1.6327,1.34273 -2.49003,1.92899 -0.8195,0.56104 -1.68313,1.08426 -2.6035,1.56966 -0.3341,0.22694 -0.63669,0.44127 -0.89515,0.6556 -0.26476,0.21433 -0.50431,0.43497 -0.71234,0.6493 l -0.0693,0.0693 c -0.13868,0.1513 -0.26476,0.30889 -0.39084,0.4854 -0.11347,0.1639 -0.20803,0.3278 -0.28367,0.4854 l -0.0252,0.0504 -0.006,0.0126 c -0.0126,0.0189 -0.0189,0.0441 -0.0315,0.063 -0.0756,0.18281 -0.1513,0.38453 -0.21433,0.61147 -0.0693,0.25216 -0.13869,0.54844 -0.19542,0.89515 -0.063,0.36563 -0.11347,0.76908 -0.14499,1.19774 -0.0315,0.42866 -0.0504,0.90776 -0.0504,1.44359 0,0.98971 -0.40345,1.89116 -1.05275,2.54046 -0.6493,0.6493 -1.55075,1.05275 -2.54046,1.05275 h -14.75737 c -0.98971,0 -1.89116,-0.40345 -2.54046,-1.05275 -0.0378,-0.0378 -0.0756,-0.0756 -0.10717,-0.11978 -0.58626,-0.63669 -0.94558,-1.48771 -0.94558,-2.42068 0,-0.006 0,-0.0504 0.006,-0.17021 0.006,-0.0441 0.0126,-0.082 0.0126,-0.12607 z"
       id="path37635"
       style="fill:#ffffff;stroke:#add18b;stroke-width:5;stroke-miterlimit:4;stroke-dasharray:none;stroke-opacity:1"
       sodipodi:nodetypes="cccccccccccccccccccsscccssccccccccccccssccccccccccssccsccccccsccscccccccccscccssssccccccccccccccsssssscsccc" />
    <path
       sodipodi:type="star"
       style="fill:#ffffff;fill-opacity:1;stroke-width:10;stroke-linecap:square;stop-color:#000000"
       id="path29325-6"
       inkscape:flatsided="false"
       sodipodi:sides="6"
       sodipodi:cx="465.93665"
       sodipodi:cy="-872.64856"
       sodipodi:r1="299.99118"
       sodipodi:r2="346.41016"
       sodipodi:arg1="0.52359878"
       sodipodi:arg2="1.0471976"
       inkscape:rounded="0"
       inkscape:randomized="0"
       transform="matrix(0.03206652,0,0,0.03108313,739.07364,336.07931)"
       d="m 725.73663,-722.65297 -86.59492,150.00441 -173.20507,-0.009 -173.20509,0.009 -86.59489,-150.0044 -86.61017,-149.99561 86.61017,-149.99562 86.59492,-150.0044 173.20507,0.01 173.20509,-0.01 86.59489,150.0044 86.61017,149.99556 z" />
  </g>
</svg>
