<?xml version="1.0" encoding="UTF-8" standalone="no"?>
<!-- Created with Inkscape (http://www.inkscape.org/) -->

<svg
   width="338.66666mm"
   height="169.33333mm"
   viewBox="0 0 338.66666 169.33333"
   version="1.1"
   id="svg5"
   inkscape:version="1.2.2 (b0a8486541, 2022-12-01)"
   sodipodi:docname="impostor-syndrome-delusion.svg"
   xml:space="preserve"
   inkscape:export-filename="impostor-syndrome-delusion.png"
   inkscape:export-xdpi="96"
   inkscape:export-ydpi="96"
   xmlns:inkscape="http://www.inkscape.org/namespaces/inkscape"
   xmlns:sodipodi="http://sodipodi.sourceforge.net/DTD/sodipodi-0.dtd"
   xmlns="http://www.w3.org/2000/svg"
   xmlns:svg="http://www.w3.org/2000/svg"><sodipodi:namedview
     id="namedview7"
     pagecolor="#ffffff"
     bordercolor="#000000"
     borderopacity="0.25"
     inkscape:showpageshadow="2"
     inkscape:pageopacity="0.0"
     inkscape:pagecheckerboard="0"
     inkscape:deskcolor="#d1d1d1"
     inkscape:document-units="mm"
     showgrid="false"
     inkscape:zoom="0.82778694"
     inkscape:cx="771.93776"
     inkscape:cy="345.49953"
     inkscape:window-width="1920"
     inkscape:window-height="1168"
     inkscape:window-x="0"
     inkscape:window-y="0"
     inkscape:window-maximized="1"
     inkscape:current-layer="g20067"
     showguides="true" /><defs
     id="defs2"><marker
       style="overflow:visible"
       id="TriangleOutM"
       refX="0"
       refY="0"
       orient="auto"
       inkscape:stockid="TriangleOutM"
       inkscape:isstock="true"><path
         transform="scale(0.4)"
         style="fill:context-stroke;fill-rule:evenodd;stroke:context-stroke;stroke-width:1pt"
         d="M 5.77,0 -2.88,5 V -5 Z"
         id="path4612" /></marker><marker
       style="overflow:visible"
       id="marker6055"
       refX="0"
       refY="0"
       orient="auto"
       inkscape:stockid="TriangleOutM"
       inkscape:isstock="true"><path
         transform="scale(0.4)"
         style="fill:context-stroke;fill-rule:evenodd;stroke:context-stroke;stroke-width:1pt"
         d="M 5.77,0 -2.88,5 V -5 Z"
         id="path6053" /></marker></defs><g
     inkscape:label="Layer 1"
     inkscape:groupmode="layer"
     id="layer1"
     transform="translate(-1321.1293,-1657.6315)"><g
       id="g457"><rect
         style="fill:#ffffff;fill-opacity:1;stroke-width:0.310631;stroke-opacity:0"
         id="rect63916-3-6-5"
         width="338.66666"
         height="169.33333"
         x="1321.1293"
         y="1657.6315"
         inkscape:export-filename="reconciliation-loop.png"
         inkscape:export-xdpi="96"
         inkscape:export-ydpi="96" /><rect
         style="fill:#559e11;fill-opacity:1;stroke-width:0.170959;stroke-opacity:0"
         id="rect64126-6-8-6"
         width="338.66666"
         height="51.290916"
         x="1321.1293"
         y="1657.6315"
         inkscape:export-filename="devops-implementations.png"
         inkscape:export-xdpi="96"
         inkscape:export-ydpi="96" /><text
         xml:space="preserve"
         style="font-style:normal;font-weight:normal;font-size:11.2889px;line-height:1.25;font-family:sans-serif;fill:#ffffff;fill-opacity:1;stroke:none;stroke-width:0.528034"
         x="1417.2823"
         y="1690.317"
         id="text7142-2-2-7-8-1"
         inkscape:export-filename="devops-implementations.png"
         inkscape:export-xdpi="96"
         inkscape:export-ydpi="96"><tspan
           sodipodi:role="line"
           id="tspan7140-9-0-5-4-1"
           x="1417.2823"
           y="1690.317"
           style="font-style:normal;font-variant:normal;font-weight:normal;font-stretch:normal;font-size:11.2889px;font-family:Ubuntu;-inkscape-font-specification:Ubuntu;fill:#ffffff;stroke-width:0.528034">Impostor Syndrome Delusion</tspan></text><g
         id="g20128"
         transform="translate(1416.3794,757.10097)"><g
           id="g10020-6-6"
           transform="matrix(0.77485365,0,0,0.77485365,-938.88424,608.22629)"><g
             id="g9906-5-3"
             transform="translate(57.147059,-18.198087)"
             style="fill:#8ebf56;fill-opacity:1"><circle
               style="opacity:1;fill:#8ebf56;fill-opacity:1;stroke-width:0.168212;stroke-linecap:square;stroke-dashoffset:4.56021;stop-color:#000000"
               id="circle8184-54-6-1"
               cx="-1354.7367"
               cy="-493.23822"
               r="12.585717"
               transform="scale(-1)" /><circle
               style="opacity:1;fill:#8ebf56;fill-opacity:1;stroke-width:0.168212;stroke-linecap:square;stroke-dashoffset:4.56021;stop-color:#000000"
               id="circle8186-7-3-7"
               cx="-1327.2554"
               cy="-526.44531"
               r="12.585717"
               transform="scale(-1)" /><circle
               style="opacity:1;fill:#8ebf56;fill-opacity:1;stroke-width:0.168212;stroke-linecap:square;stroke-dashoffset:4.56021;stop-color:#000000"
               id="circle8188-6-9-5"
               cx="-1358.4264"
               cy="-512.51837"
               r="12.585717"
               transform="scale(-1)" /><circle
               style="opacity:1;fill:#8ebf56;fill-opacity:1;stroke-width:0.168212;stroke-linecap:square;stroke-dashoffset:4.56021;stop-color:#000000"
               id="circle8190-5-4-9"
               cx="-1346.204"
               cy="-526.71283"
               r="12.585717"
               transform="scale(-1)" /><circle
               style="opacity:1;fill:#8ebf56;fill-opacity:1;stroke-width:0.168212;stroke-linecap:square;stroke-dashoffset:4.56021;stop-color:#000000"
               id="circle8192-6-8-6"
               cx="-1336.8588"
               cy="-485.20584"
               r="12.585717"
               transform="scale(-1)" /><circle
               style="opacity:1;fill:#8ebf56;fill-opacity:1;stroke-width:0.168212;stroke-linecap:square;stroke-dashoffset:4.56021;stop-color:#000000"
               id="circle8194-9-1-2"
               cx="-1316.1012"
               cy="-512.51837"
               r="12.585717"
               transform="scale(-1)" /><circle
               style="opacity:1;fill:#8ebf56;fill-opacity:1;stroke-width:0.168212;stroke-linecap:square;stroke-dashoffset:4.56021;stop-color:#000000"
               id="circle8196-3-2-1"
               cx="-1319.6332"
               cy="-493.23822"
               r="12.585717"
               transform="scale(-1)" /></g><circle
             style="opacity:1;fill:#65a726;fill-opacity:1;stroke-width:0.168212;stroke-linecap:square;stroke-dashoffset:4.56021;stop-color:#000000"
             id="circle8182-4-9-7"
             cx="1394.4583"
             cy="488.54355"
             r="12.585717" /><g
             id="g9214-8-3-8"
             transform="translate(-182.6167,51.119883)"
             style="opacity:0.773914"><path
               id="circle8184-5-9-5"
               style="opacity:0.7;fill:#acd18b;stroke-width:0.168212;stroke-linecap:square;stroke-dashoffset:4.56021;stop-color:#000000"
               d="m 1576.6227,403.30211 a 12.585717,12.585717 0 0 0 -12.0959,9.13432 12.585717,12.585717 0 0 1 7.4559,11.48406 12.585717,12.585717 0 0 1 -0.4842,3.45353 12.585717,12.585717 0 0 0 5.1242,1.09968 12.585717,12.585717 0 0 0 5.7097,-1.37098 12.585717,12.585717 0 0 1 -0.4175,-3.18223 12.585717,12.585717 0 0 1 6.8771,-11.20862 12.585717,12.585717 0 0 0 -12.1693,-9.40976 z m 12.1693,9.40976 a 12.585717,12.585717 0 0 1 0.416,3.17603 12.585717,12.585717 0 0 1 -6.8756,11.21482 12.585717,12.585717 0 0 0 6.2885,7.93595 12.585717,12.585717 0 0 1 9.569,-4.42402 12.585717,12.585717 0 0 1 5.8864,1.47123 12.585717,12.585717 0 0 0 3.0097,-8.16539 12.585717,12.585717 0 0 0 -12.5858,-12.5858 12.585717,12.585717 0 0 0 -5.7082,1.37718 z m 15.2843,19.37401 a 12.585717,12.585717 0 0 1 -9.5761,4.4204 12.585717,12.585717 0 0 1 -5.8793,-1.46761 12.585717,12.585717 0 0 0 -3.0163,8.16178 12.585717,12.585717 0 0 0 0.1116,1.61798 12.585717,12.585717 0 0 1 0.2517,-0.009 12.585717,12.585717 0 0 1 12.4752,10.97401 12.585717,12.585717 0 0 0 12.3326,-12.58269 12.585717,12.585717 0 0 0 -6.6994,-11.11457 z m -5.6332,23.69726 a 12.585717,12.585717 0 0 1 -0.2532,0.003 12.585717,12.585717 0 0 1 -12.4737,-10.96781 12.585717,12.585717 0 0 0 -9.1028,4.16513 12.585717,12.585717 0 0 1 2.9916,8.14368 12.585717,12.585717 0 0 1 -3.2267,8.40569 12.585717,12.585717 0 0 0 9.5896,4.44779 12.585717,12.585717 0 0 0 12.5858,-12.58579 12.585717,12.585717 0 0 0 -0.1106,-1.61179 z m -22.0648,9.74979 a 12.585717,12.585717 0 0 1 -2.9962,-8.138 12.585717,12.585717 0 0 1 3.2313,-8.41137 12.585717,12.585717 0 0 0 -8.2434,-4.36821 12.585717,12.585717 0 0 1 -12.5052,11.17089 12.585717,12.585717 0 0 1 -1.342,-0.0806 12.585717,12.585717 0 0 0 -0.089,1.42161 12.585717,12.585717 0 0 0 12.5858,12.5858 12.585717,12.585717 0 0 0 9.3591,-4.18011 z m -21.8555,-9.8273 a 12.585717,12.585717 0 0 1 12.4964,-11.16366 12.585717,12.585717 0 0 1 1.3508,0.0734 12.585717,12.585717 0 0 0 0.081,-1.4149 12.585717,12.585717 0 0 0 -3.0613,-8.21346 12.585717,12.585717 0 0 1 -5.9924,1.51929 12.585717,12.585717 0 0 1 -9.5193,-4.36666 12.585717,12.585717 0 0 0 -6.5986,11.06083 12.585717,12.585717 0 0 0 11.2438,12.50518 z m -4.6452,-23.56601 a 12.585717,12.585717 0 0 1 5.9872,-1.52497 12.585717,12.585717 0 0 1 9.5245,4.37234 12.585717,12.585717 0 0 0 6.1092,-7.61297 12.585717,12.585717 0 0 1 -7.4616,-11.48612 12.585717,12.585717 0 0 1 0.4899,-3.45147 12.585717,12.585717 0 0 0 -5.1299,-1.10174 12.585717,12.585717 0 0 0 -12.5858,12.5858 12.585717,12.585717 0 0 0 3.0665,8.21913 z" /></g></g><g
           id="g19716"
           transform="translate(1.0583333)"><circle
             style="fill:#65a726;fill-opacity:1;stroke-width:0.0487227;stroke-linecap:square;stroke-dashoffset:4.56021;stop-color:#000000"
             id="path518-1-3-2-4-8-4"
             cx="103.03059"
             cy="1037.1642"
             r="3.6454635" /><circle
             style="fill:#acd18b;fill-opacity:1;stroke-width:0.0487227;stroke-linecap:square;stroke-dashoffset:4.56021;stop-color:#000000"
             id="circle16494-7-8-1"
             cx="103.03059"
             cy="1048.5391"
             r="3.6454635" /><text
             xml:space="preserve"
             style="font-style:normal;font-variant:normal;font-weight:bold;font-stretch:normal;font-size:5.80756px;line-height:1.25;font-family:Ubuntu;-inkscape-font-specification:'Ubuntu Bold';text-decoration-color:#000000;letter-spacing:0px;word-spacing:0px;fill:#2e3436;fill-opacity:1;stroke-width:0.247479;stroke-linecap:square;stroke-dashoffset:4.56021;stop-color:#000000"
             x="110.0258"
             y="1038.8744"
             id="text10198-4-5-8"><tspan
               sodipodi:role="line"
               id="tspan10196-4-0-5"
               style="font-style:normal;font-variant:normal;font-weight:500;font-stretch:normal;font-size:5.80756px;font-family:Ubuntu;-inkscape-font-specification:'Ubuntu Medium';fill:#2e3436;stroke-width:0.247479"
               x="110.0258"
               y="1038.8744">What you know</tspan></text><text
             xml:space="preserve"
             style="font-style:normal;font-variant:normal;font-weight:bold;font-stretch:normal;font-size:5.80756px;line-height:1.25;font-family:Ubuntu;-inkscape-font-specification:'Ubuntu Bold';text-align:center;text-decoration-color:#000000;letter-spacing:0px;word-spacing:0px;text-anchor:middle;fill:#2e3436;fill-opacity:1;stroke-width:0.453715;stroke-linecap:square;stroke-dashoffset:4.56021;stop-color:#000000"
             x="110.0258"
             y="1050.2494"
             id="text10218-3-9-9"><tspan
               sodipodi:role="line"
               style="font-style:normal;font-variant:normal;font-weight:500;font-stretch:normal;font-size:5.80756px;font-family:Ubuntu;-inkscape-font-specification:'Ubuntu Medium';text-align:start;text-anchor:start;fill:#2e3436;stroke-width:0.453715"
               x="110.0258"
               y="1050.2494"
               id="tspan10220-0-6-7">What each individual knows</tspan></text></g><text
           xml:space="preserve"
           style="font-style:normal;font-variant:normal;font-weight:bold;font-stretch:normal;font-size:7.74341px;line-height:1.25;font-family:Ubuntu;-inkscape-font-specification:'Ubuntu Bold';text-decoration-color:#000000;letter-spacing:0px;word-spacing:0px;fill:#2e3436;fill-opacity:1;stroke-width:0.189858;stroke-linecap:square;stroke-dashoffset:4.56021;stop-color:#000000"
           x="129.03278"
           y="1024.9603"
           id="text10307-7-3-5"><tspan
             sodipodi:role="line"
             id="tspan10305-8-8-3"
             style="font-style:normal;font-variant:normal;font-weight:500;font-stretch:normal;font-size:7.74341px;font-family:Ubuntu;-inkscape-font-specification:'Ubuntu Medium';fill:#2e3436;stroke-width:0.189858"
             x="129.03278"
             y="1024.9603">Reality</tspan></text><g
           id="g20067"><g
             id="g16890-9-9"
             transform="matrix(0.73292489,0,0,0.73292489,-907.39166,465.39159)"><circle
               style="fill:#acd18b;fill-opacity:1;stroke-width:0.472866;stroke-linecap:square;stroke-dashoffset:4.56021;stop-color:#000000"
               id="circle9381-0-8"
               cx="1253.858"
               cy="711.35333"
               r="35.380402" /><circle
               style="fill:#65a726;fill-opacity:1;stroke-width:0.168212;stroke-linecap:square;stroke-dashoffset:4.56021;stop-color:#000000"
               id="path518-1-3-9-4"
               cx="1253.858"
               cy="711.35333"
               r="12.585717" /></g><g
             id="g16886-1-8"
             transform="matrix(0.68593152,0,0,0.68593152,-934.9001,560.18899)"><circle
               style="fill:#65a726;fill-opacity:1;stroke-width:0.0710315;stroke-linecap:square;stroke-dashoffset:4.56021;stop-color:#000000"
               id="path518-1-3-2-7-1"
               cx="1315.7625"
               cy="695.36847"
               r="5.3146172" /><circle
               style="fill:#acd18b;fill-opacity:1;stroke-width:0.0710315;stroke-linecap:square;stroke-dashoffset:4.56021;stop-color:#000000"
               id="circle16494-71-0"
               cx="1315.7625"
               cy="711.95172"
               r="5.3146172" /><text
               xml:space="preserve"
               style="font-style:normal;font-variant:normal;font-weight:bold;font-stretch:normal;font-size:8.46667px;line-height:1.25;font-family:Ubuntu;-inkscape-font-specification:'Ubuntu Bold';text-decoration-color:#000000;letter-spacing:0px;word-spacing:0px;fill:#2e3436;fill-opacity:1;stroke-width:0.360793;stroke-linecap:square;stroke-dashoffset:4.56021;stop-color:#000000"
               x="1325.9606"
               y="697.86188"
               id="text10198-1-3"><tspan
                 sodipodi:role="line"
                 id="tspan10196-5-0"
                 style="font-style:normal;font-variant:normal;font-weight:500;font-stretch:normal;font-size:8.46667px;font-family:Ubuntu;-inkscape-font-specification:'Ubuntu Medium';fill:#2e3436;stroke-width:0.360793"
                 x="1325.9606"
                 y="697.86188">What you know</tspan></text><text
               xml:space="preserve"
               style="font-style:normal;font-variant:normal;font-weight:bold;font-stretch:normal;font-size:8.46667px;line-height:1.25;font-family:Ubuntu;-inkscape-font-specification:'Ubuntu Bold';text-align:center;text-decoration-color:#000000;letter-spacing:0px;word-spacing:0px;text-anchor:middle;fill:#2e3436;fill-opacity:1;stroke-width:0.661458;stroke-linecap:square;stroke-dashoffset:4.56021;stop-color:#000000"
               x="1387.7277"
               y="714.44513"
               id="text10218-9-4"><tspan
                 sodipodi:role="line"
                 style="font-style:normal;font-variant:normal;font-weight:500;font-stretch:normal;font-size:8.46667px;font-family:Ubuntu;-inkscape-font-specification:'Ubuntu Medium';text-align:center;text-anchor:middle;fill:#2e3436;stroke-width:0.661458"
                 x="1387.7277"
                 y="714.44513"
                 id="tspan10220-7-4">What you think everyone knows</tspan></text></g><g
             id="g19338"
             transform="matrix(0.68593152,0,0,0.68593152,-919.07823,630.84737)"><text
               xml:space="preserve"
               style="font-style:normal;font-variant:normal;font-weight:bold;font-stretch:normal;font-size:11.2889px;line-height:1.25;font-family:Ubuntu;-inkscape-font-specification:'Ubuntu Bold';text-decoration-color:#000000;letter-spacing:0px;word-spacing:0px;fill:#2e3436;fill-opacity:1;stroke-width:0.276788;stroke-linecap:square;stroke-dashoffset:4.56021;stop-color:#000000"
               x="1305.985"
               y="574.56604"
               id="text19336"><tspan
                 sodipodi:role="line"
                 id="tspan19334"
                 style="font-style:normal;font-variant:normal;font-weight:500;font-stretch:normal;font-size:11.2889px;font-family:Ubuntu;-inkscape-font-specification:'Ubuntu Medium';fill:#2e3436;stroke-width:0.276788"
                 x="1305.985"
                 y="574.56604">Impostor Syndrome</tspan></text></g></g></g></g></g></svg>
